<?xml version="1.0" encoding="UTF-8" standalone="no"?>
<!-- Created with Inkscape (http://www.inkscape.org/) -->

<svg
   width="13.23172mm"
   height="13.23172mm"
   viewBox="0 0 13.23172 13.23172"
   version="1.1"
   id="svg19476"
   xml:space="preserve"
   xmlns="http://www.w3.org/2000/svg"
   xmlns:svg="http://www.w3.org/2000/svg"><defs
     id="defs19473" /><g
     id="layer1"
     transform="translate(-88.414675,-126.5503)"><rect
       style="fill:none;stroke:#eeeeee;stroke-width:0.185208;stroke-linecap:butt;stroke-linejoin:round;stroke-dasharray:none;stroke-opacity:1"
       id="rect13830"
       width="13.046515"
       height="13.046515"
       x="88.507278"
       y="126.64291"
       ry="2.4361174" /><g
       id="g19762"
       style="stroke-width:0.0910462;stroke-dasharray:none"
       transform="matrix(1.4530165,0,0,1.4530165,-94.572109,-92.303508)"><path
         style="fill:none;stroke:#eeeeee;stroke-width:0.0910462;stroke-linecap:round;stroke-linejoin:round;stroke-dasharray:none"
         d="m 127.08064,153.17057 4.73519,-0.0265 c 0,0 0.11521,0.0268 0.17242,0.0398 0.12849,0.0666 0.2567,0.1329 0.38466,0.19895 0.15501,0.0843 0.30975,0.16828 0.46423,0.25202 0.0179,2.6e-4 0.0356,2.6e-4 0.053,0 0.19923,-0.0616 0.39818,-0.12354 0.59688,-0.1857 0.0224,2.7e-4 0.0445,2.7e-4 0.0663,0 0.11079,0.32745 0.22132,0.65462 0.33159,0.98153 0.009,0.0224 0.0179,0.0445 0.0265,0.0663 -0.15448,0.0489 -0.30923,0.0975 -0.46423,0.14591 0.0179,0.11522 0.0356,0.23017 0.053,0.34486 0.005,0.15059 0.009,0.30091 0.0132,0.45096 -0.009,0.0843 -0.0174,0.16828 -0.0265,0.25202 -0.0528,0.13732 -0.10585,0.27438 -0.15917,0.41118 -0.0837,0.10637 -0.16774,0.21248 -0.25201,0.31833 -0.12796,0.14617 -0.25617,0.29207 -0.38465,0.4377 -0.15891,0.0843 -0.31807,0.16828 -0.4775,0.25202 -0.12795,0.0312 -0.25617,0.0622 -0.38465,0.0928 -0.15448,2.7e-4 -0.30922,2.7e-4 -0.46423,0 -0.1368,-0.0219 -0.27386,-0.0439 -0.41118,-0.0663 -0.15449,-0.0616 -0.30922,-0.12354 -0.46424,-0.1857 -0.11911,-0.0926 -0.23848,-0.18543 -0.35812,-0.27854 -0.0705,-0.0926 -0.14121,-0.18543 -0.21222,-0.27854 -0.0528,-0.0705 -0.10585,-0.14122 -0.15916,-0.21222 -0.0838,-0.0793 -0.16775,-0.1589 -0.25202,-0.23875 -0.0837,-0.0793 -0.16774,-0.1589 -0.25201,-0.23875 -0.0882,-0.0528 -0.17659,-0.10585 -0.26528,-0.15916 -0.0749,-0.0307 -0.15006,-0.0616 -0.22548,-0.0928 -0.15006,-0.0484 -0.30038,-0.097 -0.45097,-0.1459 -0.12353,2.6e-4 -0.24733,2.6e-4 -0.37139,0 -0.18101,-0.004 -0.36228,-0.009 -0.54381,-0.0133 -0.10585,-0.009 -0.21196,-0.0174 -0.31833,-0.0265 -0.004,-0.0218 -0.009,-0.0439 -0.0133,-0.0663 2.6e-4,-0.0749 2.6e-4,-0.15007 0,-0.22549 -0.004,-0.51261 0.0133,-1.80388 0.0133,-1.80388 z"
         id="path19704" /><circle
         style="fill:none;stroke:#eeeeee;stroke-width:0.0910462;stroke-linecap:round;stroke-linejoin:round;stroke-dasharray:none"
         id="path19758"
         cx="131.49596"
         cy="155.01341"
         r="1.3122903" /></g></g></svg>
