<?xml version="1.0" encoding="UTF-8" standalone="no"?>
<!-- Created with Inkscape (http://www.inkscape.org/) -->

<svg
   width="11mm"
   height="11mm"
   viewBox="0 0 4.6050563 5.4813018"
   version="1.1"
   id="svg5"
   xml:space="preserve"
   xmlns="http://www.w3.org/2000/svg"
   xmlns:svg="http://www.w3.org/2000/svg"><defs
     id="defs2" /><g
     id="g8914"
     transform="rotate(-45,2.0816617,3.32766)"><g
       id="layer1"
       transform="translate(-48.840196,-69.558943)"><path
         style="opacity:1;fill:none;fill-opacity:1;stroke:none;stroke-width:1.19062;stroke-opacity:1"
         d="m 50.106074,74.923279 v -3.581088 h 2.154473 v 3.581088 z"
         id="path976" /><rect
         style="opacity:1;fill:none;fill-opacity:1;stroke:#000000;stroke-width:0.132292;stroke-linecap:butt;stroke-linejoin:round;stroke-dasharray:none;stroke-opacity:1;paint-order:normal"
         id="rect4808"
         width="2.154474"
         height="3.58109"
         x="50.106075"
         y="71.342186"
         ry="0.2432133" /><path
         style="opacity:1;fill:none;fill-opacity:1;stroke:#000000;stroke-width:0.079375;stroke-linecap:butt;stroke-linejoin:round;stroke-dasharray:none;stroke-opacity:1;paint-order:normal"
         d="m 51.535081,71.342191 c 0.0044,-0.244332 0.0088,-0.488921 0.09829,-0.611347 0.08948,-0.122425 0.263752,-0.122425 0.352966,9e-6 0.08921,0.122433 0.09362,0.367016 0.09803,0.611338"
         id="path4812" /><path
         style="fill:none;fill-opacity:1;stroke:#000000;stroke-width:0.0432589;stroke-linecap:butt;stroke-linejoin:round;stroke-dasharray:none;stroke-opacity:1;paint-order:normal"
         d="m 51.680617,71.296175 c 0.0021,-0.154368 0.0041,-0.308898 0.04619,-0.386247 0.04206,-0.07735 0.123995,-0.07735 0.165933,4e-6 0.04194,0.07735 0.044,0.231879 0.04607,0.386243"
         id="path4812-5" /><rect
         style="opacity:1;fill:none;fill-opacity:1;stroke:#000000;stroke-width:0.079375;stroke-linecap:butt;stroke-linejoin:round;stroke-dasharray:none;stroke-opacity:1;paint-order:normal"
         id="rect6296"
         width="1.4917437"
         height="0.63097054"
         x="50.437439"
         y="71.710373"
         ry="0.2432133"
         rx="0.11947043" /><ellipse
         style="opacity:1;fill:none;fill-opacity:1;stroke:#000000;stroke-width:0.132292;stroke-linecap:butt;stroke-linejoin:round;stroke-dasharray:none;stroke-opacity:1;paint-order:normal"
         id="path6298"
         cx="51.183311"
         cy="74.027199"
         rx="0.477144"
         ry="0.49073732" /><rect
         style="fill:#000000;fill-opacity:1;stroke:#000000;stroke-width:0.00281184;stroke-linecap:butt;stroke-linejoin:round;stroke-dasharray:none;stroke-opacity:1;paint-order:normal"
         id="rect6317"
         width="0.17449364"
         height="0.17449364"
         x="51.408154"
         y="72.597733" /><rect
         style="fill:#000000;fill-opacity:1;stroke:#000000;stroke-width:0.00281184;stroke-linecap:butt;stroke-linejoin:round;stroke-dasharray:none;stroke-opacity:1;paint-order:normal"
         id="rect6317-7"
         width="0.17449364"
         height="0.17449364"
         x="51.722466"
         y="72.597733" /><path
         style="opacity:1;fill:none;fill-opacity:1;stroke:#000000;stroke-width:0.132292;stroke-linecap:butt;stroke-linejoin:round;stroke-dasharray:none;stroke-opacity:1;paint-order:normal"
         d="M 50.106074,73.588458 50.437438,73.1301 h 1.491745 l 0.331364,0.497197"
         id="path6379" /><path
         style="opacity:1;fill:none;fill-opacity:1;stroke:#000000;stroke-width:0.132292;stroke-linecap:round;stroke-linejoin:round;stroke-dasharray:none;stroke-opacity:1;paint-order:normal"
         d="m 52.511547,73.363967 0.280691,-0.356412 0.263848,0.356412 0.404196,-0.300013"
         id="path6381" /><path
         style="fill:none;fill-opacity:1;stroke:#000000;stroke-width:0.132292;stroke-linecap:round;stroke-linejoin:round;stroke-dasharray:none;stroke-opacity:1;paint-order:normal"
         d="m 52.511547,74.123266 0.280691,-0.356412 0.263848,0.356412 0.404196,-0.300013"
         id="path6381-2" /><path
         style="fill:none;fill-opacity:1;stroke:#000000;stroke-width:0.132292;stroke-linecap:round;stroke-linejoin:round;stroke-dasharray:none;stroke-opacity:1;paint-order:normal"
         d="m 49.855078,74.123266 -0.280691,-0.356412 -0.263848,0.356412 -0.404196,-0.300013"
         id="path6381-2-6" /><path
         style="fill:none;fill-opacity:1;stroke:#000000;stroke-width:0.132292;stroke-linecap:round;stroke-linejoin:round;stroke-dasharray:none;stroke-opacity:1;paint-order:normal"
         d="m 49.855078,73.363967 -0.280691,-0.356412 -0.263848,0.356412 -0.404196,-0.300013"
         id="path6381-2-6-8" /><path
         style="opacity:1;fill:none;fill-opacity:1;stroke:#000000;stroke-width:0.132292;stroke-linecap:round;stroke-linejoin:round;stroke-dasharray:none;stroke-opacity:1;paint-order:normal"
         d="m 51.346286,70.30857 c 0.167906,-0.06226 0.335909,-0.124549 0.4907,-0.122823 0.154792,0.0017 0.295334,0.06707 0.436175,0.132556"
         id="path6457" /><path
         style="fill:none;fill-opacity:1;stroke:#000000;stroke-width:0.132292;stroke-linecap:round;stroke-linejoin:round;stroke-dasharray:none;stroke-opacity:1;paint-order:normal"
         d="m 51.161031,69.79706 c 0.235024,-0.08714 0.470183,-0.174337 0.686852,-0.171922 0.216668,0.0024 0.413392,0.09388 0.610532,0.185545"
         id="path6457-1" /><path
         style="opacity:1;fill:none;fill-opacity:1;stroke:none;stroke-width:1.19062;stroke-opacity:1"
         d="m 50.106074,74.923279 v -3.581088 h 2.154473 v 3.581088 z"
         id="path6507" /><rect
         style="opacity:1;fill:#f9f9f9;fill-opacity:1;stroke:#000000;stroke-width:0.132292;stroke-linecap:butt;stroke-linejoin:round;stroke-dasharray:none;stroke-opacity:1;paint-order:normal"
         id="rect6509"
         width="2.154474"
         height="3.58109"
         x="50.106075"
         y="71.342186"
         ry="0.2432133" /><path
         style="opacity:1;fill:#f9f9f9;fill-opacity:1;stroke:#000000;stroke-width:0.079375;stroke-linecap:butt;stroke-linejoin:round;stroke-dasharray:none;stroke-opacity:1;paint-order:normal"
         d="m 51.535081,71.342191 c 0.0044,-0.244332 0.0088,-0.488921 0.09829,-0.611347 0.08948,-0.122425 0.263752,-0.122425 0.352966,9e-6 0.08921,0.122433 0.09362,0.367016 0.09803,0.611338"
         id="path6511" /><path
         style="fill:#f9f9f9;fill-opacity:1;stroke:#000000;stroke-width:0.0454441;stroke-linecap:butt;stroke-linejoin:round;stroke-dasharray:none;stroke-opacity:1;paint-order:normal"
         d="m 51.680617,71.342191 c 0.0021,-0.170357 0.0041,-0.340893 0.04619,-0.426254 0.04206,-0.08536 0.123995,-0.08536 0.165933,4e-6 0.04194,0.08536 0.044,0.255897 0.04607,0.42625"
         id="path6513" /><rect
         style="opacity:1;fill:#f9f9f9;fill-opacity:1;stroke:#000000;stroke-width:0.079375;stroke-linecap:butt;stroke-linejoin:round;stroke-dasharray:none;stroke-opacity:1;paint-order:normal"
         id="rect6515"
         width="1.4917437"
         height="0.63097054"
         x="50.437439"
         y="71.710373"
         ry="0.2432133"
         rx="0.11947043" /><ellipse
         style="opacity:1;fill:#f9f9f9;fill-opacity:1;stroke:#000000;stroke-width:0.132292;stroke-linecap:butt;stroke-linejoin:round;stroke-dasharray:none;stroke-opacity:1;paint-order:normal"
         id="ellipse6517"
         cx="51.183311"
         cy="74.027199"
         rx="0.477144"
         ry="0.49073732" /><rect
         style="fill:#000000;fill-opacity:1;stroke:#000000;stroke-width:0.00281184;stroke-linecap:butt;stroke-linejoin:round;stroke-dasharray:none;stroke-opacity:1;paint-order:normal"
         id="rect6519"
         width="0.17449364"
         height="0.17449364"
         x="51.408154"
         y="72.597733" /><rect
         style="fill:#000000;fill-opacity:1;stroke:#000000;stroke-width:0.00281184;stroke-linecap:butt;stroke-linejoin:round;stroke-dasharray:none;stroke-opacity:1;paint-order:normal"
         id="rect6521"
         width="0.17449364"
         height="0.17449364"
         x="51.722466"
         y="72.597733" /><path
         style="opacity:1;fill:none;fill-opacity:1;stroke:#000000;stroke-width:0.132292;stroke-linecap:butt;stroke-linejoin:round;stroke-dasharray:none;stroke-opacity:1;paint-order:normal"
         d="M 50.106074,73.588458 50.437438,73.1301 h 1.491745 l 0.331364,0.497197"
         id="path6523" /></g></g></svg>
