<?xml version="1.0" encoding="UTF-8" standalone="no"?>
<!-- Created with Inkscape (http://www.inkscape.org/) -->

<svg
   width="13.229168mm"
   height="13.229156mm"
   viewBox="0 0 13.229168 13.229156"
   version="1.1"
   id="svg569"
   xml:space="preserve"
   sodipodi:docname="logo.svg"
   inkscape:version="1.2.2 (b0a84865, 2022-12-01)"
   xmlns:inkscape="http://www.inkscape.org/namespaces/inkscape"
   xmlns:sodipodi="http://sodipodi.sourceforge.net/DTD/sodipodi-0.dtd"
   xmlns="http://www.w3.org/2000/svg"
   xmlns:svg="http://www.w3.org/2000/svg"><sodipodi:namedview
     id="namedview571"
     pagecolor="#ffffff"
     bordercolor="#000000"
     borderopacity="0.25"
     inkscape:showpageshadow="2"
     inkscape:pageopacity="0.0"
     inkscape:pagecheckerboard="0"
     inkscape:deskcolor="#d1d1d1"
     inkscape:document-units="mm"
     showgrid="false"
     showguides="true"
     inkscape:zoom="4.720004"
     inkscape:cx="18.220324"
     inkscape:cy="24.999979"
     inkscape:window-width="1309"
     inkscape:window-height="456"
     inkscape:window-x="0"
     inkscape:window-y="772"
     inkscape:window-maximized="0"
     inkscape:current-layer="layer1" /><defs
     id="defs566"><inkscape:path-effect
       effect="bspline"
       id="path-effect1014"
       is_visible="true"
       lpeversion="1"
       weight="33.333333"
       steps="2"
       helper_size="0"
       apply_no_weight="true"
       apply_with_weight="true"
       only_selected="false" /><inkscape:path-effect
       effect="bspline"
       id="path-effect1010"
       is_visible="true"
       lpeversion="1"
       weight="33.333333"
       steps="2"
       helper_size="0"
       apply_no_weight="true"
       apply_with_weight="true"
       only_selected="false" /><inkscape:path-effect
       effect="bspline"
       id="path-effect956"
       is_visible="true"
       lpeversion="1"
       weight="33.333333"
       steps="2"
       helper_size="0"
       apply_no_weight="true"
       apply_with_weight="true"
       only_selected="false" /><inkscape:path-effect
       effect="bspline"
       id="path-effect877"
       is_visible="true"
       lpeversion="1"
       weight="33.333333"
       steps="2"
       helper_size="0"
       apply_no_weight="true"
       apply_with_weight="true"
       only_selected="false" /><inkscape:path-effect
       effect="bspline"
       id="path-effect877-0"
       is_visible="true"
       lpeversion="1"
       weight="33.333333"
       steps="2"
       helper_size="0"
       apply_no_weight="true"
       apply_with_weight="true"
       only_selected="false" /><inkscape:path-effect
       effect="bspline"
       id="path-effect956-9"
       is_visible="true"
       lpeversion="1"
       weight="33.333333"
       steps="2"
       helper_size="0"
       apply_no_weight="true"
       apply_with_weight="true"
       only_selected="false" /></defs><g
     inkscape:label="Layer 1"
     inkscape:groupmode="layer"
     id="layer1"
     transform="translate(-53.444028,-257.82262)"><g
       id="g2567"
       transform="matrix(0.83280816,0,0,0.83280816,-16.203618,94.288515)"><g
         id="g2425"><g
           id="g2404"><path
             style="fill:#eeeeee;fill-opacity:1;stroke:#eeeeee;stroke-width:0.132292;stroke-linecap:round;stroke-linejoin:round"
             d="m 92.147336,202.06365 c -0.0082,1.8815 -0.01642,3.76273 -0.0041,4.76087 0.01237,0.99814 0.04523,1.11315 0.09049,1.2035 0.04527,0.0904 0.102761,0.15607 0.176728,0.22176 0.07397,0.0657 0.164323,0.1314 0.262923,0.18475 0.0986,0.0534 0.205367,0.0944 0.316246,0.1149 0.11088,0.0205 0.225886,0.0205 0.398356,-0.0165 0.17247,-0.037 0.402475,-0.11093 0.595471,-0.20539 0.192995,-0.0945 0.349077,-0.20947 0.501041,-0.33269 0.151964,-0.12322 0.299832,-0.25466 0.410722,-0.36144 0.11089,-0.10678 0.184819,-0.18893 0.221766,-0.24201 0.03695,-0.0531 0.0369,-0.0773 -0.08064,-0.1027 -0.117538,-0.0254 -0.352837,-0.0518 -0.471396,-0.0665 -0.118558,-0.0147 -0.120524,-0.0187 -0.103681,-0.034 0.01684,-0.0153 0.05258,-0.0417 0.09682,-0.0775 0.04424,-0.0358 0.09696,-0.081 0.186362,-0.16849 0.08941,-0.0875 0.21553,-0.21741 0.315298,-0.32941 0.09977,-0.112 0.173167,-0.20611 0.248462,-0.30681 0.0753,-0.10071 0.152476,-0.20801 0.23624,-0.36328 0.08376,-0.15527 0.174119,-0.35857 0.222303,-0.45731 0.04818,-0.0987 0.05382,-0.0931 0.082,-0.047 0.02818,0.0461 0.07899,0.1327 0.118497,0.21366 0.03951,0.081 0.06773,0.15624 0.09878,0.24848 0.03105,0.0922 0.06493,0.20142 0.09314,0.3379 0.02821,0.13647 0.0508,0.30024 0.05925,0.45553 0.0084,0.15528 0.0028,0.30211 -0.01321,0.43951 -0.01601,0.1374 -0.04237,0.26541 -0.0819,0.40092 -0.03954,0.1355 -0.09225,0.27857 -0.131771,0.3736 -0.03952,0.095 -0.06589,0.14212 -0.07984,0.1656 -0.01395,0.0235 -0.01585,0.0235 -0.02063,0.01 -0.0048,-0.014 -0.0123,-0.0422 -0.02079,-0.0808 -0.0085,-0.0386 -0.01789,-0.0875 -0.03666,-0.13551 -0.01876,-0.048 -0.04702,-0.0951 -0.07334,-0.13462 -0.02632,-0.0395 -0.05079,-0.0715 -0.06395,-0.0877 -0.01316,-0.0162 -0.01506,-0.0162 -0.05284,0.0554 -0.03778,0.0716 -0.111202,0.21466 -0.185553,0.34076 -0.07435,0.1261 -0.149648,0.23528 -0.269166,0.36891 -0.119518,0.13363 -0.283288,0.29175 -0.454567,0.4301 -0.171279,0.13835 -0.350109,0.25694 -0.500696,0.35106 -0.150587,0.0941 -0.272951,0.16377 -0.385896,0.22777 -0.112945,0.064 -0.21649,0.12236 -0.463096,0.2579 -0.246606,0.13554 -0.636275,0.34826 -0.908324,0.51676 -0.272048,0.16849 -0.426412,0.29274 -0.521496,0.37747 -0.09508,0.0847 -0.130863,0.12992 -0.16194,0.17324 -0.03108,0.0433 -0.05743,0.0847 -0.07624,0.11295 -0.01881,0.0282 -0.03012,0.0433 -0.04318,0.0527 -0.01306,0.009 -0.02817,0.0131 -0.04338,0.017"
             id="path875"
             inkscape:path-effect="#path-effect877"
             inkscape:original-d="m 92.147336,202.06365 c -0.0079,1.8815 -0.01617,3.76273 -0.02463,5.64369 0.03313,0.11527 0.06598,0.23028 0.09858,0.34503 0.05777,0.066 0.115276,0.1317 0.172516,0.19716 0.09063,0.066 0.180993,0.1317 0.271095,0.19715 0.107061,0.0414 0.213852,0.0824 0.320381,0.12323 0.115279,2.7e-4 0.230285,2.7e-4 0.34503,0 0.230288,-0.0737 0.460303,-0.1476 0.690057,-0.2218 0.156353,-0.11475 0.312433,-0.22976 0.468254,-0.34503 0.148138,-0.13118 0.296003,-0.26262 0.443609,-0.39432 0.0742,-0.0819 0.148135,-0.16404 0.221802,-0.24645 2.15e-4,-0.024 1.62e-4,-0.0482 -1.53e-4,-0.0727 -0.235051,-0.0261 -0.470358,-0.0524 -0.705932,-0.0791 -0.0016,-0.003 -0.0035,-0.007 -0.0056,-0.0113 0.03603,-0.0261 0.0718,-0.0524 0.107302,-0.0791 0.05298,-0.0449 0.105683,-0.0901 0.158128,-0.13554 0.126394,-0.12963 0.252516,-0.25952 0.378378,-0.38967 0.07368,-0.0939 0.147098,-0.18799 0.220253,-0.28238 0.07745,-0.10703 0.154627,-0.21433 0.231544,-0.3219 0.09063,-0.20305 0.180983,-0.40635 0.271077,-0.60992 0.0059,0.006 0.01156,0.0116 0.01693,0.0169 0.05109,0.0869 0.101917,0.17345 0.152479,0.25978 0.0285,0.0756 0.05674,0.15087 0.08471,0.2259 0.03415,0.10945 0.06803,0.21863 0.101656,0.32755 0.02286,0.16405 0.04544,0.32782 0.06777,0.49133 -0.0054,0.1471 -0.01103,0.29393 -0.01693,0.4405 -0.02609,0.12828 -0.05245,0.25629 -0.07906,0.38403 -0.05245,0.14333 -0.105154,0.2864 -0.158129,0.42921 -0.02609,0.0473 -0.05244,0.0944 -0.07906,0.14118 -0.0016,2.6e-4 -0.0035,2.6e-4 -0.0056,0 -0.0073,-0.028 -0.01479,-0.0562 -0.0226,-0.0847 -0.0092,-0.0487 -0.01855,-0.0976 -0.02824,-0.14683 -0.02797,-0.0468 -0.05621,-0.0939 -0.08471,-0.14119 -0.02421,-0.0317 -0.04868,-0.0637 -0.07342,-0.096 -0.0016,2.7e-4 -0.0035,2.7e-4 -0.0056,0 -0.07315,0.14334 -0.146568,0.28641 -0.220249,0.42921 -0.07504,0.10945 -0.150334,0.21863 -0.225899,0.32755 -0.163513,0.1584 -0.327287,0.31652 -0.491326,0.47439 -0.178575,0.11886 -0.357407,0.23745 -0.536509,0.35579 -0.1221,0.0699 -0.244459,0.13956 -0.367083,0.20895 -0.103275,0.0586 -0.206809,0.11698 -0.31061,0.17507 -0.389416,0.21299 -0.779084,0.42571 -1.169022,0.63816 -0.154101,0.12451 -0.308462,0.24876 -0.463092,0.37274 -0.0355,0.0454 -0.07127,0.0906 -0.107299,0.13553 -0.02609,0.0417 -0.05245,0.0831 -0.07907,0.12425 -0.01103,0.0153 -0.02233,0.0304 -0.03388,0.0452 -0.01479,0.004 -0.02985,0.008 -0.04518,0.0113" /><path
             style="fill:#eeeeee;fill-opacity:1;stroke:#eeeeee;stroke-width:0.132292;stroke-linecap:round;stroke-linejoin:round"
             d="m 90.997435,202.06395 c 0.0082,1.8815 0.01642,3.76273 0.0041,4.76087 -0.01237,0.99814 -0.04523,1.11315 -0.0905,1.2035 -0.04527,0.0904 -0.102761,0.15607 -0.176728,0.22176 -0.07397,0.0657 -0.164323,0.1314 -0.262923,0.18475 -0.0986,0.0534 -0.205367,0.0944 -0.316246,0.1149 -0.11088,0.0205 -0.225886,0.0205 -0.398356,-0.0165 -0.17247,-0.037 -0.402475,-0.11093 -0.595471,-0.20539 -0.192995,-0.0945 -0.349077,-0.20947 -0.501041,-0.33269 -0.151964,-0.12322 -0.299832,-0.25466 -0.410722,-0.36144 -0.11089,-0.10678 -0.184819,-0.18893 -0.221766,-0.24201 -0.03695,-0.0531 -0.0369,-0.0773 0.08064,-0.1027 0.117538,-0.0254 0.352837,-0.0518 0.471396,-0.0665 0.118558,-0.0147 0.120524,-0.0187 0.103681,-0.034 -0.01684,-0.0153 -0.05258,-0.0417 -0.09682,-0.0775 -0.04424,-0.0358 -0.09696,-0.081 -0.186362,-0.16849 -0.08941,-0.0875 -0.21553,-0.21741 -0.315298,-0.32941 -0.09977,-0.112 -0.173167,-0.20611 -0.248462,-0.30681 -0.0753,-0.10071 -0.152476,-0.20801 -0.23624,-0.36328 -0.08376,-0.15527 -0.174119,-0.35857 -0.222303,-0.45731 -0.04818,-0.0987 -0.05382,-0.0931 -0.082,-0.047 -0.02818,0.0461 -0.07899,0.1327 -0.118497,0.21366 -0.03951,0.081 -0.06773,0.15624 -0.09878,0.24848 -0.03105,0.0922 -0.06493,0.20142 -0.09314,0.3379 -0.02821,0.13647 -0.0508,0.30024 -0.05925,0.45553 -0.0084,0.15528 -0.0028,0.30211 0.01321,0.43951 0.01601,0.1374 0.04237,0.26541 0.08191,0.40092 0.03954,0.1355 0.09225,0.27857 0.131771,0.3736 0.03952,0.095 0.06589,0.14212 0.07984,0.1656 0.01395,0.0235 0.01585,0.0235 0.02063,0.01 0.0048,-0.014 0.0123,-0.0422 0.02079,-0.0808 0.0085,-0.0386 0.01789,-0.0875 0.03666,-0.13551 0.01876,-0.048 0.04702,-0.0951 0.07334,-0.13462 0.02632,-0.0395 0.05079,-0.0715 0.06395,-0.0877 0.01316,-0.0162 0.01506,-0.0162 0.05284,0.0554 0.03778,0.0716 0.111202,0.21466 0.185553,0.34076 0.07435,0.1261 0.149648,0.23528 0.269166,0.36891 0.119518,0.13363 0.283288,0.29175 0.454567,0.4301 0.171279,0.13835 0.350109,0.25694 0.500696,0.35106 0.150587,0.0941 0.272951,0.16377 0.385896,0.22777 0.112945,0.064 0.21649,0.12236 0.463096,0.2579 0.246606,0.13554 0.636275,0.34826 0.908324,0.51676 0.272048,0.16849 0.426412,0.29274 0.521496,0.37747 0.09508,0.0847 0.130863,0.12992 0.16194,0.17324 0.03108,0.0433 0.05743,0.0847 0.07624,0.11295 0.01881,0.0282 0.03012,0.0433 0.04318,0.0527 0.01306,0.009 0.02817,0.0131 0.04338,0.0169"
             id="path875-2"
             inkscape:path-effect="#path-effect877-0"
             inkscape:original-d="m 90.997435,202.06395 c 0.0079,1.8815 0.01617,3.76273 0.02463,5.64369 -0.03313,0.11527 -0.06598,0.23028 -0.09858,0.34503 -0.05777,0.066 -0.115276,0.1317 -0.172516,0.19716 -0.09063,0.066 -0.180993,0.1317 -0.271095,0.19715 -0.107061,0.0414 -0.213852,0.0824 -0.320381,0.12323 -0.115279,2.7e-4 -0.230285,2.7e-4 -0.34503,0 -0.230288,-0.0737 -0.460303,-0.1476 -0.690057,-0.2218 -0.156353,-0.11475 -0.312433,-0.22976 -0.468254,-0.34503 -0.148138,-0.13118 -0.296003,-0.26262 -0.443609,-0.39432 -0.0742,-0.0819 -0.148135,-0.16404 -0.221802,-0.24645 -2.15e-4,-0.024 -1.62e-4,-0.0482 1.53e-4,-0.0727 0.235051,-0.0261 0.470358,-0.0524 0.705932,-0.0791 0.0016,-0.003 0.0035,-0.007 0.0056,-0.0113 -0.03603,-0.0261 -0.0718,-0.0524 -0.107302,-0.0791 -0.05298,-0.0449 -0.105683,-0.0901 -0.158128,-0.13554 -0.126394,-0.12963 -0.252516,-0.25952 -0.378378,-0.38967 -0.07368,-0.0939 -0.147098,-0.18799 -0.220253,-0.28238 -0.07745,-0.10703 -0.154627,-0.21433 -0.231544,-0.3219 -0.09063,-0.20305 -0.180983,-0.40635 -0.271077,-0.60992 -0.0059,0.006 -0.01156,0.0116 -0.01693,0.0169 -0.05109,0.0869 -0.101917,0.17345 -0.152479,0.25978 -0.0285,0.0756 -0.05674,0.15087 -0.08471,0.2259 -0.03415,0.10945 -0.06803,0.21863 -0.101656,0.32755 -0.02286,0.16405 -0.04544,0.32782 -0.06777,0.49133 0.0054,0.1471 0.01103,0.29393 0.01693,0.4405 0.02609,0.12828 0.05245,0.25629 0.07906,0.38403 0.05245,0.14333 0.105154,0.2864 0.158129,0.42921 0.02609,0.0473 0.05244,0.0944 0.07906,0.14118 0.0016,2.6e-4 0.0035,2.6e-4 0.0056,0 0.0073,-0.028 0.01479,-0.0562 0.0226,-0.0847 0.0092,-0.0487 0.01855,-0.0976 0.02824,-0.14683 0.02797,-0.0468 0.05621,-0.0939 0.08471,-0.14119 0.02421,-0.0317 0.04868,-0.0637 0.07342,-0.096 0.0016,2.7e-4 0.0035,2.7e-4 0.0056,0 0.07315,0.14334 0.146568,0.28641 0.220249,0.42921 0.07504,0.10945 0.150334,0.21863 0.225899,0.32755 0.163513,0.1584 0.327287,0.31652 0.491326,0.47439 0.178575,0.11886 0.357407,0.23745 0.536509,0.35579 0.1221,0.0699 0.244459,0.13956 0.367083,0.20895 0.103275,0.0586 0.206809,0.11698 0.31061,0.17507 0.389416,0.21299 0.779084,0.42571 1.169022,0.63816 0.154101,0.12451 0.308462,0.24876 0.463092,0.37274 0.0355,0.0454 0.07127,0.0906 0.107299,0.13553 0.02609,0.0417 0.05245,0.0831 0.07907,0.12425 0.01103,0.0153 0.02233,0.0304 0.03388,0.0452 0.01479,0.004 0.02985,0.008 0.04518,0.0113" /><path
             style="fill:#eeeeee;fill-opacity:1;stroke:#eeeeee;stroke-width:0.132292;stroke-linecap:round;stroke-linejoin:round"
             d="m 92.147336,202.06365 c 0.503634,0.003 1.006997,0.005 1.266142,7.6e-4 0.259146,-0.005 0.274322,-0.0164 0.289452,-0.0332 0.01513,-0.0168 0.03035,-0.0388 0.04381,-0.0623 0.01345,-0.0235 0.02525,-0.0488 0.03287,-0.15415 0.0076,-0.1053 0.01099,-0.29072 0.0077,-0.39858 -0.0033,-0.10786 -0.01343,-0.13818 -0.0302,-0.16351 -0.01678,-0.0253 -0.04036,-0.0455 -0.07069,-0.0658 -0.03034,-0.0203 -0.06741,-0.0405 -0.09021,-0.0507 -0.0228,-0.0102 -0.03119,-0.0102 -0.278151,-0.0119 -0.246962,-0.002 -0.732431,-0.005 -0.97451,-0.008 -0.242079,-0.003 -0.240526,-0.006 -0.239549,-0.0419 9.77e-4,-0.0355 9.77e-4,-0.10293 0.0018,-0.19143 8.48e-4,-0.0885 0.0025,-0.19807 0.0026,-0.25217 2e-5,-0.0541 -0.0019,-0.0522 -0.0034,-0.0507"
             id="path954"
             inkscape:path-effect="#path-effect956"
             inkscape:original-d="m 92.147336,202.06365 c 0.503632,0.003 1.006999,0.005 1.510101,0.008 0.01543,-0.0115 0.03061,-0.0233 0.04551,-0.0354 0.01543,-0.0216 0.03061,-0.0436 0.04551,-0.0657 0.01207,-0.025 0.02387,-0.0503 0.0354,-0.0759 0.0036,-0.18517 0.007,-0.37059 0.01011,-0.55628 -0.0098,-0.0301 -0.01998,-0.0604 -0.03034,-0.091 -0.02334,-0.02 -0.04693,-0.0402 -0.0708,-0.0607 -0.03682,-0.02 -0.07391,-0.0402 -0.111255,-0.0607 -0.0082,2.6e-4 -0.01659,2.6e-4 -0.02529,0 -0.485227,-0.003 -0.970698,-0.006 -1.456444,-0.0101 0.0019,-0.003 0.0036,-0.006 0.0051,-0.0101 2.64e-4,-0.0672 2.64e-4,-0.13459 0,-0.20228 0.0019,-0.10931 0.0036,-0.21888 0.0051,-0.32871 -0.0013,0.002 -0.0031,0.004 -0.0051,0.005" /><path
             style="fill:#eeeeee;fill-opacity:1;stroke:#eeeeee;stroke-width:0.132292;stroke-linecap:round;stroke-linejoin:round"
             d="m 90.997435,202.06395 c -0.503634,0.003 -1.006997,0.005 -1.266142,7.6e-4 -0.259146,-0.005 -0.274322,-0.0164 -0.289452,-0.0332 -0.01513,-0.0168 -0.03035,-0.0388 -0.04381,-0.0623 -0.01345,-0.0235 -0.02525,-0.0488 -0.03287,-0.15415 -0.0076,-0.1053 -0.01099,-0.29072 -0.0077,-0.39858 0.0033,-0.10786 0.01343,-0.13818 0.03021,-0.16351 0.01678,-0.0253 0.04035,-0.0455 0.07069,-0.0658 0.03033,-0.0203 0.06741,-0.0405 0.09021,-0.0507 0.0228,-0.0102 0.03119,-0.0102 0.278151,-0.0119 0.246962,-0.002 0.732431,-0.005 0.97451,-0.008 0.242079,-0.003 0.240526,-0.006 0.239549,-0.0419 -9.77e-4,-0.0355 -9.77e-4,-0.10293 -0.0018,-0.19143 -8.48e-4,-0.0885 -0.0025,-0.19807 -0.0026,-0.25217 -2e-5,-0.0541 0.0019,-0.0522 0.0034,-0.0507"
             id="path954-7"
             inkscape:path-effect="#path-effect956-9"
             inkscape:original-d="m 90.997435,202.06395 c -0.503632,0.003 -1.006999,0.005 -1.510101,0.008 -0.01543,-0.0115 -0.03061,-0.0233 -0.04551,-0.0354 -0.01543,-0.0216 -0.03061,-0.0436 -0.04551,-0.0657 -0.01207,-0.025 -0.02387,-0.0503 -0.0354,-0.0759 -0.0036,-0.18517 -0.007,-0.37059 -0.01011,-0.55628 0.0098,-0.0301 0.01998,-0.0604 0.03034,-0.091 0.02334,-0.02 0.04693,-0.0402 0.0708,-0.0607 0.03682,-0.02 0.07391,-0.0402 0.111255,-0.0607 0.0082,2.6e-4 0.01659,2.6e-4 0.02529,0 0.485227,-0.003 0.970698,-0.006 1.456444,-0.0101 -0.0019,-0.003 -0.0036,-0.006 -0.0051,-0.0101 -2.64e-4,-0.0672 -2.64e-4,-0.13459 0,-0.20228 -0.0019,-0.10931 -0.0036,-0.21888 -0.0051,-0.32871 0.0013,0.002 0.0031,0.004 0.0051,0.005" /><path
             style="fill:#eeeeee;fill-opacity:1;stroke:#eeeeee;stroke-width:0.132292;stroke-linecap:round;stroke-linejoin:round"
             d="m 91.03983,200.58007 c -0.02941,-0.0217 -0.05913,-0.0437 -0.12272,-0.0869 -0.06358,-0.0432 -0.16107,-0.10755 -0.25489,-0.19168 -0.09382,-0.0841 -0.183914,-0.18808 -0.256323,-0.29035 -0.07241,-0.10227 -0.12706,-0.20288 -0.166981,-0.29511 -0.03992,-0.0922 -0.06503,-0.17606 -0.08352,-0.26327 -0.01849,-0.0872 -0.03031,-0.17774 -0.03329,-0.25828 -0.003,-0.0805 0.0029,-0.15091 0.01718,-0.22954 0.01425,-0.0786 0.03686,-0.16536 0.06714,-0.25091 0.03027,-0.0855 0.06822,-0.16983 0.113778,-0.25224 0.04556,-0.0824 0.09874,-0.1629 0.160063,-0.2384 0.06132,-0.0755 0.130725,-0.1459 0.226783,-0.21636 0.09606,-0.0705 0.21863,-0.14087 0.351343,-0.19387 0.132714,-0.053 0.275449,-0.0886 0.370008,-0.10699 0.09456,-0.0184 0.140898,-0.0198 0.200263,-0.0182 0.05936,0.002 0.131708,0.006 0.226263,0.0245 0.09455,0.0186 0.211235,0.0512 0.329392,0.10271 0.118157,0.0516 0.23779,0.12199 0.333775,0.19246 0.09599,0.0705 0.168354,0.14089 0.234044,0.21634 0.06569,0.0755 0.124788,0.15598 0.173488,0.2415 0.0487,0.0855 0.0871,0.17608 0.114386,0.26156 0.02728,0.0855 0.04354,0.16602 0.05385,0.24147 0.01032,0.0755 0.01474,0.14586 0.01102,0.22632 -0.0037,0.0805 -0.01553,0.17101 -0.03253,0.25818 -0.01699,0.0872 -0.03915,0.17102 -0.07829,0.2632 -0.03914,0.0922 -0.09527,0.19278 -0.166152,0.29504 -0.07088,0.10225 -0.156547,0.20621 -0.278901,0.30974 -0.122354,0.10353 -0.281481,0.20669 -0.44068,0.30989"
             id="path1008"
             inkscape:path-effect="#path-effect1010"
             inkscape:original-d="m 91.03983,200.58007 c -0.02945,-0.0217 -0.05915,-0.0437 -0.08913,-0.0659 -0.09722,-0.0641 -0.194699,-0.12848 -0.292444,-0.19311 -0.08984,-0.1037 -0.17993,-0.20766 -0.270293,-0.31189 -0.05438,-0.10034 -0.109032,-0.20095 -0.163946,-0.30182 -0.02484,-0.0836 -0.04995,-0.16742 -0.07533,-0.25152 -0.01156,-0.0903 -0.02336,-0.18083 -0.03545,-0.27165 0.0062,-0.0702 0.01209,-0.14058 0.01773,-0.21127 0.02289,-0.0865 0.0455,-0.17324 0.06785,-0.26026 0.03821,-0.084 0.07615,-0.1683 0.113821,-0.25284 0.05344,-0.0802 0.106609,-0.16071 0.159517,-0.24146 0.06968,-0.0702 0.139102,-0.14059 0.208257,-0.21128 0.122859,-0.0702 0.245446,-0.14059 0.367773,-0.21128 0.142999,-0.0353 0.285726,-0.0709 0.428194,-0.1067 0.04659,-0.001 0.09291,-0.003 0.138975,-0.004 0.07264,0.005 0.14501,0.009 0.217117,0.0133 0.116951,0.0329 0.233632,0.0655 0.350049,0.0978 0.119904,0.0707 0.23954,0.14112 0.358912,0.21128 0.07264,0.0707 0.145011,0.14112 0.217118,0.21128 0.05935,0.0807 0.118424,0.16123 0.177241,0.24146 0.03867,0.0908 0.07707,0.18135 0.115205,0.27164 0.01651,0.0807 0.03276,0.16123 0.04874,0.24146 0.0047,0.0707 0.0091,0.14111 0.01328,0.21127 -0.01156,0.0908 -0.02336,0.18136 -0.03545,0.27165 -0.02188,0.0841 -0.04404,0.16794 -0.06646,0.25152 -0.05586,0.10087 -0.111988,0.20148 -0.168379,0.30182 -0.0854,0.10423 -0.171069,0.20819 -0.256997,0.31189 -0.158869,0.10342 -0.317995,0.20658 -0.477391,0.30948" /><path
             style="fill:#ffffff;stroke:#eeeeee;stroke-width:0.132292;stroke-linecap:round;stroke-linejoin:round"
             d="m 91.07789,199.85065 c -0.02971,-0.0285 -0.08942,-0.0858 -0.141473,-0.15634 -0.05206,-0.0705 -0.09634,-0.15436 -0.126499,-0.24157 -0.03016,-0.0872 -0.04605,-0.17773 -0.04893,-0.25828 -0.0029,-0.0805 0.0073,-0.15093 0.02891,-0.22642 0.02157,-0.0755 0.05451,-0.156 0.111331,-0.24158 0.05682,-0.0856 0.137452,-0.17612 0.220422,-0.24326 0.08297,-0.0671 0.168168,-0.11083 0.232943,-0.13548 0.06477,-0.0247 0.109129,-0.0303 0.148951,-0.0343 0.03982,-0.004 0.07513,-0.006 0.112662,-0.005 0.03753,0.001 0.07709,0.006 0.116815,0.0108 0.03972,0.005 0.07946,0.0108 0.11752,0.0193 0.03806,0.009 0.07442,0.0199 0.1153,0.0407 0.04088,0.0207 0.08635,0.0508 0.130619,0.0809 0.04427,0.0301 0.08745,0.0603 0.130577,0.1056 0.04313,0.0453 0.08627,0.10571 0.117499,0.15172 0.03123,0.046 0.05053,0.0776 0.06922,0.11783 0.01869,0.0402 0.03687,0.0891 0.04989,0.14876 0.01302,0.0596 0.02097,0.13008 0.01639,0.21052 -0.0046,0.0804 -0.02162,0.17099 -0.05456,0.25812 -0.03294,0.0871 -0.08179,0.17098 -0.133998,0.23978 -0.05221,0.0688 -0.107887,0.12269 -0.137236,0.14858 -0.02935,0.0259 -0.03266,0.0236 -0.03572,-0.003 -0.0031,-0.027 -0.0053,-0.0786 -0.0082,-0.12177 -0.0028,-0.0432 -0.0062,-0.0779 -0.01355,-0.10659 -0.0073,-0.0287 -0.01867,-0.0514 -0.03115,-0.076 -0.01248,-0.0246 -0.02612,-0.051 -0.04766,-0.0811 -0.02154,-0.0301 -0.05107,-0.0639 -0.08285,-0.0916 -0.03178,-0.0277 -0.06587,-0.0493 -0.0988,-0.0653 -0.03293,-0.0159 -0.06472,-0.0262 -0.101598,-0.0325 -0.03687,-0.006 -0.07875,-0.009 -0.122649,-0.007 -0.04389,0.002 -0.08968,0.007 -0.13183,0.0203 -0.04215,0.013 -0.08052,0.0335 -0.114483,0.0528 -0.03396,0.0193 -0.06351,0.0375 -0.08684,0.0584 -0.02333,0.0209 -0.04038,0.0445 -0.06082,0.0695 -0.02044,0.025 -0.04429,0.0514 -0.06019,0.0934 -0.0159,0.042 -0.02385,0.0994 -0.02952,0.1517 -0.0057,0.0522 -0.0091,0.0993 -0.01217,0.12794 -0.0031,0.0286 -0.0059,0.0388 -0.0072,0.0439 -0.0014,0.005 -0.0014,0.006 -0.03114,-0.0228 z"
             id="path1012"
             inkscape:path-effect="#path-effect1014"
             inkscape:original-d="m 91.1076,199.87915 c -0.05943,-0.057 -0.119131,-0.11429 -0.179096,-0.17183 -0.04404,-0.0836 -0.08833,-0.16742 -0.132893,-0.25152 -0.01564,-0.0903 -0.03154,-0.18083 -0.0477,-0.27165 0.01048,-0.0702 0.02072,-0.14058 0.03067,-0.21127 0.0332,-0.0802 0.06614,-0.16071 0.09882,-0.24146 0.08091,-0.0903 0.161551,-0.18083 0.241932,-0.27164 0.08545,-0.0434 0.170638,-0.0871 0.255558,-0.13103 0.04456,-0.005 0.08886,-0.0111 0.132893,-0.017 0.0356,-0.002 0.07093,-0.004 0.106,-0.007 0.0399,0.005 0.07952,0.009 0.118893,0.0136 0.04002,0.006 0.07977,0.0116 0.119263,0.017 0.03661,0.0116 0.07296,0.023 0.109038,0.0341 0.0457,0.0303 0.09113,0.0604 0.1363,0.0901 0.04343,0.0304 0.08659,0.0606 0.129484,0.0905 0.04343,0.0607 0.08659,0.12105 0.129485,0.18118 0.01958,0.0319 0.03888,0.0635 0.05792,0.0948 0.01844,0.0491 0.03661,0.098 0.05452,0.14664 0.0082,0.0707 0.01617,0.14112 0.02384,0.21128 -0.01677,0.0908 -0.03381,0.18136 -0.05111,0.27164 -0.04858,0.0841 -0.09742,0.16795 -0.146521,0.25152 -0.05539,0.0541 -0.111046,0.10801 -0.166966,0.16161 -0.0031,-0.002 -0.0066,-0.004 -0.01021,-0.007 -0.0021,-0.0513 -0.0043,-0.10294 -0.0068,-0.1548 -0.0031,-0.0345 -0.0065,-0.0692 -0.01021,-0.10417 -0.01109,-0.0225 -0.02246,-0.0452 -0.03408,-0.0682 -0.01336,-0.0261 -0.027,-0.0525 -0.04089,-0.0792 -0.02927,-0.0335 -0.0588,-0.0673 -0.0886,-0.1014 -0.03381,-0.0213 -0.06788,-0.0429 -0.102224,-0.0647 -0.03154,-0.01 -0.06334,-0.0202 -0.09541,-0.0307 -0.04164,-0.002 -0.08354,-0.004 -0.125709,-0.007 -0.04554,0.006 -0.09133,0.0116 -0.137395,0.017 -0.03811,0.0207 -0.07649,0.0411 -0.115126,0.0613 -0.02927,0.0184 -0.0588,0.0366 -0.08859,0.0545 -0.01678,0.0238 -0.03381,0.0474 -0.05111,0.0707 -0.0236,0.0267 -0.04744,0.0531 -0.07156,0.0792 -0.0077,0.0577 -0.01564,0.11514 -0.02384,0.17232 -0.0031,0.0473 -0.0065,0.0944 -0.01021,0.14117 -0.0024,0.0105 -0.0053,0.0207 -0.0083,0.0307 z" /></g></g><path
         style="fill:#eeeeee;fill-opacity:1;stroke:#eeeeee;stroke-width:0.0499911;stroke-linecap:round;stroke-linejoin:round"
         d="m 345.88847,796.76967 c 0,-0.10372 -0.36441,-6.34636 -0.8098,-13.87254 -0.49425,-8.35159 -0.83036,-14.80409 -0.86255,-16.55844 -0.0342,-1.86169 -0.0888,-2.87449 -0.15521,-2.87449 -0.068,0 -0.0829,-0.50759 -0.0445,-1.50893 0.045,-1.17129 0.0931,-1.54777 0.21514,-1.68257 0.12043,-0.13307 0.15715,-0.40314 0.15715,-1.15568 v -0.98204 l 0.97483,0.0645 c 0.53615,0.0355 1.30102,0.0648 1.6997,0.0651 l 0.72487,5.1e-4 v 0.89984 c 0,0.76653 0.0296,0.92947 0.19996,1.09981 0.18212,0.18212 0.19997,0.33327 0.19997,1.69379 0,0.88804 -0.0405,1.5189 -0.1,1.55563 -0.0617,0.0381 -0.10003,0.89271 -0.10012,2.2305 -10e-5,1.49351 -0.24774,6.43332 -0.7954,15.86628 -0.96836,16.67907 -0.87176,15.34727 -1.1131,15.34727 -0.12048,0 -0.19099,-0.0696 -0.19099,-0.18857 z"
         id="path2406"
         transform="scale(0.26458333)" /><path
         style="fill:#eeeeee;fill-opacity:1;stroke:#eeeeee;stroke-width:0.0142051;stroke-linecap:round;stroke-linejoin:round"
         d="m 348.24425,763.21081 c 0,-0.0547 0.006,-0.0771 0.013,-0.0497 0.007,0.0273 0.007,0.0721 0,0.0994 -0.007,0.0273 -0.013,0.005 -0.013,-0.0497 z"
         id="path2408"
         transform="scale(0.26458333)" /><path
         style="fill:#eeeeee;fill-opacity:1;stroke:#eeeeee;stroke-width:0.132292;stroke-linecap:round;stroke-linejoin:round"
         id="path2480"
         d="m 91.144599,200.50387 c 0,0.0276 0,0.0551 0,0.0827 0,0.0158 0.0013,0.0235 -0.0062,0.0364 -0.01463,0.0164 -0.01741,0.0344 -0.02254,0.0548 -0.0016,0.007 -0.0041,0.0131 -0.006,0.0198 -5.29e-4,0.005 -7.94e-4,0.009 -0.0016,0.0135 -4.8e-5,2.6e-4 -7.94e-4,-2.7e-4 -7.94e-4,-5e-5 -7.94e-4,0.002 -0.0013,0.003 -0.0016,0.005 -0.0024,0.009 -0.0024,0.0175 -0.0016,0.0269 1.45e-4,0.002 5.29e-4,0.007 5.29e-4,0.005 2.6e-5,-0.002 0.0013,-0.009 -5.29e-4,-0.007 -0.0029,0.003 -0.01027,0.0386 -0.01146,0.0445 -2.64e-4,0.004 -7.93e-4,0.008 -0.0011,0.0122 1.11e-4,0.004 5.29e-4,0.008 2.65e-4,0.0124 -3.2e-5,5.3e-4 -0.0011,-0.001 -0.0011,-8e-4 -0.0013,0.003 -0.0019,0.006 -0.0024,0.009 -0.0024,0.0112 -0.0019,0.011 -0.0024,0.0234 -7.94e-4,0.0177 0.0024,0.034 0.0096,0.0502 0,0 0.04812,-0.022 0.04812,-0.022 v 0 c -5.29e-4,-0.001 -0.0011,-0.002 -0.0019,-0.004 -5.3e-4,-7.9e-4 -0.0016,-0.001 -0.0019,-0.002 -0.0011,-0.007 -1.1e-5,-0.0144 -0.0011,-0.0215 -5.29e-4,-0.0118 0.0043,-0.0225 0.0057,-0.0342 2.46e-4,-0.002 -5.29e-4,-0.004 -5.29e-4,-0.006 -2.4e-5,-0.002 2.01e-4,-0.004 2.64e-4,-0.006 0.0016,-0.009 0.0038,-0.0178 0.0058,-0.0266 0.0046,-0.0202 -0.0011,0.0194 0.0068,-0.025 2.65e-4,-0.002 -2.64e-4,-0.004 -5.29e-4,-0.006 -1.4e-4,-0.001 -1.46e-4,-0.002 -5.29e-4,-0.004 -6.1e-5,-2.7e-4 -0.0011,-6e-5 -7.94e-4,-5.3e-4 0.0019,-0.007 0.0069,-0.014 0.005,-0.0214 0.0021,-0.008 0.0049,-0.0157 0.0069,-0.0237 0.0011,-0.004 0.0019,-0.008 0.0026,-0.0125 2.38e-4,-0.002 -7.94e-4,-0.004 -1.22e-4,-0.005 0.0041,-0.009 0.01344,-0.0155 0.01643,-0.0254 0.0026,-0.006 0.0057,-0.012 0.0076,-0.0183 0.0046,-0.0157 0.0034,-0.024 0.0034,-0.0401 0,-0.0276 0,-0.0551 0,-0.0827 0,0 -0.05292,0 -0.05292,0 z" /><path
         style="fill:#eeeeee;fill-opacity:1;stroke:#eeeeee;stroke-width:0.132292;stroke-linecap:round;stroke-linejoin:round"
         id="path2482"
         d="m 91.093254,200.55807 c 0,0.0742 0,0.14833 0,0.22249 -1.08e-4,0.0492 0.0086,0.0976 0.01299,0.1464 7.94e-4,0.008 5.3e-4,0.0156 0.0013,0.0234 7.94e-4,0.009 0.0026,0.0173 0.0038,0.026 -5e-5,0.0214 -0.0013,0.0428 -0.0011,0.0642 -5.3e-4,0.023 0.0019,0.0464 1.87e-4,0.0694 -5.29e-4,0.006 -0.0019,0.0122 -0.0026,0.0184 -0.005,0.0228 -0.0126,0.0448 -0.01908,0.0671 -0.0024,0.008 -0.004,0.0159 -0.0066,0.0236 -0.0048,0.0146 -0.01087,0.0287 -0.01614,0.0432 -0.0024,0.007 -0.0052,0.0133 -0.0069,0.0202 -0.004,0.0155 -0.0065,0.0337 -0.007,0.0498 -1.27e-4,0.004 2.65e-4,0.008 2.28e-4,0.0117 -4.8e-5,0.002 -2.65e-4,-0.003 -5.29e-4,-0.004 0,0 0.04944,0.0189 0.04944,0.0189 v 0 c 0.0013,-0.005 0.0031,-0.0105 0.0039,-0.0159 7.94e-4,-0.006 -5.29e-4,-0.0115 1.88e-4,-0.0171 0.0019,-0.0154 0.004,-0.0306 0.01035,-0.045 0.0057,-0.0157 0.01217,-0.0312 0.01738,-0.0471 0.0024,-0.007 0.0041,-0.0151 0.0063,-0.0225 0.0072,-0.025 0.0159,-0.0497 0.02085,-0.0754 0.0011,-0.008 0.0024,-0.0168 0.0031,-0.0252 0.0016,-0.0232 -7.94e-4,-0.0468 -1.94e-4,-0.07 -2.64e-4,-0.0237 0.0019,-0.0474 5.3e-4,-0.0711 -0.0011,-0.007 -0.0027,-0.0143 -0.0033,-0.0216 -7.94e-4,-0.009 -7.94e-4,-0.0175 -0.0016,-0.0261 -0.0042,-0.0469 -0.01267,-0.0934 -0.01267,-0.14064 0,-0.0742 0,-0.14833 0,-0.22249 0,0 -0.05292,0 -0.05292,0 z" /><path
         style="fill:#eeeeee;fill-opacity:1;stroke:#eeeeee;stroke-width:0.132292;stroke-linecap:round;stroke-linejoin:round"
         id="path2484"
         d="m 91.053318,201.05725 c 0,0.0874 0,0.17472 0,0.26208 0,0.0591 0,0.11814 0,0.17721 0,0.025 0.0011,0.05 0,0.075 -5.29e-4,0.01 -0.0019,0.0196 -0.0028,0.0293 -0.01024,0.0445 -0.03157,0.0851 -0.04848,0.12721 -0.0076,0.0223 -0.0069,0.0453 -0.0059,0.0684 2.65e-4,0.0103 5.29e-4,0.0207 2.65e-4,0.0311 -2.9e-5,0.002 -0.0019,0.005 -1.54e-4,0.005 0.01762,1e-5 0.03524,-1.2e-4 0.05285,-1.8e-4 0,0 -0.05291,5.3e-4 -0.05291,5.3e-4 v 0 c 0.01762,0.001 0.03523,0.003 0.05288,0.003 3.9e-5,0 1.64e-4,-0.002 2.51e-4,-0.008 1.64e-4,-0.0113 1.19e-4,-0.0225 -2.65e-4,-0.0338 -5.29e-4,-0.0157 -0.0019,-0.0312 0.0021,-0.0465 0.01881,-0.0469 0.04282,-0.092 0.05207,-0.14217 0.0011,-0.0113 0.0024,-0.0227 0.003,-0.0341 0.0011,-0.0249 0,-0.05 0,-0.075 0,-0.0591 0,-0.11814 0,-0.17721 0,-0.0874 0,-0.17472 0,-0.26208 0,0 -0.05292,0 -0.05292,0 z" /><path
         style="fill:#eeeeee;fill-opacity:1;stroke:#eeeeee;stroke-width:0.132292;stroke-linecap:round;stroke-linejoin:round"
         id="path2486"
         d="m 90.990564,201.53362 c 0,0.0516 0,0.10316 0,0.15475 0,0.0401 0,0.0801 0,0.12016 -0.0013,0.016 0.005,0.0553 -0.0063,0.067 -0.0072,0.0141 -5.29e-4,-1.3e-4 -0.007,0.0202 -1.82e-4,5.3e-4 -2.9e-5,-0.002 -2.17e-4,-0.002 -0.0041,0.0129 -0.0046,0.0246 -0.0045,0.0379 -1.19e-4,0.007 0.0016,0.015 0.0011,0.0224 -5.29e-4,-0.0203 0.05435,-0.0151 0.05281,0.002 -0.0016,0.0175 -0.03527,0 -0.05284,0.001 -3e-5,0 -3.2e-5,0.008 -5.1e-5,0.0134 0,0 0.05292,1.7e-4 0.05292,1.7e-4 v 0 c 1.9e-5,-0.005 9.3e-5,-0.0144 4.5e-5,-0.0144 -0.01752,-0.002 -0.05027,-0.0208 -0.05291,-0.003 -0.0026,0.0175 0.05352,0.026 0.05274,0.005 7.94e-4,-0.009 -1.32e-4,-0.0188 -7.94e-4,-0.0282 -1.59e-4,-0.004 -0.0011,-0.0113 1.25e-4,-0.0159 0.0011,-0.004 0.003,-0.008 0.0041,-0.0117 2.65e-4,-0.001 -0.0021,0.004 -0.0019,0.003 2.65e-4,-0.002 0.0013,-0.003 0.0021,-0.004 0.0021,-0.004 0.0048,-0.008 0.0067,-0.0126 0.01082,-0.0257 0.006,-0.0543 0.007,-0.0812 0,-0.0401 0,-0.0801 0,-0.12016 0,-0.0516 0,-0.10317 0,-0.15475 0,0 -0.05292,0 -0.05292,0 z" /><path
         style="fill:#eeeeee;fill-opacity:1;stroke:#eeeeee;stroke-width:0.132292;stroke-linecap:round;stroke-linejoin:round"
         id="path2488"
         d="m 91.25378,200.57882 c 0.05645,0 0.112911,0 0.169365,0 0.02708,0.001 0.05441,-0.002 0.08147,0 0.0073,5.3e-4 0.02971,0.004 0.03736,0.005 0.0058,7.9e-4 0.01164,0.001 0.01746,0.002 0.01701,7.9e-4 0.03401,-8e-4 0.05101,-0.001 0.0047,-1.7e-4 0.0094,-8e-4 0.0141,-2.7e-4 0.0013,1.1e-4 0.0073,0.003 0.0088,0.004 0.01198,0.005 0.02453,0.004 0.03701,0.003 0.0031,-2.4e-4 0.0063,-0.001 0.0094,-7.9e-4 0.0013,1.1e-4 0.0021,0.001 0.0032,0.002 0.0024,0.001 0.0047,0.002 0.007,0.002 0.0019,0.001 0.0038,0.002 0.0057,0.003 0.003,0.001 0.0062,0.002 0.0092,0.004 5.29e-4,2.6e-4 0.0011,10e-4 0.0016,0.002 0.0028,0.001 0.0053,0.003 0.0083,0.004 0.0045,10e-4 0.0093,10e-4 0.01378,0.003 0.0011,2.3e-4 -0.0019,1.7e-4 -0.0029,2.5e-4 -7.94e-4,-2.6e-4 -0.003,-0.001 -0.0024,-7.9e-4 0.01302,0.006 0.0075,0.004 0.0209,0.005 0,0 -0.0024,-0.0529 -0.0024,-0.0529 v 0 c 0.0024,2.6e-4 0.0047,2.6e-4 0.007,0.001 0.0013,5.3e-4 0.01635,0.0103 -0.0034,-0.002 -0.0044,-0.001 -0.0088,-0.003 -0.01333,-0.004 -0.0016,-2.7e-4 0.0029,0.001 0.0042,0.002 5.3e-4,2.4e-4 -0.0011,-8e-5 -0.0013,-2.6e-4 -0.0096,-0.005 -0.01871,-0.0102 -0.02899,-0.0141 -0.01228,-0.004 -0.01556,-0.005 -0.03008,-0.006 -0.0075,-5.3e-4 -0.01492,0.002 -0.02236,0.002 -0.01233,-0.005 -0.01503,-0.006 -0.02999,-0.008 -0.005,-5.3e-4 -0.01005,2e-4 -0.01505,2.6e-4 -0.01469,5.3e-4 -0.02932,0.002 -0.04401,0.002 -0.01992,-0.002 -0.03959,-0.006 -0.05956,-0.007 -0.02706,-0.002 -0.05439,0.001 -0.08147,0 -0.05645,0 -0.112911,0 -0.169365,0 0,0 0,0.0529 0,0.0529 z" /><path
         style="fill:#eeeeee;fill-opacity:1;stroke:#eeeeee;stroke-width:0.132292;stroke-linecap:round;stroke-linejoin:round"
         id="path2490"
         d="m 91.707323,200.56014 c -0.04818,0.001 -0.09666,-0.003 -0.144653,0.003 -0.02527,0.003 -0.03682,0.007 -0.06067,0.0137 -0.01852,0.007 -0.02154,0.006 -0.03651,0.0173 -0.0028,0.002 -0.0086,0.004 -0.0074,0.007 0.006,0.0158 0.01503,0.0307 0.0264,0.0432 0.0026,0.003 0.0077,-0.001 0.01151,-0.002 0.0086,-10e-4 0.01722,-0.003 0.02585,-0.005 0.0123,-0.001 0.02458,-0.003 0.03691,-0.003 0.03943,-0.002 0.09277,-0.001 0.130842,-8e-4 0.04496,5.3e-4 0.08995,1.8e-4 0.134877,0.002 0.0127,5.3e-4 0.02532,0.002 0.03799,0.003 0.0067,0.002 0.01355,0.003 0.02,0.005 0.0024,7.9e-4 0.0039,0.003 0.006,0.004 0.0036,0.002 0.0074,0.004 0.01119,0.005 0.0078,0.003 0.02262,0.007 0.03041,0.009 0,0 0.01423,-0.051 0.01423,-0.051 v 0 c -0.0078,-0.002 -0.01572,-0.004 -0.02334,-0.007 -0.01857,-0.006 -0.03295,-0.0197 -0.0543,-0.0187 -0.01381,-0.001 -0.02759,-0.003 -0.04144,-0.003 -0.04509,-0.002 -0.09023,-0.002 -0.13535,-0.002 -0.04012,-5.2e-4 -0.09473,-10e-4 -0.135956,0.001 -0.01381,8e-4 -0.02757,0.003 -0.04135,0.004 -0.0081,10e-4 -0.01627,0.003 -0.02442,0.004 -0.0041,7.9e-4 -0.01326,-0.002 -0.01238,0.002 0.0034,0.016 0.01558,0.0289 0.02212,0.0439 5.29e-4,0.002 -0.01048,0.004 0.0011,-0.002 0.0055,-0.003 0.01143,-0.004 0.01714,-0.006 0.01876,-0.005 0.03089,-0.009 0.05057,-0.012 0.04662,-0.006 0.09378,-0.001 0.140595,-0.003 0,0 0,-0.0529 0,-0.0529 z" /><path
         style="fill:#eeeeee;fill-opacity:1;stroke:#eeeeee;stroke-width:0.132292;stroke-linecap:round;stroke-linejoin:round"
         id="path2492"
         d="m 92.017457,200.62082 c 0,0.0682 0,0.13645 0,0.20467 0,0.0307 0,0.0615 0,0.0922 0,0.007 -5.29e-4,0.0139 0,0.0208 5.29e-4,0.008 0.0021,0.0158 0.0031,0.0236 5.3e-4,0.0176 0.0098,0.0332 0.01434,0.0496 0.0013,0.005 0.0016,0.01 0.0021,0.0146 0.0047,0.0308 0.003,0.015 0.005,0.0481 0.0011,0.0104 0.0021,0.0208 0.0029,0.0313 0.0024,0.0329 0.0046,0.0659 0.0077,0.0988 0.0108,0.11534 -0.0024,-0.0429 0.006,0.0598 0.0036,0.0232 0.0056,0.0465 0.0061,0.07 0,0 0.0529,-0.002 0.0529,-0.002 v 0 c -7.94e-4,-0.0244 -0.0024,-0.0487 -0.0063,-0.0729 -0.0034,-0.0416 -0.0083,-0.083 -0.01167,-0.12454 -7.94e-4,-0.0115 -0.0011,-0.0231 -0.0021,-0.0346 -7.94e-4,-0.01 -0.0019,-0.0198 -0.0028,-0.0298 -0.0019,-0.0264 -0.0037,-0.0527 -0.01064,-0.0783 -0.01167,-0.0432 5.29e-4,0.013 -0.0087,-0.024 -0.0011,-0.005 -0.0019,-0.009 -0.0027,-0.0141 -7.94e-4,-0.005 -0.0021,-0.0107 -0.0026,-0.0161 -5.29e-4,-0.007 0,-0.0138 0,-0.0208 0,-0.0307 0,-0.0615 0,-0.0922 0,-0.0682 0,-0.13644 0,-0.20467 0,0 -0.05292,0 -0.05292,0 z" /><path
         style="fill:#eeeeee;fill-opacity:1;stroke:#eeeeee;stroke-width:0.132292;stroke-linecap:round;stroke-linejoin:round"
         id="path2494"
         d="m 92.063098,201.33109 c 0,0.0441 0,0.0882 0,0.13229 0,0.0687 0,0.13736 0,0.20604 0,0.0512 0,0.10239 0,0.15357 0,0.0403 0,0.0805 0,0.12078 0.0028,0.0229 0.0049,0.046 0.01053,0.0685 0.004,0.016 0.0091,0.0292 0.0095,0.0457 -2.64e-4,7.9e-4 -5.29e-4,0.002 -7.93e-4,0.003 0,0 0.05241,0.007 0.05241,0.007 v 0 c 5.29e-4,-0.004 7.93e-4,-0.008 0.0013,-0.0128 -5.3e-4,-0.006 -2.65e-4,-0.0117 -0.0013,-0.0174 -0.0032,-0.022 -0.0041,-0.016 -0.0093,-0.0362 -0.0049,-0.019 -0.0065,-0.0384 -0.0094,-0.0577 0,-0.0403 0,-0.0805 0,-0.12078 0,-0.0512 0,-0.10238 0,-0.15357 0,-0.0687 0,-0.13736 0,-0.20604 0,-0.0441 0,-0.0882 0,-0.13229 0,0 -0.05292,0 -0.05292,0 z" /><path
         style="fill:#eeeeee;fill-opacity:1;stroke:#eeeeee;stroke-width:0.132292;stroke-linecap:round;stroke-linejoin:round"
         id="path2496"
         d="m 92.020474,202.72603 c 0.0072,0.10872 0.0036,0.21774 0.0024,0.32659 -1.96e-4,0.0434 5.29e-4,0.0867 5.29e-4,0.13004 -1.19e-4,0.0184 -5e-5,0.0368 -4e-5,0.0552 0.0011,0.0152 -0.0013,0.0307 -5e-6,0.046 5.29e-4,0.007 0.0024,0.0144 0.0032,0.0216 0.0031,0.0243 0.0027,0.0252 0.004,0.0496 5.29e-4,0.0464 -0.0035,0.0928 -0.0019,0.13925 5.29e-4,0.0149 0.0021,0.0298 0.0031,0.0447 0.0043,0.0931 0.01442,0.18571 0.03232,0.27713 0,0 0.05193,-0.0102 0.05193,-0.0102 v 0 c -0.01754,-0.0893 -0.02727,-0.17978 -0.03146,-0.27067 -0.0011,-0.0137 -0.0024,-0.0273 -0.003,-0.0409 -0.0019,-0.0474 0.0026,-0.0948 0.0019,-0.14213 -0.0013,-0.0249 -0.0013,-0.0305 -0.0046,-0.0553 -5.29e-4,-0.004 -0.0021,-0.009 -0.0024,-0.013 -0.0013,-0.0152 0.0011,-0.0308 5e-6,-0.046 -1e-5,-0.0183 -7.9e-5,-0.0367 3.7e-5,-0.055 1.56e-4,-0.0432 -5.29e-4,-0.0864 -5.29e-4,-0.12962 0.0013,-0.111 0.0049,-0.22219 -0.0026,-0.33304 0,0 -0.05259,0.006 -0.05259,0.006 z" /><path
         style="fill:#eeeeee;fill-opacity:1;stroke:#eeeeee;stroke-width:0.132292;stroke-linecap:round;stroke-linejoin:round"
         id="path2498"
         d="m 92.017457,203.8641 c 0,0.0386 0,0.0772 0,0.11588 0,0.0527 0,0.10533 0,0.158 0.0092,0.07 0.0072,0.13945 0.0057,0.20971 7.94e-4,0.0138 0.0016,0.0275 0.0026,0.0413 0.0024,0.0385 0.0036,0.0448 0.0044,0.0832 7.93e-4,0.0417 -5.3e-4,0.0835 -0.0011,0.12516 -5.29e-4,0.0381 -5.29e-4,0.0763 -2.64e-4,0.11442 5.8e-5,0.0127 5.29e-4,0.0253 1.8e-4,0.0379 -7.94e-4,0.0262 -0.0037,0.0523 -0.0055,0.0785 0.0013,0.0566 -0.01222,0.11156 -0.01886,0.16729 -0.0048,0.0168 -0.0042,0.0342 -0.0056,0.0514 -0.0011,0.0134 -0.0038,0.0268 -0.0074,0.0397 -0.0072,0.0339 5.3e-4,-0.006 -0.0044,0.0293 -7.94e-4,0.006 -0.003,0.0123 -0.0039,0.0186 -0.0019,0.0129 7.94e-4,0.007 -0.0026,0.0135 -0.0011,0.004 -0.0019,0.008 -0.0028,0.0122 -5.29e-4,0.004 -5.29e-4,0.008 -0.0013,0.0117 -1e-5,6e-5 -0.0087,-0.006 0.0029,-0.007 0.04006,-0.005 0.03429,-0.008 0.04431,0.014 0,0 -0.05286,-0.002 -0.05286,-0.002 v 0 c 0.0019,0.007 -0.0013,0.0186 0.0052,0.0224 0.03328,0.0192 0.04659,0.004 0.05299,-0.0208 0.0011,-0.005 -5.29e-4,-0.01 0.0021,-0.0139 0.0056,-0.0209 0.0076,-0.0425 0.01154,-0.0637 0.0043,-0.0171 0.0076,-0.034 0.009,-0.0516 0.0013,-0.0157 5.29e-4,-0.0315 0.0053,-0.0468 0.0042,-0.0373 -0.0013,0.007 0.006,-0.0384 0.0069,-0.0435 0.01326,-0.0871 0.01312,-0.13126 2.64e-4,-0.004 0.0056,-0.0791 0.0057,-0.0824 5.29e-4,-0.0126 -1.22e-4,-0.0253 -1.77e-4,-0.0379 -1.7e-4,-0.0378 -2.65e-4,-0.0755 2.64e-4,-0.1133 7.94e-4,-0.0427 0.0021,-0.0854 0.0011,-0.12806 -7.93e-4,-0.0373 -0.0021,-0.0477 -0.0045,-0.0846 -7.94e-4,-0.0123 -0.0016,-0.0246 -0.0024,-0.0368 0.0013,-0.0703 0.0038,-0.14086 -0.0057,-0.2108 0,-0.0527 0,-0.10534 0,-0.158 0,-0.0386 0,-0.0773 0,-0.11589 0,0 -0.05292,0 -0.05292,0 z" /><path
         style="fill:#eeeeee;fill-opacity:1;stroke:#eeeeee;stroke-width:0.132292;stroke-linecap:round;stroke-linejoin:round"
         id="path2500"
         d="m 91.920474,205.23899 c 0,0.0327 0,0.0654 0,0.0981 0,0.0778 0,0.15555 0,0.23332 0.0011,0.0305 -0.0011,0.0609 0,0.0914 5.29e-4,0.0136 0.0049,0.0712 0.0058,0.086 0.0019,0.0341 0.0013,0.0391 0.0013,0.0737 -0.0055,0.062 -0.01537,0.12462 -0.03505,0.18385 -0.0082,0.037 -0.0097,0.075 -0.01598,0.11228 -0.0077,0.0308 -0.0033,0.0103 -0.009,0.0473 -0.0032,0.0205 -0.0048,0.0244 -0.0058,0.0455 -0.003,0.0609 0.0029,-0.01 -0.0021,0.044 -5.29e-4,0.007 -0.0011,0.0132 -0.0019,0.0198 -0.0039,0.0293 -0.004,0.0149 -0.0066,0.0472 -0.0021,0.0267 -5.29e-4,0.0535 2.65e-4,0.0803 0.0013,0.0478 7.93e-4,0.0957 5.29e-4,0.14347 -6.9e-5,0.0129 -5.29e-4,0.0258 -1.78e-4,0.0386 5.3e-4,0.0136 0.0019,0.0271 0.0029,0.0406 0.0019,0.0137 0.0038,0.0275 0.006,0.0412 0.0024,0.0145 0.0054,0.0288 0.0073,0.0433 0.0028,0.0214 0.0059,0.0701 0.0076,0.091 0.0042,0.0507 0.0037,0.0428 0.0097,0.092 0.0064,0.0389 0.0045,0.0362 0.01593,0.0733 0.0028,0.009 0.0068,0.0178 0.0094,0.0269 0.0041,0.0141 0.0059,0.0293 0.0062,0.0439 -0.003,0.0295 -0.0028,0.059 -0.0024,0.0886 -0.0026,0.0131 -0.01053,0.0235 -0.01633,0.0353 -0.0029,0.004 -0.0046,0.006 -0.0058,0.0119 -5.29e-4,0.003 0.0029,-0.005 0.0038,-0.007 1.27e-4,-2.6e-4 -7.94e-4,5e-5 -0.0011,7e-5 0,0 0.02685,0.0456 0.02685,0.0456 v 0 c 0.0031,-0.002 0.0066,-0.003 0.0093,-0.006 0.0096,-0.009 0.0096,-0.0131 0.01543,-0.023 0.0099,-0.0172 0.01976,-0.0362 0.02069,-0.0573 -5.29e-4,-0.03 -2.65e-4,-0.0598 0.0021,-0.0897 -0.0011,-0.0202 -0.0035,-0.0398 -0.0092,-0.0594 -0.0024,-0.008 -0.0059,-0.0157 -0.0084,-0.0236 -0.01045,-0.0329 -0.0084,-0.0291 -0.01434,-0.0654 -0.0059,-0.0477 -0.0054,-0.0399 -0.0095,-0.0895 -0.0024,-0.0274 -0.0047,-0.0685 -0.0082,-0.0958 -0.0019,-0.0142 -0.0049,-0.0281 -0.0071,-0.0422 -0.0019,-0.0124 -0.0037,-0.0249 -0.0055,-0.0373 -7.94e-4,-0.0122 -0.0024,-0.0244 -0.0027,-0.0366 -5.29e-4,-0.0129 1.08e-4,-0.0257 1.74e-4,-0.0386 2.57e-4,-0.0485 7.94e-4,-0.097 -5.29e-4,-0.14554 -7.93e-4,-0.024 -0.0024,-0.0484 -5.29e-4,-0.0724 0.0019,-0.0257 0.0032,-0.022 0.0067,-0.0482 7.93e-4,-0.007 0.0013,-0.0135 0.0019,-0.0202 0.0057,-0.0682 -5.29e-4,0.0131 0.0021,-0.0439 7.94e-4,-0.0194 0.0024,-0.0226 0.0055,-0.0427 0.0053,-0.0351 4.2e-5,-0.01 0.0089,-0.0462 0.0056,-0.0347 0.0079,-0.0697 0.01402,-0.10433 0.02103,-0.0647 0.03251,-0.13267 0.03769,-0.20036 -1.8e-5,-0.0368 5.29e-4,-0.0413 -0.0016,-0.0774 -2.65e-4,-0.005 -0.0055,-0.0776 -0.0056,-0.0823 -0.0011,-0.0304 0.0011,-0.0609 0,-0.0914 0,-0.0778 0,-0.15555 0,-0.23332 0,-0.0327 0,-0.0654 0,-0.0981 0,0 -0.05292,0 -0.05292,0 z" /><path
         style="fill:#eeeeee;fill-opacity:1;stroke:#eeeeee;stroke-width:0.132292;stroke-linecap:round;stroke-linejoin:round"
         id="path2502"
         d="m 91.85772,206.83353 c 0,0.13359 0,0.26719 0,0.40078 0,0.13079 0,0.26159 0,0.39239 0,0.10145 0.0011,0.13799 -0.0028,0.23834 -0.0013,0.0355 -0.0038,0.0709 -0.0057,0.10638 -0.0044,0.064 -0.01505,0.12755 -0.03274,0.18924 -0.0028,0.01 -0.0065,0.0189 -0.0095,0.0285 -0.03056,0.0988 0.0136,-0.0389 -0.01574,0.052 -0.01016,0.0368 -0.0047,0.0186 -0.01624,0.0548 0,0 0.05044,0.016 0.05044,0.016 v 0 c 0.01185,-0.0375 0.0065,-0.0193 0.01619,-0.0545 0.03277,-0.10193 -0.01458,0.0464 0.01564,-0.0516 0.0033,-0.0107 0.0074,-0.0212 0.0105,-0.032 0.01852,-0.065 0.02957,-0.13203 0.03429,-0.19946 0.0019,-0.036 0.0044,-0.0719 0.0057,-0.10791 0.0038,-0.101 0.0029,-0.13776 0.0029,-0.23963 0,-0.1308 0,-0.2616 0,-0.39239 0,-0.13359 0,-0.26719 0,-0.40078 0,0 -0.05292,0 -0.05292,0 z" /><path
         style="fill:#eeeeee;fill-opacity:1;stroke:#eeeeee;stroke-width:0.132292;stroke-linecap:round;stroke-linejoin:round"
         id="path2504"
         d="m 91.760735,208.35391 c 0,0.15534 0,0.31068 0,0.46602 0,0.0828 0,0.1655 0,0.24826 0,0.0171 -5.29e-4,0.0341 0,0.0512 5.29e-4,0.0179 0.0019,0.0358 0.0029,0.0536 0.01683,0.12669 0.01045,0.25462 0.0082,0.38194 -1.19e-4,0.0157 -2.38e-4,0.0313 -2.64e-4,0.047 0,0 0.05292,5.3e-4 0.05292,5.3e-4 v 0 c 1.17e-4,-0.0155 2.36e-4,-0.0309 2.65e-4,-0.0464 0.0024,-0.1286 0.0087,-0.25782 -0.0082,-0.38579 -0.0011,-0.0169 -0.0024,-0.0338 -0.0028,-0.0507 -5.29e-4,-0.017 0,-0.0341 0,-0.0512 0,-0.0828 0,-0.1655 0,-0.24826 0,-0.15534 0,-0.31068 0,-0.46602 0,0 -0.05292,0 -0.05292,0 z" /><path
         style="fill:#eeeeee;fill-opacity:1;stroke:#eeeeee;stroke-width:0.132292;stroke-linecap:round;stroke-linejoin:round"
         id="path2506"
         d="m 91.675161,209.62611 c 0,0.10091 0,0.20182 0,0.30272 0,0.0719 0,0.14376 0,0.21563 0,0.0195 5.29e-4,0.039 0,0.0585 -5.3e-4,0.0163 -0.0019,0.0325 -0.0028,0.0488 -0.0011,0.0126 -0.0013,0.0252 -0.0028,0.0377 -7.94e-4,0.008 -0.0029,0.0168 -0.004,0.0252 -0.0013,0.009 -0.0021,0.0176 -0.003,0.0265 -0.0011,0.009 -0.0021,0.019 -0.0035,0.0285 -0.0019,0.0144 -0.009,0.0587 -0.01093,0.0712 -0.0059,0.0417 -0.01175,0.0834 -0.01855,0.12503 -0.0019,0.0109 -0.0033,0.0219 -0.0056,0.0328 -0.0074,0.0345 -0.01201,0.0478 -0.02177,0.0805 -0.0085,0.0187 -0.01249,0.0392 -0.01379,0.0596 -2.64e-4,0.005 2.33e-4,0.01 -2.06e-4,0.0149 -1.96e-4,0.002 -0.0013,0.004 -0.0016,0.006 -7.93e-4,0.005 -0.0016,0.01 -0.0024,0.0148 -0.0046,0.0238 -0.01087,0.0471 -0.01754,0.0704 0.0011,-0.006 -0.0045,0.0261 -7.94e-4,0.0204 0.0042,-0.006 0.0046,-0.0144 0.0069,-0.0216 0,0 0.0347,0.04 0.0347,0.04 v 0 c 0.0037,-0.008 0.0073,-0.0168 0.0109,-0.0252 -5.29e-4,0.002 -1.56e-4,0.002 -7.94e-4,8e-4 0.0071,-0.0254 0.01416,-0.0508 0.01897,-0.0768 0.0016,-0.01 0.0036,-0.0193 0.0046,-0.029 2.65e-4,-0.003 -2.64e-4,-0.006 -1.4e-4,-0.009 0.0011,-0.0178 0.0038,-0.0342 0.01193,-0.0506 0.01082,-0.0364 0.01498,-0.0479 0.02323,-0.0867 0.0024,-0.011 0.0038,-0.0223 0.0057,-0.0334 0.0068,-0.0416 0.01262,-0.0834 0.01855,-0.12511 0.0024,-0.0147 0.009,-0.0569 0.01117,-0.0729 0.0013,-0.01 0.0024,-0.0194 0.0036,-0.0291 7.94e-4,-0.008 0.0016,-0.0161 0.0027,-0.0242 0.0013,-0.01 0.0034,-0.0196 0.0045,-0.0294 0.0013,-0.0129 0.0019,-0.0258 0.0029,-0.0387 0.0011,-0.0173 0.0024,-0.0345 0.0029,-0.0518 5.3e-4,-0.0195 0,-0.039 0,-0.0585 0,-0.0719 0,-0.14375 0,-0.21563 0,-0.1009 0,-0.20181 0,-0.30272 0,0 -0.05292,0 -0.05292,0 z" /><circle
         id="path2508"
         style="fill:#eeeeee;stroke:#eeeeee;stroke-width:0.264583"
         cx="91.576111"
         cy="210.96393"
         r="5.0264316e-06" /><path
         style="fill:#eeeeee;fill-opacity:1;stroke:#eeeeee;stroke-width:0.132292;stroke-linecap:round;stroke-linejoin:round"
         id="path2512"
         d="m 91.189481,208.20209 c 0,0.29142 0,0.58283 0,0.87424 0,0.2225 0,0.44499 0,0.66748 0,0.0415 -0.0021,0.0831 0,0.12457 0.0019,0.0409 0.0079,0.0815 0.01193,0.1222 0.0078,0.20259 0.07936,0.39254 0.132012,0.58593 0.05112,0.0808 0.05432,0.18916 0.09783,0.27137 0.0145,0.0136 0.02133,0.0275 0.02529,0.0461 0,0 0.05118,-0.0134 0.05118,-0.0134 v 0 c -0.006,-0.0209 -0.01265,-0.0428 -0.0298,-0.0576 -0.0035,-0.006 -0.01013,-0.0113 -0.01225,-0.0184 -0.0033,-0.0108 -0.0034,-0.0223 -0.0063,-0.0332 -0.01894,-0.0714 -0.04341,-0.14202 -0.07492,-0.20884 -0.05191,-0.19054 -0.122682,-0.37763 -0.130408,-0.57722 -0.0039,-0.039 -0.0098,-0.0779 -0.01167,-0.11701 -0.0021,-0.0415 0,-0.0831 0,-0.12457 0,-0.22249 0,-0.44498 0,-0.66748 0,-0.29141 0,-0.58282 0,-0.87424 0,0 -0.05292,0 -0.05292,0 z" /><path
         style="fill:#eeeeee;fill-opacity:1;stroke:#eeeeee;stroke-width:0.132292;stroke-linecap:round;stroke-linejoin:round"
         id="path2514"
         d="m 91.384431,209.38926 c 0,0.10296 0,0.20592 0,0.30889 0,0.0938 0,0.18751 0,0.28127 0,0.0409 0,0.0818 0,0.12274 0,0.007 -7.94e-4,0.0139 0,0.0207 7.94e-4,0.008 0.0031,0.0157 0.0047,0.0236 0.01008,0.0427 0.02167,0.085 0.03559,0.12664 0.01876,0.0511 0.03359,0.10351 0.05478,0.15364 0.01169,0.0292 0.02164,0.0591 0.02915,0.0896 0.0024,0.0101 0.0042,0.0204 0.0069,0.0304 0.0071,0.0264 0.01564,0.0524 0.0231,0.0787 0.0045,0.0348 0.01042,0.0696 0.01061,0.10483 7.7e-5,0.0134 2.65e-4,0.0115 -0.0019,0.0192 0,0 0.05186,0.0105 0.05186,0.0105 v 0 c 0.0087,-0.0494 -0.0037,-0.0999 -0.0097,-0.14894 -0.0072,-0.0254 -0.01556,-0.0505 -0.02241,-0.076 -0.0029,-0.0107 -0.0047,-0.0216 -0.0074,-0.0324 -0.0082,-0.033 -0.01892,-0.0652 -0.03158,-0.0967 -0.02093,-0.0487 -0.03466,-0.10009 -0.05328,-0.14971 -0.01341,-0.04 -0.02458,-0.0807 -0.03418,-0.12165 -0.0011,-0.004 -0.003,-0.008 -0.0034,-0.0117 -0.0016,-0.0143 0,-0.0287 0,-0.0431 0,-0.0335 0,-0.0669 0,-0.10041 0,-0.0938 0,-0.18751 0,-0.28127 0,-0.10297 0,-0.20593 0,-0.30889 0,0 -0.05292,0 -0.05292,0 z" /><path
         style="fill:#eeeeee;fill-opacity:1;stroke:#eeeeee;stroke-width:0.132292;stroke-linecap:round;stroke-linejoin:round"
         id="path2516"
         d="m 91.599125,210.65919 c 0,-0.0303 0,-0.0607 0,-0.091 0,-0.0256 5.29e-4,-0.0512 0,-0.0768 -0.0024,-0.10799 -0.0053,-0.10777 -0.0122,-0.22023 -0.0024,-0.0378 -0.004,-0.0755 -0.006,-0.11332 -0.0033,-0.0742 -0.01003,-0.14825 -0.01725,-0.22216 -0.0013,-0.0131 -0.0034,-0.0262 -0.0047,-0.0393 -0.0026,-0.0279 -0.0042,-0.0559 -0.0067,-0.0838 -0.006,-0.0626 -0.0035,-0.12548 -0.0013,-0.18819 0,0 -0.05288,-0.002 -0.05288,-0.002 v 0 c -0.0021,0.0649 -0.0046,0.13001 0.0016,0.19482 0.0026,0.0284 0.0043,0.0568 0.0069,0.0852 0.0011,0.0125 0.0032,0.0248 0.0044,0.0373 0.0072,0.0734 0.01386,0.14698 0.01714,0.2207 0.0021,0.0381 0.0038,0.0761 0.0061,0.11417 0.0067,0.10961 0.0097,0.11146 0.01207,0.21656 5.29e-4,0.0256 0,0.0512 0,0.0769 0,0.0303 0,0.0607 0,0.091 0,0 0.05292,0 0.05292,0 z" /><path
         style="fill:#eeeeee;fill-opacity:1;stroke:#eeeeee;stroke-width:0.132292;stroke-linecap:round;stroke-linejoin:round"
         id="path2518"
         d="m 91.453527,209.40948 c 0,-0.10852 0,-0.21705 0,-0.32557 0,-0.0918 0,-0.18368 0,-0.27552 0.0016,-0.06 -7.94e-4,-0.11973 -0.01243,-0.17875 -0.0084,-0.043 -0.02127,-0.0855 -0.03304,-0.12764 -0.01736,-0.0716 -0.02706,-0.14507 -0.03097,-0.21859 -0.0013,-0.0243 -7.94e-4,-0.0487 -0.0013,-0.073 -0.0058,-0.23695 7.94e-4,0.0744 -0.0038,-0.14923 -0.0019,-0.0653 0.0013,-0.13061 0.0011,-0.19591 -0.0016,-0.009 -0.0033,-0.0186 -0.0046,-0.028 -0.0039,-0.0268 -0.0051,-0.0392 -0.0058,-0.0669 -2.65e-4,-0.0119 -1.49e-4,-0.0237 6.3e-5,-0.0355 1.51e-4,-0.008 0.0016,-0.017 0.0011,-0.0255 -2.64e-4,-0.007 -0.0024,-0.0147 -0.0034,-0.022 -0.0051,-0.0166 -0.0036,-0.009 -0.0056,-0.0218 0,0 -0.05204,0.01 -0.05204,0.01 v 0 c 0.0034,0.017 0.0013,0.01 0.0056,0.0219 0.0051,0.02 0.0021,0.004 0.0016,0.0376 -7.94e-4,0.0438 7.94e-4,0.0879 0.01035,0.13077 5.29e-4,0.0656 -0.0029,0.1311 -0.0011,0.19666 0.004,0.19261 -0.0013,-0.0524 0.0038,0.14919 5.29e-4,0.0255 2.32e-4,0.051 0.0016,0.0765 0.0042,0.0768 0.01447,0.15356 0.03273,0.2283 0.01056,0.0377 0.024,0.0825 0.03167,0.12128 0.01119,0.0564 0.01352,0.1135 0.01183,0.17084 0,0.0918 0,0.18368 0,0.27552 0,0.10853 0,0.21705 0,0.32558 0,0 0.05292,0 0.05292,0 z" /><path
         style="fill:#eeeeee;fill-opacity:1;stroke:#eeeeee;stroke-width:0.132292;stroke-linecap:round;stroke-linejoin:round"
         id="path2520"
         d="m 91.363659,207.64379 c -7.94e-4,-0.0143 0.0011,-0.0295 0,-0.0437 -5.3e-4,-0.008 -0.0019,-0.0152 -0.0029,-0.0228 -0.0026,-0.0181 -0.0062,-0.037 -0.0094,-0.055 -0.0066,-0.0349 -0.01146,-0.0702 -0.01326,-0.10572 -2.64e-4,-0.006 -7.93e-4,-0.056 -0.0011,-0.0631 -2.65e-4,-0.009 -0.0011,-0.0184 -0.0016,-0.0276 -7.94e-4,-0.008 -0.0016,-0.0164 -0.0027,-0.0246 -0.0011,-0.008 -0.0024,-0.0159 -0.0032,-0.0238 -0.0011,-0.01 -0.0024,-0.0332 -0.0033,-0.043 -0.0019,-0.0231 -0.0019,-0.0211 -0.0047,-0.0434 -0.0011,-0.0235 -0.0055,-0.0467 -0.008,-0.07 -0.0013,-0.0128 -0.0021,-0.0257 -0.003,-0.0386 -0.0019,-0.0169 -5.29e-4,-0.0336 0.0011,-0.0504 0.0011,-0.0123 0.0011,-0.0277 0.0055,-0.0394 4e-5,1.5e-4 7.9e-5,2.7e-4 1.22e-4,5.3e-4 0,0 -0.04774,-0.0228 -0.04774,-0.0228 v 0 c -0.0011,0.002 -0.0021,0.005 -0.003,0.007 -0.0011,0.004 -0.0027,0.008 -0.0036,0.0129 -0.0021,0.0103 -0.0033,0.0276 -0.0041,0.0378 -0.0016,0.0197 -0.0029,0.0392 -0.0011,0.0589 1.69e-4,0.002 0.0033,0.0406 0.0034,0.0415 0.0024,0.0231 0.0068,0.0461 0.0079,0.0694 0.0026,0.0207 0.0026,0.0189 0.0044,0.0406 0.0013,0.0149 0.0021,0.0315 0.0037,0.0463 7.94e-4,0.008 0.0021,0.015 0.0031,0.0226 7.94e-4,0.007 0.0016,0.0145 0.0024,0.0218 5.29e-4,0.008 0.0011,0.017 0.0013,0.0255 5.29e-4,0.017 5.29e-4,0.0505 0.0013,0.0665 0.0019,0.0372 0.007,0.0742 0.01392,0.11083 0.0055,0.0304 0.0046,0.0247 0.0091,0.0529 7.94e-4,0.005 0.0021,0.0103 0.0024,0.0156 5.29e-4,0.005 0,0.0106 0,0.0159 0,0.009 0,0.0185 0,0.0278 0,0 0.05292,0 0.05292,0 z" /><path
         style="fill:#eeeeee;fill-opacity:1;stroke:#eeeeee;stroke-width:0.132292;stroke-linecap:round;stroke-linejoin:round"
         id="path2522"
         d="m 91.315978,206.90075 c 0,-0.0335 0,-0.067 0,-0.1005 -5.29e-4,-0.007 -7.94e-4,-0.0137 -0.0013,-0.0204 -0.0013,-0.0131 -0.0042,-0.0292 -0.0062,-0.0422 -0.0034,-0.0217 -0.0063,-0.0434 -0.0088,-0.0652 -0.0029,-0.0275 -0.0097,-0.0544 -0.01527,-0.0814 -0.0016,-0.008 -0.0029,-0.0159 -0.0044,-0.0238 -0.0013,-0.007 -0.0032,-0.0142 -0.0044,-0.0214 -0.0013,-0.007 -0.0021,-0.0143 -0.0031,-0.0214 -0.0024,-0.0252 -0.0097,-0.0495 -0.01519,-0.0742 -0.0041,-0.0202 -0.0016,-0.006 -0.0036,-0.0232 -0.0011,-0.008 -0.0016,-0.0102 -0.0019,-0.0178 -1.06e-4,-0.004 2.64e-4,-0.0153 5.29e-4,-0.0192 7.94e-4,-0.0159 5.29e-4,-0.0317 2.64e-4,-0.0475 0,-0.005 2.7e-5,-0.0105 4.5e-5,-0.0158 0,0 -0.05291,-1.9e-4 -0.05291,-1.9e-4 v 0 c -2.1e-5,0.006 -5.3e-5,0.011 -4.5e-5,0.0165 1.59e-4,0.0151 5.3e-4,0.0303 -2.62e-4,0.0454 -2.38e-4,0.008 -5.29e-4,0.0164 -2.64e-4,0.0246 2.64e-4,0.009 0.0011,0.0109 0.0021,0.0197 0.0026,0.0216 5.29e-4,0.009 0.0046,0.0292 0.0053,0.0233 0.01217,0.0463 0.01445,0.0702 0.0013,0.008 0.0021,0.0165 0.0036,0.0246 0.0013,0.007 0.0029,0.0135 0.0042,0.0203 0.0016,0.009 0.0031,0.0171 0.0048,0.0256 0.0052,0.0252 0.01162,0.0503 0.01437,0.076 0.0026,0.0226 0.0056,0.0451 0.0091,0.0676 0.0016,0.01 0.0046,0.0274 0.0057,0.0376 5.29e-4,0.006 7.94e-4,0.0111 0.0013,0.0167 0,0.0335 0,0.067 0,0.1005 0,0 0.05292,0 0.05292,0 z" /><path
         style="fill:#eeeeee;fill-opacity:1;stroke:#eeeeee;stroke-width:0.132292;stroke-linecap:round;stroke-linejoin:round"
         id="path2524"
         d="m 91.273594,206.25969 c -7.93e-4,-0.0201 0.0016,-0.0403 -0.0016,-0.0603 -0.0039,-0.0189 -0.0024,-0.01 -0.0047,-0.0273 -0.0045,-0.032 -0.003,-0.0644 -0.0065,-0.0965 -7.94e-4,-0.006 -0.0016,-0.0124 -0.0026,-0.0185 -0.0019,-0.0229 -0.01177,-0.0437 -0.01886,-0.0653 -0.0013,-0.004 -0.0081,-0.0257 -0.0092,-0.029 -0.0053,-0.0137 -0.009,-0.0279 -0.01355,-0.0418 -0.0016,-0.005 -0.0034,-0.01 -0.0049,-0.0144 -0.0028,-0.009 -0.0052,-0.0182 -0.008,-0.0273 -0.0019,-0.0161 -0.0045,-0.0323 -0.0052,-0.0486 -7.94e-4,-0.0174 0.0013,0.004 -0.0013,-0.0179 -0.0021,-0.0122 -7.94e-4,-0.0245 -5.29e-4,-0.0367 -5.6e-5,-0.008 -1.7e-4,-0.0166 -1.27e-4,-0.025 3.7e-5,-0.005 1.3e-5,-0.0106 1e-5,-0.0159 0,-0.009 3e-6,-0.0177 3e-6,-0.0266 0,-0.002 -1.72e-4,-0.004 0,-0.006 7.7e-5,-7.9e-4 -1.09e-4,0.004 2.64e-4,0.003 0.0011,-0.002 0.0011,-0.004 0.0016,-0.007 5.29e-4,-0.002 0.0013,-0.004 0.0019,-0.006 7.94e-4,-0.004 0.0013,-0.008 0.0019,-0.0114 5.29e-4,-0.003 0.0021,-0.0108 0.0026,-0.0144 2.46e-4,-0.002 0.0024,-0.005 5.29e-4,-0.006 -0.01662,-0.005 -0.03417,-0.007 -0.05125,-0.0109 7.94e-4,0.009 0.0011,0.0174 0.0021,0.026 2.27e-4,0.002 0.0016,0.003 0.0021,0.004 0.0013,0.003 0.0027,0.006 0.0038,0.009 0.0037,0.009 0.0074,0.0186 0.01087,0.028 0.0099,0.0272 0.01611,0.047 0.02511,0.0745 0.0099,0.0326 0.01685,0.0659 0.02223,0.0995 0.0016,0.009 0.0026,0.0183 0.004,0.0275 0.0029,0.0184 0.0044,0.0264 0.0076,0.0438 1.8e-4,0.008 0.0021,0.0156 0.0021,0.0236 3e-6,0.003 -5.29e-4,0.008 -7.93e-4,0.0112 -1.8e-4,0.0162 1.27e-4,0.0324 9.8e-5,0.0487 0.0035,-0.003 -0.0019,0.006 -3.5e-5,0.005 0.0149,-0.006 0.02945,-0.0129 0.04407,-0.0196 7.94e-4,-2.6e-4 0.0019,-5.3e-4 0.0019,-0.001 -0.0011,-0.006 -0.0038,-0.0114 -0.0054,-0.0172 -0.0024,-0.008 -0.0041,-0.0169 -0.0061,-0.0253 -0.0089,-0.0373 -0.01648,-0.0749 -0.0241,-0.11253 -0.0028,-0.0137 -0.0057,-0.0273 -0.0083,-0.0409 -0.0033,-0.0175 -0.0059,-0.035 -0.0092,-0.0525 -0.0052,-0.0216 -0.01032,-0.0432 -0.01421,-0.0651 -0.0051,-0.0427 -0.0029,-0.0859 -0.0024,-0.1288 0.0013,-0.022 -0.0016,-0.0442 0.0013,-0.0661 0.0024,-0.0184 5.29e-4,-0.003 0.0039,-0.0125 0.0011,-0.003 0.0019,-0.007 0.003,-0.01 0.0031,-0.0149 0.0016,-0.007 0.0044,-0.0242 0,0 -0.05227,-0.008 -0.05227,-0.008 v 0 c -0.0021,0.0138 -0.0011,0.008 -0.003,0.0181 -0.0021,0.009 -5.29e-4,0.003 -0.0057,0.017 -0.0075,0.0278 -0.003,0.057 -0.0045,0.0853 -5.29e-4,0.0462 -0.0029,0.0927 0.0032,0.13863 0.0039,0.0221 0.0089,0.0438 0.01429,0.0656 0.0033,0.0177 0.006,0.0356 0.0093,0.0533 0.0026,0.0137 0.0055,0.0273 0.0083,0.041 0.0078,0.0383 0.0155,0.0766 0.02458,0.11464 0.0031,0.0126 0.0082,0.0359 0.0136,0.049 0.0027,0.007 0.0026,0.0188 0.0097,0.0191 0.04826,0.002 0.04665,-0.003 0.04677,-0.0227 2.6e-5,-0.0155 -2.23e-4,-0.031 -1.43e-4,-0.0466 2.17e-4,-0.005 7.93e-4,-0.011 7.93e-4,-0.0165 -1.85e-4,-0.01 -0.0024,-0.02 -0.0029,-0.03 -0.01087,-0.0594 -0.01699,-0.11988 -0.03563,-0.17765 -0.01188,-0.0363 -0.02357,-0.0727 -0.03813,-0.10807 -0.0019,-0.004 -0.0037,-0.008 -0.0058,-0.0124 -7.94e-4,-0.002 -0.0027,-0.007 -0.003,-0.005 -0.0011,0.008 2.65e-4,0.0153 5.29e-4,0.0229 -0.01659,-0.005 -0.03317,-0.009 -0.04976,-0.0141 -0.0019,-5.2e-4 -5.3e-4,0.004 -7.94e-4,0.005 -0.0013,0.008 -0.0024,0.0155 -0.0047,0.0229 -0.0013,0.005 -0.0028,0.0114 -0.0034,0.0163 -2.65e-4,0.002 0,0.004 0,0.006 0,0.009 -3e-6,0.0178 -3e-6,0.0266 3e-6,0.005 2.7e-5,0.0104 -1e-5,0.0156 -3.7e-5,0.008 2.6e-5,0.016 1.4e-4,0.024 -2.65e-4,0.0151 -0.0016,0.0302 0.0011,0.0451 0.0016,0.008 1.56e-4,-2.6e-4 7.94e-4,0.0146 5.29e-4,0.0117 0.0013,0.0158 0.0026,0.0275 0.0026,0.0231 5.29e-4,0.009 0.0048,0.0328 0.0057,0.0182 0.0028,0.009 0.0085,0.0286 0.0013,0.005 0.0031,0.009 0.0046,0.0136 0.0046,0.0138 0.0082,0.028 0.01347,0.0416 0.0047,0.015 0.0092,0.0301 0.01463,0.0449 0.0036,0.01 0.0063,0.0146 0.0087,0.0248 0.0013,0.005 0.0019,0.0107 0.0028,0.0161 7.94e-4,0.005 0.0016,0.0102 0.0021,0.0154 0.0037,0.033 0.0019,0.0666 0.0068,0.0995 7.94e-4,0.005 0.0013,0.011 0.0024,0.0164 0.0016,0.009 0.0029,0.01 0.0034,0.0183 7.94e-4,0.0152 -5.29e-4,0.0305 0,0.0457 0,0 0.05292,0 0.05292,0 z" /><path
         style="fill:#eeeeee;fill-opacity:1;stroke:#eeeeee;stroke-width:0.132292;stroke-linecap:round;stroke-linejoin:round"
         id="path2526"
         d="m 91.074982,203.87825 c 5.29e-4,0.027 -7.93e-4,0.0541 0,0.0811 5.29e-4,0.0233 0.0019,0.0335 0.0041,0.0572 0.0021,0.0119 0.0041,0.0237 0.0063,0.0355 0.0258,0.1387 -0.01228,-0.0694 0.01569,0.0785 0.0078,0.0414 0.01416,0.083 0.02027,0.12466 0.003,0.0239 0.0075,0.0587 0.0099,0.0825 0.0013,0.0134 0.0021,0.0268 0.0034,0.0402 0.0027,0.029 0.0059,0.0579 0.01005,0.0868 2.65e-4,-0.0119 0.0042,0.0432 0.0076,0.0313 0.0024,-0.008 0.0021,-0.0173 -4.7e-5,-0.0255 -7.94e-4,-0.003 -0.0031,0.006 -0.004,0.01 -0.0016,0.006 -0.0021,0.013 -0.0032,0.0195 -0.0049,0.0449 -0.0074,0.0899 -0.008,0.135 -7.94e-4,0.0463 -7.94e-4,0.0865 0.0033,0.13271 0.0019,0.0199 0.0051,0.0397 0.0076,0.0595 0.0033,0.0166 0.0065,0.0332 0.01,0.0498 0.0027,0.0128 0.0061,0.0255 0.0088,0.0384 0.0054,0.0264 0.0088,0.0533 0.01214,0.08 0.003,0.02 0.01148,0.0384 0.01712,0.0577 0.0024,0.008 0.0031,0.0123 0.0049,0.02 7.93e-4,0.003 0.0016,0.006 0.0021,0.009 7.94e-4,0.003 0.0019,0.006 0.0027,0.009 2.64e-4,0.001 1.85e-4,0.002 5.29e-4,0.004 0.0013,0.007 0.0029,0.0123 0.0052,0.0188 -1.74e-4,1e-4 -5.29e-4,1e-4 -5.29e-4,2.7e-4 -0.0011,0.008 2.06e-4,0.0184 7.94e-4,0.0259 0.0016,0.0222 5.29e-4,0.009 0.003,0.0343 0.0024,0.022 0.0016,0.0442 0.0011,0.0662 -5.29e-4,0.0123 5.29e-4,0.007 -0.0013,0.0149 -7.93e-4,0.006 -0.0032,0.0119 -0.0042,0.0181 -5.29e-4,0.002 -5.29e-4,0.005 -7.94e-4,0.007 -6.3e-5,5.3e-4 -3.1e-5,-0.002 -1.5e-4,-10e-4 -5.3e-4,0.002 -7.94e-4,0.004 -0.0013,0.006 -2.65e-4,8e-4 -7.94e-4,10e-4 -7.94e-4,0.002 -7.94e-4,0.003 -0.0013,0.005 -0.0019,0.008 -5.29e-4,0.002 -0.0026,0.008 -0.0033,0.009 -0.0092,0.028 0.0034,-0.009 -0.0073,0.022 -0.0058,0.0164 -0.01117,0.0329 -0.0173,0.0491 -0.0021,0.006 -0.008,0.0194 -0.0096,0.0257 -0.0011,0.004 -0.0016,0.009 -0.0024,0.0132 2.64e-4,0.004 -7.94e-4,0.009 7.93e-4,0.0129 0.01016,0.0263 0.01953,0.0245 0.05065,0.01 0.0041,-0.002 0.0082,-0.0106 0.0044,-0.0129 -0.04982,-0.0299 -0.04638,-0.0285 -0.05328,-0.004 -0.0013,0.0258 5.29e-4,0.002 0.03082,-0.0198 0.0029,-0.002 0.01064,0.006 0.01021,0.003 -5.29e-4,-0.004 -0.0029,-0.009 -0.0043,-0.0129 -0.0051,-0.0224 -0.0075,-0.0301 -0.0097,-0.054 -7.94e-4,-0.01 -0.0011,-0.0194 -0.0013,-0.0291 -2.65e-4,-0.009 1.06e-4,-0.0179 -5.29e-4,-0.0268 -0.0024,-0.0357 -0.0046,-0.0455 -0.01016,-0.0809 -0.0032,-0.0245 -0.01278,-0.048 -0.01521,-0.0727 -0.0013,-0.0136 0.0011,-0.0279 0.0021,-0.0414 0.0019,-0.0272 2.09e-4,-0.0545 1.59e-4,-0.0817 2.1e-5,-0.005 2.48e-4,-0.0107 6.6e-5,-0.0161 -2.3e-4,-0.007 -7.94e-4,-0.0135 -0.0013,-0.0202 -7.94e-4,-0.0111 -0.0016,-0.0254 -0.0034,-0.0364 -0.0056,-0.0268 -0.0033,-0.0139 -0.0071,-0.0387 -7.93e-4,-0.006 -0.0016,-0.0115 -0.0021,-0.0173 -7.94e-4,-0.006 -0.0016,-0.0116 -0.0021,-0.0174 -5.29e-4,-0.005 -5.29e-4,-0.01 -7.94e-4,-0.0149 -7.93e-4,-0.0136 -0.0019,-0.0272 -0.0037,-0.0408 -0.0029,-0.0224 -0.0031,-0.045 -0.005,-0.0675 -0.0013,-0.007 -7.93e-4,-0.014 -0.0013,-0.021 -9e-5,-0.001 0.0011,0.003 5e-6,0.003 -0.01738,0.002 -0.03538,-5.3e-4 -0.05241,0.004 -0.0029,7.9e-4 -8.2e-5,0.006 2.01e-4,0.009 7.94e-4,0.008 0.0019,0.016 0.003,0.0239 0.0024,0.0125 0.0045,0.0249 0.0068,0.0374 0.0063,0.0343 0.01241,0.0687 0.01908,0.10303 0.0052,0.0267 0.01442,0.0721 0.02178,0.099 0.0037,0.0137 0.0085,0.027 0.01278,0.0406 0.0082,0.0305 0.02846,0.056 0.0362,0.0865 0.0013,0.005 0.0019,0.0133 0.0021,0.0182 -2.65e-4,0.0239 -0.01069,0.0288 0.05128,0.0102 0.0046,-0.001 -0.0021,-0.009 -0.0038,-0.0139 -0.0026,-0.007 -0.0057,-0.0138 -0.0086,-0.0208 -0.01228,-0.031 -0.01786,-0.0426 -0.02675,-0.0769 -0.01521,-0.0586 -0.02238,-0.11931 -0.0271,-0.17956 -0.0019,-0.0286 0.004,-0.0217 -0.05272,-0.007 -0.0021,5.3e-4 2.64e-4,0.005 2.64e-4,0.007 2.65e-4,0.0128 1.64e-4,0.0323 1.46e-4,0.0436 -9.5e-5,0.0395 0.0039,0.0788 0.0098,0.11781 0.0013,0.008 0.0045,0.0282 0.0075,0.0377 0.0011,0.003 0.0028,0.007 0.0042,0.0101 0.0039,0.004 0.0078,0.008 0.0117,0.0121 5.29e-4,5.3e-4 0.0019,0.001 0.0013,0.001 -0.0011,1.8e-4 -0.0031,-0.002 -0.003,-0.001 2.64e-4,0.003 0.0026,0.006 0.0038,0.009 0.0039,0.0105 0.0031,0.007 0.0043,0.0153 2.65e-4,0.002 5.3e-4,0.003 0.0011,0.005 7.94e-4,0.003 0.0019,0.006 0.0028,0.008 7.94e-4,0.002 7.94e-4,0.005 0.0013,0.007 0.0033,0.0147 0.0019,0.007 0.0036,0.0207 1.06e-4,0.003 5.29e-4,0.007 -1.4e-4,0.0107 -9.8e-5,5.3e-4 -1.14e-4,-0.001 -3e-6,-0.002 2.65e-4,-0.001 0.0016,-0.006 0.0013,-0.004 -0.0029,0.0135 -0.0026,0.004 -0.0019,0.0178 -0.003,-0.013 0.0019,-0.0131 0.0074,-0.0221 2.65e-4,-5.3e-4 -0.0019,0.001 -0.0016,7.9e-4 5.29e-4,-5.3e-4 0.0013,-0.001 0.0021,-0.001 0.0016,-5.3e-4 0.0033,-7.9e-4 0.005,-0.001 -0.01281,0.004 -0.0231,0.004 -0.03046,0.0223 -0.0016,0.004 -0.0013,0.009 -0.0021,0.0132 -7.94e-4,0.005 0.0011,0.01 7.94e-4,0.0151 -1.4e-5,2.6e-4 -5.3e-4,-5.3e-4 -7.94e-4,-2.6e-4 -2.65e-4,2.4e-4 -5.29e-4,7.9e-4 -5.29e-4,0.001 -5.29e-4,0.001 -7.94e-4,0.003 -0.0013,0.004 0.01707,0.004 0.03362,0.012 0.05121,0.0133 0.0032,2.4e-4 0.0013,-0.006 0.0016,-0.01 2.64e-4,-0.005 2.46e-4,-0.01 2.64e-4,-0.0144 6.9e-5,-0.01 1.91e-4,-0.0197 2.9e-5,-0.0296 -0.0011,-0.0696 -0.0013,-0.0521 -0.0082,-0.13297 -0.01474,-0.14971 -0.04609,-0.29737 -0.05747,-0.44745 -0.0011,-0.0154 -0.0016,-0.0308 -0.0021,-0.0462 -5.29e-4,-0.012 -0.0011,-0.024 -0.0019,-0.0359 -5.29e-4,-0.01 -7.94e-4,-0.02 -0.0019,-0.0299 -0.003,-0.0293 -0.0038,-0.0221 -0.0082,-0.0488 -7.94e-4,-0.005 -0.0028,-0.0235 -0.0034,-0.0291 -9.2e-5,-0.002 -10e-6,-0.005 -2.64e-4,-0.007 -1.83e-4,-0.002 -0.0016,-0.0103 -0.0026,-0.0133 -0.0088,-0.0238 -0.0054,-0.006 -0.0024,-0.008 8.7e-5,-0.001 1.8e-4,-0.002 2.59e-4,-0.003 2.33e-4,-0.003 5.29e-4,-0.006 5.29e-4,-0.009 8.7e-5,-0.002 0.0011,-0.007 1.67e-4,-0.005 -0.0011,0.002 -0.0013,0.004 -5.29e-4,0.006 5.29e-4,10e-4 0.0011,-0.002 0.0019,-0.003 0.0058,-0.009 0.01127,-0.0183 0.01543,-0.0282 0.0011,-0.002 0.0035,-0.005 0.0024,-0.007 -0.0057,-0.0121 -0.01431,-0.0226 -0.02146,-0.034 -0.0089,0.004 -0.02056,0.005 -0.02682,0.0121 -0.0092,0.0111 -0.0016,0.0323 0.0011,0.0442 0.0066,0.0301 0.0061,0.0307 0.01154,0.0657 0.0067,0.0407 0.01035,0.0818 0.01595,0.12263 0.0016,0.0112 0.003,0.0223 0.0054,0.0334 0.0011,0.005 -9e-5,0.0132 0.0046,0.0131 0.05406,-8e-4 0.05097,10e-4 0.05166,-0.0234 5.29e-4,-0.0178 -0.0028,-0.0352 -0.0059,-0.0526 -0.0055,-0.0269 -0.01175,-0.0538 -0.01471,-0.0812 -5.3e-4,-0.005 -5.3e-4,-0.0103 -7.94e-4,-0.0154 -5.29e-4,-0.01 -7.94e-4,-0.006 -5.29e-4,-0.01 -0.126852,0.0143 -0.01172,0.002 5.29e-4,-0.003 2.64e-4,-1.4e-4 1.16e-4,-0.0263 1.08e-4,-0.0282 0,0 -0.05292,2.6e-4 -0.05292,2.6e-4 v 0 c 2.1e-5,0.004 6.6e-5,0.008 6.3e-5,0.0119 -3e-6,0.004 -0.0042,0.0116 -8.2e-5,0.0129 0.02331,0.007 0.116486,1e-4 -7.94e-4,0.006 5.29e-4,0.0392 0.0085,0.0778 0.0168,0.116 0.0024,0.0131 0.0058,0.0306 0.0051,0.0417 -5.29e-4,0.0238 -0.0026,0.01 0.05043,0.005 7.94e-4,-7e-5 -0.0013,-0.001 -0.0016,-0.002 -0.0021,-0.0104 -0.0037,-0.0209 -0.0051,-0.0314 -0.0057,-0.0414 -0.0094,-0.0831 -0.01622,-0.12437 -0.006,-0.038 -0.0052,-0.0373 -0.01244,-0.0701 -7.94e-4,-0.004 -0.0021,-0.008 -0.0031,-0.0124 -5.3e-4,-0.002 -2.33e-4,-0.01 -0.0013,-0.007 -0.01693,0.0314 0.01508,0.0114 -0.02973,0.0285 -0.0068,-0.0113 -0.01405,-0.0223 -0.02048,-0.0338 -2.49e-4,-5.2e-4 0.0011,-0.002 7.93e-4,-0.001 -0.0046,0.01 -0.0097,0.0193 -0.01558,0.0285 -0.0011,0.002 -0.0026,0.005 -0.0034,0.007 -0.004,0.0117 -0.004,0.0228 -0.0041,0.035 5.29e-4,0.004 5.29e-4,0.007 0.0013,0.0105 7.93e-4,0.003 0.0019,0.006 0.0031,0.009 2.46e-4,5.3e-4 -5.29e-4,-0.001 -2.65e-4,-0.002 5e-5,-7.9e-4 5.29e-4,0.002 7.94e-4,0.002 1.77e-4,0.004 2.64e-4,0.007 5.29e-4,0.0107 0.0011,0.01 0.0026,0.0247 0.0041,0.0336 0.0035,0.0214 0.0049,0.0191 0.0073,0.042 0.0011,0.01 0.0013,0.0194 0.0019,0.0291 7.94e-4,0.012 0.0011,0.024 0.0019,0.036 7.94e-4,0.0162 0.0011,0.0324 0.0024,0.0486 0.01143,0.14994 0.04248,0.29749 0.05743,0.44703 0.0021,0.0252 0.005,0.0504 0.0066,0.0756 0.0011,0.0175 0.0011,0.0351 0.0013,0.0527 1.59e-4,0.01 5e-6,0.0193 -2.1e-5,0.0289 -1.1e-5,0.004 -5.29e-4,0.007 -9e-5,0.0107 6.6e-5,7.9e-4 5.29e-4,-0.001 7.94e-4,-0.002 0.01691,0.005 0.03378,0.01 0.05068,0.015 -0.0011,0.004 0.0021,-0.007 0.0024,-0.009 0.0019,-0.0102 0.0016,-0.0102 0.0011,-0.0183 -7.7e-5,-0.001 -1.88e-4,-0.002 -2.65e-4,-0.003 -0.0024,0.006 -0.0024,0.007 -0.0083,0.0122 -0.0019,0.002 -0.0044,0.002 -0.0065,0.003 -2.64e-4,2e-4 0.01114,-0.004 0.0086,-0.004 -0.0043,5.3e-4 -0.0083,0.002 -0.01241,0.004 0.0028,-2.7e-4 0.0056,-5.3e-4 0.0083,-10e-4 0.01775,-0.005 0.03235,-0.0195 0.02871,-0.0394 1.09e-4,0.003 5.3e-4,0.006 2.65e-4,0.008 -2.65e-4,0.002 -0.0021,0.005 -0.0021,0.007 9.6e-5,0.002 0.0016,-0.004 0.0021,-0.006 0.0024,-0.009 0.0016,-0.0185 0.0011,-0.0277 -0.0026,-0.0189 -7.93e-4,-0.009 -0.0044,-0.025 -0.0011,-0.005 -0.0021,-0.0101 -0.0037,-0.0148 -1.03e-4,-2.7e-4 -5e-5,0.001 -1.24e-4,7.9e-4 -5.29e-4,-0.002 -7.94e-4,-0.004 -0.0011,-0.006 -0.003,-0.0135 -0.0021,-0.0116 -0.0073,-0.025 -0.0019,-0.004 -0.0033,-0.009 -0.0056,-0.0134 -0.0031,-0.006 -0.0067,-0.011 -0.0108,-0.016 -0.0016,-0.002 -0.0067,-0.007 -0.006,-0.005 0.0011,0.004 0.0049,0.006 0.0074,0.009 -0.0033,0.002 -7.94e-4,7.9e-4 -0.0031,-0.0101 -0.0013,-0.007 -0.0027,-0.0144 -0.0038,-0.0216 -0.0035,-0.0229 -0.0067,-0.0502 -0.0082,-0.073 -7.93e-4,-0.0125 -7.93e-4,-0.0251 -0.0011,-0.0377 1.6e-5,-0.0113 2.22e-4,-0.0343 -2.65e-4,-0.0472 -1.32e-4,-0.004 0.0027,-0.01 -7.93e-4,-0.0107 -0.05934,-0.0147 -0.05451,-0.014 -0.05242,0.0185 0.0051,0.0642 0.01294,0.12876 0.02936,0.19122 0.0096,0.0363 0.01553,0.049 0.02844,0.0815 0.0024,0.005 0.0046,0.011 0.007,0.0164 5.3e-4,7.9e-4 5.3e-4,0.002 0.0016,0.003 0.01744,0.003 0.03496,0.006 0.0526,0.006 0.0019,1e-5 7.93e-4,-0.004 0.0011,-0.006 0.0011,-0.009 5.29e-4,-0.0108 5.29e-4,-0.0206 -0.0013,-0.0116 -0.0016,-0.0179 -0.0046,-0.0294 -0.0082,-0.0303 -0.02649,-0.0562 -0.03602,-0.086 -0.0039,-0.0123 -0.0083,-0.0244 -0.01175,-0.0368 -0.0041,-0.0149 -0.0074,-0.03 -0.01074,-0.0452 -0.01378,-0.0626 -0.02368,-0.12592 -0.03591,-0.18879 -7.94e-4,-0.006 -0.0019,-0.0123 -0.0026,-0.0184 -2.65e-4,-0.004 0.0033,-0.0102 -2.65e-4,-0.0113 -0.06218,-0.019 -0.05417,-0.0127 -0.0517,0.0226 0.0024,0.0274 5e-5,-0.002 0.0016,0.0288 0.0013,0.025 5.3e-4,0.005 0.0021,0.0233 0.0016,0.0191 -5.29e-4,0.002 0.0016,0.0183 0.0028,0.0181 0.0027,0.0365 0.0043,0.0547 5.29e-4,0.006 0.0013,0.0119 0.0021,0.0178 7.94e-4,0.006 0.0016,0.0124 0.0024,0.0187 0.0011,0.007 0.0021,0.0138 0.0033,0.0208 0.0013,0.005 0.0026,0.0106 0.0036,0.0159 0.0019,0.0104 0.0024,0.0234 0.0031,0.0339 2.64e-4,0.005 0.0011,0.011 0.0011,0.0165 1.85e-4,0.005 -4.5e-5,0.0109 -6.6e-5,0.0164 5.6e-5,0.0257 0.0016,0.0515 2.7e-5,0.0772 -0.0016,0.0183 -0.0035,0.0365 -0.0016,0.0548 0.0026,0.0244 0.01138,0.0477 0.01506,0.0719 0.0048,0.0302 0.0076,0.0434 0.0095,0.0737 5.29e-4,0.009 1.74e-4,0.0189 5.29e-4,0.0284 5.29e-4,0.0114 5.29e-4,0.0229 0.0019,0.0342 0.0029,0.0288 0.0057,0.0368 0.01225,0.0642 0.0055,0.0148 0.0078,0.0261 0.01966,0.0374 0.0034,0.003 0.0084,0.009 0.01262,0.007 0.01323,-0.007 0.0213,-0.0207 0.03313,-0.0296 0.0013,-0.001 2.33e-4,0.004 8e-6,0.005 -0.0082,0.0209 -0.0039,0.0159 -0.05149,-0.0109 -0.0028,-0.002 7.94e-4,-0.008 0.0038,-0.009 0.01207,-0.004 0.0254,-0.008 0.03773,-0.005 0.01257,0.003 0.0093,0.0119 0.0074,0.018 -2.1e-5,-0.001 -2.64e-4,-0.002 -6.3e-5,-0.003 0.0016,-0.006 0.0077,-0.0207 0.0093,-0.025 0.0062,-0.0165 0.01164,-0.0333 0.01757,-0.0499 0.0056,-0.0161 0.01095,-0.0322 0.01527,-0.0487 0.0019,-0.0105 0.0043,-0.0207 0.0066,-0.0312 5.29e-4,-0.004 0.0016,-0.008 0.0019,-0.0118 2.65e-4,-0.004 2.22e-4,-0.007 2.65e-4,-0.0108 7.93e-4,-0.0245 0.0013,-0.049 -0.0011,-0.0734 -0.0035,-0.0342 -2.64e-4,-0.002 -0.0029,-0.0332 -2.43e-4,-0.003 -7.93e-4,-0.006 -7.93e-4,-0.009 -2.65e-4,-0.0109 0.0011,-0.011 -5.3e-4,-0.0222 -5.29e-4,-0.004 -0.0016,-0.007 -0.0026,-0.0108 5e-6,0.003 8.2e-5,0.001 -0.0011,-0.003 -2.64e-4,-0.002 -7.94e-4,-0.003 -0.0011,-0.004 -0.0052,-0.025 7.94e-4,5.3e-4 -0.0038,-0.0161 -7.93e-4,-0.003 -0.0013,-0.005 -0.0021,-0.008 -0.0024,-0.0102 -0.0031,-0.0145 -0.0061,-0.0248 -0.0048,-0.0161 -0.01169,-0.0315 -0.01498,-0.048 -0.0036,-0.0285 -0.0073,-0.057 -0.01304,-0.0852 -0.0026,-0.0124 -0.0058,-0.0247 -0.0085,-0.0371 -0.0033,-0.0153 -0.0062,-0.0307 -0.0094,-0.0461 -0.0024,-0.0185 -0.0056,-0.0369 -0.0072,-0.0555 -0.004,-0.045 -0.0039,-0.0832 -0.0033,-0.12839 5.29e-4,-0.0431 0.0029,-0.0861 0.0075,-0.12891 5.3e-4,-0.004 7.94e-4,-0.008 0.0013,-0.0113 -5.29e-4,5.3e-4 -0.0013,0.003 -0.0013,0.002 -3.4e-5,-0.009 7.94e-4,-0.0185 0.0013,-0.0277 5.3e-4,0.002 0.0011,0.009 0.0019,0.007 0.0026,-0.006 -0.007,-0.0142 -0.0035,-0.0201 -0.004,-0.0279 -0.0071,-0.0558 -0.0097,-0.0838 -0.0013,-0.0139 -0.0021,-0.0279 -0.0036,-0.0417 -0.0024,-0.0246 -0.007,-0.0597 -0.01013,-0.0842 -0.0063,-0.0426 -0.01278,-0.0852 -0.02077,-0.12753 -0.0049,-0.0258 -0.01056,-0.0515 -0.01545,-0.0773 -0.0019,-0.0103 -0.0038,-0.0207 -0.0057,-0.031 -0.0019,-0.0204 -0.0033,-0.0323 -0.0039,-0.0524 -7.94e-4,-0.027 5.29e-4,-0.0541 0,-0.0811 0,0 -0.05292,0 -0.05292,0 z" /><path
         style="fill:#eeeeee;fill-opacity:1;stroke:#eeeeee;stroke-width:0.132292;stroke-linecap:round;stroke-linejoin:round"
         id="path2528"
         d="m 91.135847,203.81732 c 0,-0.0726 0,-0.14514 0,-0.21771 0.0016,-0.023 -0.0019,-0.0456 -0.0042,-0.0684 -0.0021,-0.0211 -0.0038,-0.0424 -0.0048,-0.0636 -0.0011,-0.0178 -0.003,-0.0356 -0.0066,-0.053 -0.0055,-0.0264 -0.004,-0.0123 -0.009,-0.0379 -0.0013,-0.006 -0.0021,-0.0126 -0.0031,-0.019 -7.94e-4,-0.007 -0.0016,-0.0137 -0.0024,-0.0205 -0.0016,-0.0153 -0.0028,-0.0306 -0.0044,-0.0459 -0.0021,-0.0216 -0.0051,-0.0431 -0.008,-0.0647 -0.0068,-0.0428 -0.009,-0.0861 -0.01079,-0.12934 -2.64e-4,-0.0317 5.3e-4,-0.0633 5.3e-4,-0.095 -0.0011,0.007 5.29e-4,-0.0132 -1.01e-4,-0.01 -2.65e-4,0.002 -0.0024,0.005 -2.65e-4,0.006 0.0019,7.9e-4 0.0013,-0.004 0.0019,-0.006 0.0021,-0.009 0.0016,-0.01 0.0019,-0.0187 -5.3e-4,-0.012 -0.0021,-0.0243 2.64e-4,-0.0361 5.29e-4,-0.003 7.94e-4,-0.007 0.0013,-0.0102 5.29e-4,-0.003 0.0013,-0.006 0.0019,-0.009 0.0019,-0.0136 0.0011,-0.0135 0.0032,-0.0261 0.0064,-0.0385 -0.0029,0.0241 0.0038,-0.0219 5.29e-4,-0.0117 7.94e-4,-0.01 1.3e-4,-0.0205 -1.59e-4,-0.002 -7.94e-4,-0.004 -5.29e-4,-0.007 8e-6,-2.6e-4 7.94e-4,6e-5 7.94e-4,-2.1e-4 5.29e-4,-0.002 7.93e-4,-0.005 0.0011,-0.007 5.29e-4,-0.003 0.0013,-0.006 0.0019,-0.008 7.94e-4,-0.003 0.0016,-0.005 0.0024,-0.008 0,0 -0.0509,-0.0145 -0.0509,-0.0145 v 0 c -0.0011,0.004 -0.0021,0.008 -0.0032,0.0115 -0.0024,0.0108 -0.0044,0.0212 -0.0047,0.0323 -6.1e-5,0.002 7.94e-4,0.006 7.94e-4,0.008 5.8e-5,0.002 -6.6e-5,0.004 -9.8e-5,0.006 -0.0035,0.0258 0.0019,-0.0121 -0.0038,0.0223 -0.0054,0.033 0.0013,-0.004 -0.0027,0.0233 -5.29e-4,0.004 -0.0016,0.008 -0.0021,0.0118 -5.29e-4,0.003 -7.94e-4,0.006 -0.0013,0.009 -5.29e-4,0.004 -0.0013,0.008 -0.0019,0.0128 -7.94e-4,0.0102 3.7e-5,0.0213 7.93e-4,0.0315 7.2e-5,8e-4 8e-5,0.002 2.17e-4,0.002 4.5e-5,2.3e-4 2.65e-4,5.3e-4 2.65e-4,5.3e-4 -1.53e-4,0.001 -5.29e-4,0.002 -7.94e-4,0.003 -0.0024,0.01 -0.0035,0.0137 -0.0029,0.0227 1.35e-4,0.0323 -7.94e-4,0.0646 -2.65e-4,0.0969 0.0019,0.0449 0.0042,0.0898 0.01122,0.1342 0.0028,0.0209 0.0056,0.0418 0.0078,0.0627 0.0016,0.0157 0.0028,0.0314 0.0045,0.0471 7.94e-4,0.008 0.0019,0.0153 0.0028,0.023 0.0013,0.007 0.0024,0.0148 0.0037,0.0221 0.0081,0.0409 7.94e-4,-5.3e-4 0.0084,0.035 0.0033,0.0154 0.005,0.0311 0.006,0.0467 0.0011,0.0224 0.0029,0.0449 0.0051,0.0672 0.0021,0.0207 0.0054,0.0412 0.0038,0.0621 0,0.0726 0,0.14515 0,0.21772 0,0 0.05292,0 0.05292,0 z" /><path
         style="fill:#eeeeee;fill-opacity:1;stroke:#eeeeee;stroke-width:0.132292;stroke-linecap:round;stroke-linejoin:round"
         id="path2530"
         d="m 91.101409,202.82527 c 0,-0.0576 0,-0.11523 0,-0.17284 0.01013,-0.003 -0.0047,-0.0256 0.0041,-0.0319 0,0 -0.04913,-0.0197 -0.04913,-0.0197 v 0 c -0.0011,0.003 -0.0026,0.006 -0.0033,0.009 -0.0043,0.0173 -0.0035,0.0225 -0.0045,0.0421 0,0.0576 0,0.11523 0,0.17284 0,0 0.05292,0 0.05292,0 z" /></g></g></svg>
