<?xml version="1.0" encoding="UTF-8" standalone="no"?>
<!-- Created with Inkscape (http://www.inkscape.org/) -->

<svg
   width="14.552086mm"
   height="14.552086mm"
   viewBox="0 0 14.552086 14.552086"
   version="1.1"
   id="svg5"
   xml:space="preserve"
   sodipodi:docname="pamlka2.svg"
   inkscape:version="1.2.2 (b0a84865, 2022-12-01)"
   inkscape:export-filename="pamlka.svg"
   inkscape:export-xdpi="96"
   inkscape:export-ydpi="96"
   xmlns:inkscape="http://www.inkscape.org/namespaces/inkscape"
   xmlns:sodipodi="http://sodipodi.sourceforge.net/DTD/sodipodi-0.dtd"
   xmlns="http://www.w3.org/2000/svg"
   xmlns:svg="http://www.w3.org/2000/svg"><sodipodi:namedview
     id="namedview7"
     pagecolor="#ffffff"
     bordercolor="#000000"
     borderopacity="0.25"
     inkscape:showpageshadow="2"
     inkscape:pageopacity="0.0"
     inkscape:pagecheckerboard="0"
     inkscape:deskcolor="#d1d1d1"
     inkscape:document-units="mm"
     showgrid="false"
     showguides="true"
     inkscape:zoom="3.787787"
     inkscape:cx="82.501998"
     inkscape:cy="32.20878"
     inkscape:window-width="1440"
     inkscape:window-height="774"
     inkscape:window-x="0"
     inkscape:window-y="25"
     inkscape:window-maximized="0"
     inkscape:current-layer="layer1" /><defs
     id="defs2"><inkscape:path-effect
       effect="bspline"
       id="path-effect1061"
       is_visible="true"
       lpeversion="1"
       weight="33.333333"
       steps="2"
       helper_size="0"
       apply_no_weight="true"
       apply_with_weight="true"
       only_selected="false" /><inkscape:path-effect
       effect="bspline"
       id="path-effect1048"
       is_visible="true"
       lpeversion="1"
       weight="33.333333"
       steps="2"
       helper_size="0"
       apply_no_weight="true"
       apply_with_weight="true"
       only_selected="false" /><inkscape:path-effect
       effect="bspline"
       id="path-effect1044"
       is_visible="true"
       lpeversion="1"
       weight="33.333333"
       steps="2"
       helper_size="0"
       apply_no_weight="true"
       apply_with_weight="true"
       only_selected="false" /><inkscape:path-effect
       effect="bspline"
       id="path-effect1004"
       is_visible="true"
       lpeversion="1"
       weight="33.333333"
       steps="2"
       helper_size="0"
       apply_no_weight="true"
       apply_with_weight="true"
       only_selected="false" /><inkscape:path-effect
       effect="bspline"
       id="path-effect994"
       is_visible="true"
       lpeversion="1"
       weight="33.333333"
       steps="2"
       helper_size="0"
       apply_no_weight="true"
       apply_with_weight="true"
       only_selected="false" /><inkscape:path-effect
       effect="bspline"
       id="path-effect1061-1"
       is_visible="true"
       lpeversion="1"
       weight="33.333333"
       steps="2"
       helper_size="0"
       apply_no_weight="true"
       apply_with_weight="true"
       only_selected="false" /></defs><g
     inkscape:label="Layer 1"
     inkscape:groupmode="layer"
     id="layer1"
     transform="translate(-90.252001,-118.59246)"><circle
       style="fill:none;stroke:#eeeeee;stroke-width:0.18403;stroke-dasharray:none;stroke-opacity:1"
       id="path234"
       cx="97.528046"
       cy="125.8685"
       r="7.1840267" /><g
       id="g27639"
       transform="matrix(0.76034341,0,0,0.76034341,17.707906,24.573685)"
       style="stroke:#eeeeee;stroke-opacity:1"><path
         style="opacity:1;fill:none;stroke:#eeeeee;stroke-width:0.132292;stroke-opacity:1"
         d="m 101.96632,128.58308 c 0.23692,-1.58564 0.71073,-1.9902 1.56649,-2.19246 0.85577,-0.20227 2.09321,-0.20227 2.95978,1.3e-4 0.86656,0.20239 1.36219,0.60694 1.60987,2.19248 0.24767,1.58554 0.24767,4.35193 0.20105,5.88681 -0.0466,1.53488 -0.13982,1.8383 -0.52745,2.54624 -0.38763,0.70793 -1.06968,1.82044 -1.56343,2.47164 -0.49375,0.6512 -0.79928,0.84118 -1.14157,0.84128 -0.34229,1e-4 -0.72155,-0.18989 -1.23365,-0.84108 -0.51211,-0.65119 -1.15689,-1.76369 -1.53034,-2.47166 -0.37346,-0.70798 -0.47551,-1.01139 -0.52658,-2.54637 -0.0511,-1.53499 -0.0511,-4.30137 0.18583,-5.88701 z"
         id="path992"
         inkscape:path-effect="#path-effect994"
         inkscape:original-d="m 101.72941,127.40201 c 0.47407,-0.40429 0.94788,-0.80884 1.42142,-1.21366 1.23775,2.6e-4 2.47519,2.6e-4 3.71239,0 0.49591,0.40482 0.99154,0.80937 1.48691,1.21366 2.6e-4,2.76676 2.6e-4,5.53315 0,8.29933 -0.0929,0.30369 -0.18612,0.6071 -0.27958,0.91025 -0.68181,1.11281 -1.36386,2.22532 -2.04619,3.33758 -0.30529,0.19025 -0.61082,0.38024 -0.91663,0.56996 -0.37901,-0.18973 -0.75827,-0.37971 -1.1378,-0.56996 -0.64454,-1.11229 -1.28932,-2.22479 -1.93438,-3.33758 -0.10179,-0.30316 -0.20383,-0.60657 -0.30614,-0.91025 2.6e-4,-2.76624 2.6e-4,-5.53262 0,-8.29933 z" /><path
         style="opacity:1;fill:none;stroke:#eeeeee;stroke-width:0.132292;stroke-opacity:1"
         d="m 103.25451,127.42883 c -1.4e-4,-0.20543 0.18479,-0.42484 0.76011,-0.53455 0.57532,-0.10972 1.54071,-0.10972 2.10959,1.3e-4 0.56888,0.10985 0.74128,0.32926 0.74115,0.53442 -1.2e-4,0.20517 -0.17251,0.39637 -0.74128,0.49196 -0.56877,0.0956 -1.53416,0.0956 -2.10933,1.3e-4 -0.57517,-0.0955 -0.7601,-0.28667 -0.76024,-0.49209 z"
         id="path1002"
         inkscape:path-effect="#path-effect1004"
         inkscape:original-d="m 103.06946,127.44278 c 0.18519,-0.21914 0.37012,-0.43855 0.55479,-0.65822 0.96569,2.6e-4 1.93108,2.6e-4 2.89622,0 0.17266,0.21967 0.34505,0.43908 0.51718,0.65822 -0.17213,0.19147 -0.34452,0.38267 -0.51718,0.57361 -0.96516,2.6e-4 -1.93055,2.6e-4 -2.89622,0 -0.18467,-0.19094 -0.3696,-0.38214 -0.55479,-0.57361 z" /><path
         style="opacity:1;fill:none;stroke:#eeeeee;stroke-width:0.132292;stroke-dasharray:none;stroke-opacity:1"
         d="m 101.86128,135.75199 c 2.11965,0 4.23902,0 6.35812,0"
         id="path1042"
         inkscape:path-effect="#path-effect1044"
         inkscape:original-d="m 101.86128,135.75199 c 2.11965,2.6e-4 4.23902,2.6e-4 6.35812,0" /><path
         style="opacity:1;fill:none;stroke:#eeeeee;stroke-width:0.132292;stroke-dasharray:none;stroke-opacity:1"
         d="m 102.10556,136.66224 c 1.95679,0 3.91331,0 5.86956,0"
         id="path1046"
         inkscape:path-effect="#path-effect1048"
         inkscape:original-d="m 102.10556,136.66224 c 1.95679,2.6e-4 3.91331,2.6e-4 5.86956,0" /><path
         style="opacity:1;fill:none;stroke:#eeeeee;stroke-width:0.132292;stroke-opacity:1"
         d="m 106.88638,128.88546 c 0.0715,-0.0825 0.2146,-0.2476 0.36698,-0.25665 0.15238,-0.009 0.31378,0.13767 0.41454,0.5247 0.10075,0.38703 0.1411,1.01431 0.1631,1.66544 0.022,0.65113 0.0257,1.32609 0.009,2.02491 -0.0165,0.69882 -0.0532,1.42148 -0.10824,1.84876 -0.055,0.42728 -0.12841,0.55934 -0.24747,0.618 -0.11905,0.0587 -0.28413,0.044 -0.40522,-0.0164 -0.1211,-0.0604 -0.19812,-0.16677 -0.22941,-1.06371 -0.0313,-0.89694 -0.0166,-2.58435 -0.0148,-3.59315 0.002,-1.00879 -0.009,-1.33895 -0.0147,-1.50417 -0.005,-0.16521 -0.005,-0.16521 0.066,-0.24774 z"
         id="path1059"
         inkscape:path-effect="#path-effect1061"
         inkscape:original-d="m 106.81486,128.96799 c 0.14333,-0.16481 0.2864,-0.32988 0.4292,-0.49522 0.16167,0.147 0.32307,0.29373 0.48422,0.4402 0.0406,0.62756 0.081,1.25483 0.12105,1.88186 0.004,0.67525 0.008,1.35021 0.011,2.02492 -0.0364,0.72295 -0.0731,1.4456 -0.11005,2.168 -0.0731,0.13232 -0.14647,0.26438 -0.2201,0.39618 -0.16481,-0.0144 -0.32989,-0.0291 -0.49523,-0.044 -0.0768,-0.10612 -0.1538,-0.2125 -0.2311,-0.31915 0.0149,-1.6872 0.0296,-3.37461 0.044,-5.06232 -0.0107,-0.32989 -0.0217,-0.66005 -0.033,-0.99047 z"
         sodipodi:nodetypes="sccccccccss" /><path
         style="opacity:1;fill:none;stroke:#eeeeee;stroke-width:0.132292;stroke-opacity:1"
         d="m 103.21083,128.88547 c -0.0715,-0.0825 -0.2146,-0.2476 -0.36698,-0.25665 -0.15238,-0.009 -0.31378,0.13767 -0.41454,0.5247 -0.10075,0.38703 -0.1411,1.01431 -0.1631,1.66544 -0.022,0.65113 -0.0257,1.32609 -0.009,2.02491 0.0165,0.69882 0.0532,1.42148 0.10824,1.84876 0.055,0.42728 0.12841,0.55934 0.24747,0.618 0.11905,0.0587 0.28413,0.044 0.40522,-0.0164 0.1211,-0.0604 0.19812,-0.16677 0.22941,-1.06371 0.0313,-0.89694 0.0166,-2.58435 0.0193,-3.49126 0.003,-0.9069 0.0228,-1.03323 0.0283,-1.19829 0.006,-0.16506 -0.004,-0.36855 -0.008,-0.47076 -0.005,-0.10222 -0.005,-0.10222 -0.0761,-0.18475 z"
         id="path1059-4"
         inkscape:path-effect="#path-effect1061-1"
         inkscape:original-d="m 103.28235,128.968 c -0.14333,-0.16481 -0.2864,-0.32988 -0.4292,-0.49522 -0.16167,0.147 -0.32307,0.29373 -0.48422,0.4402 -0.0406,0.62756 -0.081,1.25483 -0.12105,1.88186 -0.004,0.67525 -0.008,1.35021 -0.011,2.02492 0.0364,0.72295 0.0731,1.4456 0.11005,2.168 0.0731,0.13232 0.14647,0.26438 0.2201,0.39618 0.16481,-0.0144 0.32989,-0.0291 0.49523,-0.044 0.0768,-0.10612 0.1538,-0.2125 0.2311,-0.31915 -0.0149,-1.6872 -0.0296,-3.37461 -0.044,-5.06232 0.0204,-0.12605 0.0405,-0.25238 0.0603,-0.37897 -0.009,-0.20358 -0.0179,-0.40708 -0.0273,-0.6115 z"
         sodipodi:nodetypes="sccccccccsss" /></g></g></svg>
