<?xml version="1.0" encoding="UTF-8" standalone="no"?>
<!-- Created with Inkscape (http://www.inkscape.org/) -->

<svg
   width="14.553608mm"
   height="14.553612mm"
   viewBox="0 0 14.553608 14.553612"
   version="1.1"
   id="svg5"
   xml:space="preserve"
   sodipodi:docname="parasolka2.svg"
   inkscape:version="1.2.2 (b0a84865, 2022-12-01)"
   xmlns:inkscape="http://www.inkscape.org/namespaces/inkscape"
   xmlns:sodipodi="http://sodipodi.sourceforge.net/DTD/sodipodi-0.dtd"
   xmlns="http://www.w3.org/2000/svg"
   xmlns:svg="http://www.w3.org/2000/svg"><sodipodi:namedview
     id="namedview145"
     pagecolor="#ffffff"
     bordercolor="#000000"
     borderopacity="0.25"
     inkscape:showpageshadow="2"
     inkscape:pageopacity="0.0"
     inkscape:pagecheckerboard="0"
     inkscape:deskcolor="#d1d1d1"
     inkscape:document-units="mm"
     showgrid="false"
     inkscape:zoom="4.2904585"
     inkscape:cx="27.502888"
     inkscape:cy="27.502888"
     inkscape:window-width="1309"
     inkscape:window-height="456"
     inkscape:window-x="0"
     inkscape:window-y="25"
     inkscape:window-maximized="0"
     inkscape:current-layer="svg5" /><defs
     id="defs2" /><g
     id="layer1"
     transform="translate(-62.08241,-100.5729)"
     style="stroke:#eeeeee;stroke-opacity:1"><circle
       style="fill:none;stroke:#eeeeee;stroke-width:0.185208;stroke-dasharray:none;stroke-opacity:1"
       id="path234"
       cx="69.359215"
       cy="107.84971"
       r="7.1841998" /><path
       style="fill:none;stroke:#eeeeee;stroke-width:0.105833;stroke-dasharray:none;stroke-opacity:1"
       d="m 69.602151,109.82502 c -0.07969,-0.57551 -0.239101,-1.72682 -0.377227,-2.29828 -0.138126,-0.57147 -0.255157,-0.56277 -0.482383,-0.53726 -0.227227,0.0255 -0.56462,0.0678 -0.773175,0.0965 -0.208555,0.0286 -0.288229,0.0436 -0.465625,0.0522 -0.177397,0.009 -0.452539,0.011 -0.751337,-2.9e-4 -0.298798,-0.0113 -0.621253,-0.0362 -0.790025,-0.0665 -0.168773,-0.0303 -0.18371,-0.0664 -0.183799,-0.13622 -9e-5,-0.0698 0.01485,-0.17312 0.03477,-0.24355 0.01992,-0.0704 0.0448,-0.10775 0.128236,-0.20428 0.08344,-0.0965 0.225373,-0.25215 0.425851,-0.42897 0.200477,-0.17681 0.45944,-0.37477 0.741466,-0.55718 0.282026,-0.18241 0.587053,-0.34924 0.809922,-0.46565 0.222868,-0.11641 0.363562,-0.1824 0.503654,-0.23593 0.140091,-0.0535 0.279536,-0.0946 0.344834,-0.15047 0.0653,-0.0559 0.05658,-0.12683 0.08089,-0.17867 0.02431,-0.0518 0.08159,-0.0842 0.136482,-0.0903 0.05489,-0.006 0.107168,0.0138 0.136307,0.0382 0.02914,0.0244 0.03536,0.053 0.03718,0.0841 0.0018,0.0311 -6.75e-4,0.0647 0.160079,0.092 0.160755,0.0273 0.484459,0.0484 0.857365,0.11446 0.372905,0.066 0.794959,0.17683 1.174698,0.30884 0.37974,0.132 0.717139,0.28514 0.946196,0.42402 0.229056,0.13888 0.349821,0.26338 0.408822,0.35984 0.059,0.0965 0.0565,0.16499 0.04651,0.21285 -0.01,0.0479 -0.02738,0.0752 -0.149305,0.13118 -0.121929,0.056 -0.348531,0.14065 -0.626777,0.22967 -0.278246,0.089 -0.608182,0.1824 -0.901375,0.25773 -0.293193,0.0753 -0.549671,0.1326 -0.788703,0.17556 -0.239033,0.043 -0.460638,0.0716 -0.578419,0.16759 -0.117782,0.096 -0.131479,0.2591 -0.06297,0.83994 0.06851,0.58084 0.219155,1.57933 0.297166,2.07971 0.07801,0.50038 0.08289,0.50266 0.17502,0.5287 0.09213,0.026 0.271415,0.0758 0.397127,0.13504 0.125711,0.0592 0.197944,0.12771 0.233288,0.17317 0.03534,0.0454 0.03411,0.0678 0.02916,0.0839 -0.005,0.016 -0.01371,0.026 -0.309267,0.031 -0.295557,0.005 -0.878217,0.005 -1.181993,-0.007 -0.303777,-0.0123 -0.328682,-0.0372 -0.324468,-0.0697 0.0042,-0.0325 0.03781,-0.0723 0.105723,-0.11967 0.06791,-0.0474 0.17001,-0.10213 0.263428,-0.14259 0.09342,-0.0405 0.178069,-0.0666 0.228546,-0.0796 0.05048,-0.013 0.06665,-0.013 0.08155,-0.0157 0.0149,-0.003 0.02866,-0.008 0.03547,-0.0107 0.0068,-0.003 0.0068,-0.002 -0.07288,-0.57721 z"
       id="path1812" /><path
       style="fill:none;stroke:#eeeeee;stroke-width:0.105833;stroke-dasharray:none;stroke-opacity:1"
       d="m 66.602049,107.13116 c 0.0056,-0.0935 0.01118,-0.1872 0.123096,-0.40065 0.111913,-0.21346 0.330154,-0.54642 0.637276,-0.89063 0.307122,-0.3442 0.703037,-0.69955 1.098945,-1.05488"
       id="path1816" /><path
       style="fill:none;stroke:#eeeeee;stroke-width:0.105833;stroke-dasharray:none;stroke-opacity:1"
       d="m 67.593045,107.13272 c 0.048,-0.19437 0.09604,-0.38892 0.192444,-0.64975 0.0964,-0.26083 0.241159,-0.58788 0.412854,-0.90457 0.171696,-0.31669 0.370308,-0.62295 0.568965,-0.92928"
       id="path1820" /><path
       style="fill:none;stroke:#eeeeee;stroke-width:0.105833;stroke-dasharray:none;stroke-opacity:1"
       d="m 68.742541,106.98948 c 0.0027,-0.31632 0.0053,-0.6329 0.01871,-0.93686 0.01337,-0.30396 0.03747,-0.59526 0.06606,-0.81957 0.02858,-0.22431 0.06167,-0.38158 0.09481,-0.53906"
       id="path1824" /><path
       style="fill:none;stroke:#eeeeee;stroke-width:0.105833;stroke-dasharray:none;stroke-opacity:1"
       d="m 68.767308,104.64912 c 0.0519,0.0151 0.103517,0.03 0.155661,0.0352 0.05215,0.005 0.104967,6.2e-4 0.143386,-0.002 0.03842,-0.002 0.06248,-0.002 0.102026,-0.0166 0.03955,-0.0144 0.09477,-0.043 0.149867,-0.0716"
       id="path1828" /><path
       style="fill:none;stroke:#eeeeee;stroke-width:0.105833;stroke-dasharray:none;stroke-opacity:1"
       d="m 68.742541,106.98948 c 0.175226,-0.0307 0.350228,-0.0613 0.477564,-0.0784 0.127336,-0.0171 0.206991,-0.0207 0.280297,-0.007 0.07331,0.0132 0.140248,0.043 0.206857,0.0726"
       id="path1832" /><path
       style="fill:none;stroke:#eeeeee;stroke-width:0.105833;stroke-dasharray:none;stroke-opacity:1"
       d="m 69.899966,106.88597 c -0.09355,-0.36576 -0.187188,-0.73184 -0.309096,-1.10183 -0.121909,-0.36998 -0.272133,-0.74387 -0.42249,-1.11808"
       id="path1836" /><path
       style="fill:none;stroke:#eeeeee;stroke-width:0.105833;stroke-dasharray:none;stroke-opacity:1"
       d="m 70.975933,106.65794 c -0.241216,-0.3952 -0.48262,-0.79071 -0.783827,-1.12274 -0.301207,-0.33202 -0.662318,-0.60047 -1.023726,-0.86914"
       id="path1840" /><path
       style="fill:none;stroke:#eeeeee;stroke-width:0.105833;stroke-dasharray:none;stroke-opacity:1"
       d="m 71.975757,106.37525 c -0.159834,-0.2152 -0.319891,-0.4307 -0.56966,-0.65376 -0.249769,-0.22307 -0.589325,-0.45361 -0.889566,-0.63486 -0.300241,-0.18125 -0.561163,-0.31316 -0.822406,-0.44523"
       id="path1844" /></g></svg>
