<?xml version="1.0" encoding="UTF-8" standalone="no"?>
<!-- Created with Inkscape (http://www.inkscape.org/) -->

<svg
   width="13.229172mm"
   height="13.229172mm"
   viewBox="0 0 13.229172 13.229172"
   version="1.1"
   id="svg17995"
   inkscape:export-filename="wegorz1.svg"
   inkscape:export-xdpi="96"
   inkscape:export-ydpi="96"
   xmlns:inkscape="http://www.inkscape.org/namespaces/inkscape"
   xmlns:sodipodi="http://sodipodi.sourceforge.net/DTD/sodipodi-0.dtd"
   xmlns="http://www.w3.org/2000/svg"
   xmlns:svg="http://www.w3.org/2000/svg">
  <sodipodi:namedview
     id="namedview17997"
     pagecolor="#ffffff"
     bordercolor="#000000"
     borderopacity="0.25"
     inkscape:showpageshadow="2"
     inkscape:pageopacity="0.0"
     inkscape:pagecheckerboard="0"
     inkscape:deskcolor="#d1d1d1"
     inkscape:document-units="mm"
     showgrid="false" />
  <defs
     id="defs17992">
    <inkscape:path-effect
       effect="bspline"
       id="path-effect358"
       is_visible="true"
       lpeversion="1"
       weight="33.333333"
       steps="2"
       helper_size="0"
       apply_no_weight="true"
       apply_with_weight="true"
       only_selected="false" />
    <inkscape:path-effect
       effect="bspline"
       id="path-effect366"
       is_visible="true"
       lpeversion="1"
       weight="33.333333"
       steps="2"
       helper_size="0"
       apply_no_weight="true"
       apply_with_weight="true"
       only_selected="false" />
    <inkscape:path-effect
       effect="bspline"
       id="path-effect978"
       is_visible="true"
       lpeversion="1"
       weight="33.333333"
       steps="2"
       helper_size="0"
       apply_no_weight="true"
       apply_with_weight="true"
       only_selected="false" />
    <inkscape:path-effect
       effect="bspline"
       id="path-effect982"
       is_visible="true"
       lpeversion="1"
       weight="33.333333"
       steps="2"
       helper_size="0"
       apply_no_weight="true"
       apply_with_weight="true"
       only_selected="false" />
    <inkscape:path-effect
       effect="bspline"
       id="path-effect3442"
       is_visible="true"
       lpeversion="1"
       weight="33.333333"
       steps="2"
       helper_size="0"
       apply_no_weight="true"
       apply_with_weight="true"
       only_selected="false" />
    <inkscape:path-effect
       effect="bspline"
       id="path-effect9276"
       is_visible="true"
       lpeversion="1"
       weight="33.333333"
       steps="2"
       helper_size="0"
       apply_no_weight="true"
       apply_with_weight="true"
       only_selected="false" />
    <inkscape:path-effect
       effect="bspline"
       id="path-effect9280"
       is_visible="true"
       lpeversion="1"
       weight="33.333333"
       steps="2"
       helper_size="0"
       apply_no_weight="true"
       apply_with_weight="true"
       only_selected="false" />
  </defs>
  <g
     inkscape:label="Layer 1"
     inkscape:groupmode="layer"
     id="layer1"
     transform="translate(-173.34728,-160.76254)">
    <path
       style="fill:none;stroke:#eeeeee;stroke-width:0.0485708;stroke-linecap:round;stroke-linejoin:round;stroke-dasharray:none;stroke-opacity:1"
       d="m 176.19122,166.8878 c -0.0624,-0.0197 -0.1872,-0.0591 -0.28408,-0.10508 -0.0969,-0.046 -0.16588,-0.0985 -0.22502,-0.15602 -0.0591,-0.0575 -0.10839,-0.11988 -0.13797,-0.17572 -0.0296,-0.0558 -0.0394,-0.1051 -0.0493,-0.18394 -0.01,-0.0788 -0.0197,-0.1872 -0.0132,-0.27097 0.007,-0.0838 0.0296,-0.14288 0.0624,-0.19872 0.0328,-0.0558 0.0755,-0.1084 0.1199,-0.15111 0.0444,-0.0427 0.0903,-0.0755 0.16424,-0.11495 0.0739,-0.0394 0.17574,-0.0854 0.25293,-0.11495 0.0772,-0.0296 0.12974,-0.0427 1.47481,-0.0427 1.34506,0 3.98252,0.0131 5.33905,0.0296 1.35653,0.0164 1.43207,0.0361 1.50596,0.069 0.0739,0.0328 0.14616,0.0788 0.22172,0.13962 0.0755,0.0608 0.15437,0.13631 0.20362,0.19545 0.0493,0.0591 0.069,0.10187 0.0805,0.20201 0.0115,0.10014 0.0148,0.25781 -0.002,0.37275 -0.0164,0.11494 -0.0525,0.1872 -0.11329,0.25452 -0.0607,0.0673 -0.14615,0.12974 -0.22661,0.17407 -0.0805,0.0443 -0.15601,0.0706 -0.2266,0.0919 -0.0706,0.0214 -0.13632,0.0378 -1.40419,0.0443 -1.26786,0.007 -3.73779,0.003 -5.02698,0.003 -1.28919,0 -1.39761,0.003 -1.47642,-0.003 -0.0788,-0.007 -0.12809,-0.023 -0.15275,-0.0312 -0.0247,-0.008 -0.0247,-0.008 -0.0871,-0.0279 z"
       id="path356"
       inkscape:path-effect="#path-effect358"
       inkscape:original-d="m 176.2536,166.9075 c -0.12477,-0.0394 -0.24958,-0.0788 -0.37445,-0.11825 -0.0689,-0.0525 -0.1379,-0.10505 -0.20693,-0.15766 -0.0492,-0.0624 -0.0985,-0.12476 -0.14779,-0.18722 -0.01,-0.0492 -0.0197,-0.0985 -0.0296,-0.1478 -0.01,-0.10835 -0.0197,-0.21673 -0.0296,-0.32517 0.023,-0.0591 0.046,-0.1182 0.069,-0.17737 0.0427,-0.0525 0.0854,-0.10506 0.1281,-0.15766 0.046,-0.0328 0.092,-0.0656 0.13794,-0.0985 0.10188,-0.0459 0.2037,-0.0919 0.30547,-0.13795 0.0526,-0.0131 0.10515,-0.0262 0.15765,-0.0394 2.63761,0.0132 5.27507,0.0263 7.91251,0.0394 0.0756,0.0198 0.15114,0.0395 0.22664,0.0591 0.0723,0.046 0.14457,0.092 0.21679,0.13795 0.0789,0.0756 0.15771,0.15114 0.23648,0.22663 0.0197,0.0428 0.0395,0.0855 0.0591,0.1281 0.003,0.15771 0.007,0.31536 0.01,0.47297 -0.0361,0.0723 -0.0722,0.14458 -0.1084,0.21679 -0.0853,0.0625 -0.17074,0.12486 -0.25618,0.18722 -0.0755,0.0263 -0.15104,0.0526 -0.22664,0.0788 -0.0656,0.0165 -0.13133,0.0329 -0.19707,0.0493 -2.47,-0.003 -4.93993,-0.007 -7.40997,-0.01 -0.10835,0.003 -0.21675,0.007 -0.32518,0.01 -0.0492,-0.0164 -0.0985,-0.0328 -0.1478,-0.0493 z" />
    <path
       style="fill:none;stroke:#eeeeee;stroke-width:0.0485708;stroke-linecap:round;stroke-linejoin:round;stroke-dasharray:none;stroke-opacity:1"
       d="m 175.44868,166.0589 c -0.0188,0.01 -0.0564,0.0301 -0.0911,0.0426 -0.0348,0.0125 -0.0668,0.0174 -0.0971,0.0185 -0.0303,0.001 -0.0591,-0.002 -0.0868,0.001 -0.0277,0.003 -0.0542,0.0116 -0.0844,0.023 -0.0301,0.0114 -0.0638,0.0255 -0.1015,0.0322 -0.0377,0.007 -0.0794,0.006 -0.11635,0.004 -0.0369,-0.002 -0.0689,-0.005 -0.11697,-0.007 -0.0481,-0.002 -0.1121,-0.003 -0.1645,0.008 -0.0524,0.0102 -0.0931,0.0314 -0.12403,0.0545 -0.0309,0.0231 -0.0521,0.0481 -0.0637,0.0706 -0.0116,0.0225 -0.0136,0.0426 -0.009,0.0649 0.004,0.0222 0.0145,0.0467 0.0289,0.0679 0.0144,0.0212 0.0329,0.0391 0.0611,0.0492 0.0282,0.0101 0.0662,0.0124 0.0984,0.009 0.0323,-0.003 0.0589,-0.0127 0.0888,-0.0214 0.0299,-0.009 0.063,-0.0168 0.0904,-0.0271 0.0273,-0.0103 0.0491,-0.0228 0.0684,-0.0299 0.0193,-0.007 0.036,-0.009 0.06,-0.008 0.0239,0.001 0.0548,0.005 0.0901,0.008 0.0353,0.003 0.0749,0.004 0.1115,0.006 0.0366,0.002 0.0703,0.003 0.10228,-0.002 0.032,-0.006 0.0624,-0.0187 0.10173,-0.0277 0.0394,-0.009 0.0877,-0.0138 0.12566,-0.0174 0.038,-0.004 0.0655,-0.006 0.0719,-0.0605 0.006,-0.0546 -0.009,-0.1614 -0.0162,-0.21486 -0.008,-0.0535 -0.008,-0.0528 -0.0269,-0.0428 z"
       id="path364"
       inkscape:path-effect="#path-effect366"
       inkscape:original-d="m 175.46744,166.04887 c -0.0375,0.0201 -0.0751,0.0402 -0.11267,0.0602 -0.032,0.005 -0.064,0.01 -0.096,0.0147 -0.0287,-0.003 -0.0575,-0.005 -0.0863,-0.008 -0.0265,0.009 -0.0531,0.0174 -0.0798,0.026 -0.0336,0.0142 -0.0672,0.0283 -0.10093,0.0423 -0.0418,-5.6e-4 -0.0835,-0.001 -0.12536,-0.002 -0.032,-0.003 -0.064,-0.006 -0.0961,-0.01 -0.064,-5.5e-4 -0.12802,-0.001 -0.19211,-0.002 -0.0407,0.0212 -0.0814,0.0424 -0.1221,0.0635 -0.0211,0.025 -0.0423,0.05 -0.0635,0.0749 -0.002,0.0201 -0.004,0.0402 -0.006,0.0602 0.0103,0.0245 0.0207,0.0489 0.0309,0.0733 0.0185,0.018 0.037,0.0359 0.0554,0.0537 0.038,0.002 0.076,0.004 0.11398,0.007 0.0266,-0.009 0.0532,-0.0184 0.0798,-0.0277 0.0332,-0.008 0.0663,-0.0162 0.0993,-0.0244 0.0217,-0.0124 0.0435,-0.0249 0.0651,-0.0375 0.0169,-0.002 0.0337,-0.003 0.0505,-0.005 0.031,0.004 0.0619,0.008 0.0928,0.0114 0.0397,0.002 0.0793,0.003 0.11885,0.005 0.0337,0.002 0.0674,0.003 0.10095,0.005 0.0304,-0.013 0.0608,-0.026 0.0912,-0.0391 0.0483,-0.005 0.0966,-0.01 0.1449,-0.0146 0.0277,-0.002 0.0553,-0.004 0.0829,-0.007 -0.0151,-0.1068 -0.03,-0.21365 -0.0451,-0.32055 z" />
    <path
       style="fill:none;stroke:#eeeeee;stroke-width:0.0242855;stroke-linecap:round;stroke-linejoin:round;stroke-opacity:1"
       d="m 174.8881,166.41136 c 0.007,-0.0764 0.0149,-0.1527 0.0223,-0.22912"
       id="path976"
       inkscape:path-effect="#path-effect978"
       inkscape:original-d="m 174.8881,166.41136 c 0.008,-0.0763 0.0149,-0.1527 0.0223,-0.22912" />
    <path
       style="fill:none;stroke:#eeeeee;stroke-width:0.0485708;stroke-linecap:round;stroke-linejoin:round;stroke-dasharray:none;stroke-opacity:1"
       d="m 174.48535,166.3161 c 0.0114,-0.008 0.0342,-0.0238 0.0587,-0.0317 0.0245,-0.008 0.0506,-0.008 0.0793,-0.005 0.0287,0.003 0.0602,0.0102 0.0871,0.0209 0.0269,0.0107 0.0491,0.0252 0.063,0.0346 0.0139,0.009 0.0192,0.0137 0.0168,0.0175 -0.002,0.004 -0.0129,0.007 -0.0298,0.0121 -0.0168,0.005 -0.04,0.0114 -0.0609,0.015 -0.0209,0.004 -0.0393,0.004 -0.0576,0.008 -0.0183,0.004 -0.0361,0.0101 -0.0486,0.0147 -0.0125,0.005 -0.0194,0.007 -0.0324,0.008 -0.013,8.7e-4 -0.032,-1.3e-4 -0.0439,-0.004 -0.0119,-0.004 -0.0171,-0.0105 -0.0222,-0.0175 -0.005,-0.007 -0.0105,-0.0145 -0.0141,-0.0254 -0.004,-0.0109 -0.005,-0.0249 -0.006,-0.032 -8.4e-4,-0.007 -5.4e-4,-0.008 0.0108,-0.0157 z"
       id="path980"
       inkscape:path-effect="#path-effect982"
       inkscape:original-d="m 174.47397,166.32402 c 0.0228,-0.0158 0.0456,-0.0317 0.0684,-0.0476 0.0261,5e-5 0.0522,5e-5 0.0781,0 0.0315,0.007 0.063,0.0137 0.0944,0.0204 0.0223,0.0146 0.0446,0.0291 0.0667,0.0435 0.006,0.004 0.0108,0.009 0.0163,0.013 -0.0103,0.003 -0.0206,0.007 -0.0309,0.01 -0.0233,0.007 -0.0466,0.0131 -0.07,0.0195 -0.0184,5.5e-4 -0.0368,10e-4 -0.0554,0.002 -0.0178,0.007 -0.0358,0.0131 -0.0537,0.0195 -0.007,0.003 -0.0141,0.005 -0.0212,0.008 -0.0189,-0.001 -0.0379,-0.002 -0.057,-0.003 -0.005,-0.006 -0.01,-0.013 -0.0147,-0.0195 -0.005,-0.008 -0.0108,-0.0152 -0.0163,-0.0228 -0.002,-0.0141 -0.003,-0.0282 -0.005,-0.0423 z" />
    <path
       style="fill:none;stroke:#eeeeee;stroke-width:0.194283;stroke-linecap:butt;stroke-linejoin:round;stroke-dasharray:none;stroke-opacity:1"
       d="m 184.91603,166.23407 c 0.15142,0.0129 0.3028,0.0257 0.45411,0.0386"
       id="path3440"
       inkscape:path-effect="#path-effect3442"
       inkscape:original-d="m 184.91603,166.23407 c 0.15142,0.0129 0.30279,0.0258 0.45411,0.0386" />
    <circle
       style="fill:none;stroke:#eeeeee;stroke-width:0.0553809;stroke-linecap:butt;stroke-linejoin:round;stroke-dasharray:none;stroke-opacity:1"
       id="path3446"
       cx="185.54254"
       cy="166.27269"
       r="0.17240304" />
    <circle
       style="fill:none;stroke:#eeeeee;stroke-width:0.0553809;stroke-linecap:butt;stroke-linejoin:round;stroke-dasharray:none;stroke-opacity:1"
       id="path3446-1"
       cx="184.64116"
       cy="167.16327"
       r="0.17240304" />
    <path
       style="fill:none;stroke:#eeeeee;stroke-width:0.194283;stroke-linecap:butt;stroke-linejoin:round;stroke-dasharray:none;stroke-opacity:1"
       d="m 185.54256,166.44509 c -0.0443,0.19006 -0.0885,0.3801 -0.17097,0.50981 -0.0824,0.12972 -0.20304,0.19916 -0.34558,0.26678 -0.14253,0.0676 -0.30703,0.13341 -0.48795,0.19737 -0.18092,0.064 -0.37828,0.12609 -0.58661,0.1663 -0.20833,0.0402 -0.42764,0.0585 -0.92655,0.0694 -0.49892,0.011 -1.27743,0.0146 -1.8933,0.006 -0.61588,-0.009 -1.06909,-0.0311 -1.48211,-0.053 -0.41303,-0.0219 -0.78583,-0.0439 -1.31304,-0.0909 -0.52722,-0.047 -1.20884,-0.11907 -1.59206,-0.15052 -0.38322,-0.0315 -0.46805,-0.0223 -0.53569,0.002 -0.0676,0.0241 -0.11809,0.063 -0.15363,0.10431 -0.0355,0.0413 -0.0562,0.0849 -0.0596,0.13987 -0.003,0.055 0.0104,0.12152 0.0436,0.17654 0.0333,0.055 0.086,0.0986 0.16739,0.1467 0.0814,0.0481 0.19141,0.10085 0.31464,0.13062 0.12324,0.0298 0.25966,0.0366 0.60024,0.0395 0.34057,0.003 0.88526,0.002 1.42151,9e-5 0.53625,-0.002 1.06403,-0.005 1.51341,-0.009 0.44939,-0.004 0.82033,-0.01 1.14339,-0.0116 0.32307,-0.002 0.59823,1.8e-4 0.81939,0.005 0.22117,0.005 0.38835,0.0137 0.59214,0.0349 0.20379,0.0211 0.44422,0.055 0.63673,0.0765 0.1925,0.0216 0.33715,0.031 0.4339,0.0423 0.0967,0.0113 0.14556,0.0244 0.1991,0.0446 0.0535,0.0202 0.11173,0.0474 0.15963,0.0751 0.0479,0.0277 0.0855,0.0559 0.11647,0.0864 0.031,0.0305 0.0554,0.0634 0.0733,0.0949 0.0178,0.0315 0.0291,0.0615 0.0319,0.0953 0.003,0.0338 -0.003,0.0714 -0.0301,0.10333 -0.0272,0.0319 -0.076,0.0582 -0.2244,0.0976 -0.14839,0.0395 -0.39633,0.0921 -0.54568,0.12587 -0.14934,0.0338 -0.20002,0.0488 -0.25076,0.0639"
       id="path9274"
       inkscape:path-effect="#path-effect9276"
       inkscape:original-d="m 185.54256,166.44509 c -0.0442,0.19008 -0.0885,0.38011 -0.1328,0.57009 -0.12057,0.0695 -0.24118,0.13894 -0.36185,0.20834 -0.16442,0.0658 -0.32891,0.13162 -0.49343,0.19737 -0.19732,0.0622 -0.39468,0.12432 -0.59212,0.1864 -0.21924,0.0183 -0.43854,0.0366 -0.65789,0.0548 -0.77849,0.004 -1.557,0.007 -2.33558,0.011 -0.45317,-0.0219 -0.90638,-0.0438 -1.35966,-0.0658 -0.37277,-0.0219 -0.74557,-0.0438 -1.11843,-0.0658 -0.68158,-0.072 -1.36319,-0.14409 -2.04485,-0.2162 -0.0848,0.009 -0.1696,0.0184 -0.25447,0.0275 -0.0504,0.039 -0.10082,0.078 -0.1513,0.11691 -0.0206,0.0436 -0.0412,0.0872 -0.0619,0.13067 0.0138,0.0665 0.0276,0.13301 0.0413,0.19944 0.0528,0.0436 0.1055,0.0872 0.15818,0.13067 0.11009,0.0528 0.22013,0.1055 0.33011,0.15818 0.13649,0.007 0.27292,0.0137 0.40931,0.0205 0.54476,-9.2e-4 1.08945,-0.002 1.6341,-0.003 0.52785,-0.003 1.05563,-0.006 1.58339,-0.008 0.371,-0.006 0.74195,-0.0112 1.11287,-0.0169 0.27521,0.002 0.55037,0.004 0.8255,0.006 0.16722,0.008 0.33438,0.017 0.50149,0.0254 0.24046,0.0339 0.48089,0.0677 0.72125,0.10143 0.14469,0.009 0.28931,0.0188 0.43389,0.0282 0.0489,0.0132 0.0977,0.0264 0.1465,0.0394 0.0583,0.0273 0.11649,0.0545 0.17469,0.0817 0.0376,0.0282 0.0752,0.0564 0.11269,0.0845 0.0245,0.0329 0.0489,0.0658 0.0733,0.0986 0.0114,0.0301 0.0226,0.0602 0.0338,0.0902 -0.005,0.0376 -0.0112,0.0752 -0.0169,0.11269 -0.0488,0.0264 -0.0976,0.0526 -0.14652,0.0789 -0.24788,0.0526 -0.49581,0.10523 -0.74379,0.15778 -0.0507,0.0151 -0.10139,0.0301 -0.15214,0.0451" />
    <path
       style="fill:none;stroke:#eeeeee;stroke-width:0.194283;stroke-linecap:butt;stroke-linejoin:round;stroke-dasharray:none;stroke-opacity:1"
       d="m 183.50869,169.00426 c -0.23497,-0.004 -0.70493,-0.0124 -1.20713,-0.0522 -0.50221,-0.0398 -1.03662,-0.11126 -1.47765,-0.17018 -0.44102,-0.0589 -0.78862,-0.10535 -1.05349,-0.12856 -0.26488,-0.0232 -0.44698,-0.0232 -0.72195,-0.0357 -0.27496,-0.0125 -0.64277,-0.0375 -0.95881,-0.05 -0.31604,-0.0125 -0.58029,-0.0125 -0.766,0.0143 -0.1857,0.0268 -0.29283,0.0803 -0.36785,0.14821 -0.075,0.0679 -0.11784,0.14997 -0.14999,0.21427 -0.0322,0.0643 -0.0536,0.11079 -0.0554,0.18045 -0.002,0.0697 0.0161,0.16243 0.13575,0.23381 0.11965,0.0714 0.34105,0.12138 0.78385,0.13209 0.44281,0.0107 1.107,-0.0179 1.67658,-0.0554 0.56958,-0.0375 1.04451,-0.0839 1.4641,-0.13035 0.4196,-0.0464 0.78382,-0.0928 1.26343,-0.14227 0.47962,-0.0494 1.07457,-0.10188 1.37202,-0.1281 0.29746,-0.0262 0.29746,-0.0262 0.0625,-0.0303 z"
       id="path9278"
       inkscape:path-effect="#path-effect9280"
       inkscape:original-d="m 183.74365,169.00839 c -0.46993,-0.008 -0.93989,-0.0165 -1.40993,-0.0248 -0.53437,-0.0714 -1.06879,-0.14279 -1.60327,-0.21426 -0.34756,-0.0464 -0.69516,-0.0928 -1.04284,-0.13927 -0.18207,5e-5 -0.36417,5e-5 -0.54635,0 -0.36776,-0.0249 -0.73557,-0.0499 -1.10343,-0.075 -0.26421,5e-5 -0.52846,5e-5 -0.79277,0 -0.10708,0.0536 -0.2142,0.10718 -0.32139,0.1607 -0.0428,0.0822 -0.0856,0.16431 -0.12856,0.24639 -0.0214,0.0465 -0.0428,0.093 -0.0643,0.13936 0.018,0.0929 0.0358,0.18568 0.0536,0.27845 0.22145,0.05 0.44284,0.10004 0.66419,0.14998 0.66427,-0.0285 1.32846,-0.0571 1.99262,-0.0857 0.475,-0.0464 0.94993,-0.0928 1.42482,-0.13927 0.3643,-0.0464 0.72853,-0.0928 1.09273,-0.13927 0.59502,-0.0524 1.18997,-0.10484 1.78488,-0.15733 z" />
    <text
       xml:space="preserve"
       style="font-size:1.29522px;letter-spacing:0.203998px;fill:#eeeeef;fill-opacity:1;stroke:#eeeeee;stroke-width:0;stroke-linecap:butt;stroke-linejoin:round;stroke-dasharray:none;stroke-opacity:1"
       x="177.03712"
       y="166.63191"
       id="text10872"><tspan
         sodipodi:role="line"
         id="tspan10870"
         style="fill:#eeeeef;fill-opacity:1;stroke:#eeeeee;stroke-width:0;stroke-dasharray:none;stroke-opacity:1"
         x="177.03712"
         y="166.63191">RESCUE</tspan></text>
    <rect
       style="fill:none;stroke:#eeeeee;stroke-width:0.182651;stroke-linecap:butt;stroke-linejoin:round;stroke-dasharray:none;stroke-opacity:1"
       id="rect13830"
       width="13.046515"
       height="13.046515"
       x="173.43861"
       y="160.85387"
       ry="2.4361174" />
  </g>
</svg>
