<?xml version="1.0" encoding="UTF-8" standalone="no"?>
<!-- Created with Inkscape (http://www.inkscape.org/) -->

<svg
   width="14.553608mm"
   height="14.553608mm"
   viewBox="0 0 14.553608 14.553608"
   version="1.1"
   id="svg5"
   xml:space="preserve"
   sodipodi:docname="parasolka1.svg"
   inkscape:version="1.2.2 (b0a84865, 2022-12-01)"
   inkscape:export-filename="wezel.svg"
   inkscape:export-xdpi="96"
   inkscape:export-ydpi="96"
   xmlns:inkscape="http://www.inkscape.org/namespaces/inkscape"
   xmlns:sodipodi="http://sodipodi.sourceforge.net/DTD/sodipodi-0.dtd"
   xmlns="http://www.w3.org/2000/svg"
   xmlns:svg="http://www.w3.org/2000/svg"><sodipodi:namedview
     id="namedview3408"
     pagecolor="#ffffff"
     bordercolor="#000000"
     borderopacity="0.25"
     inkscape:showpageshadow="2"
     inkscape:pageopacity="0.0"
     inkscape:pagecheckerboard="0"
     inkscape:deskcolor="#d1d1d1"
     inkscape:document-units="mm"
     showgrid="false"
     showguides="true"
     inkscape:zoom="8.0236415"
     inkscape:cx="16.576015"
     inkscape:cy="21.187387"
     inkscape:window-width="1440"
     inkscape:window-height="900"
     inkscape:window-x="0"
     inkscape:window-y="0"
     inkscape:window-maximized="0"
     inkscape:current-layer="g1538"><sodipodi:guide
       position="8.3829785,8.9867746"
       orientation="0,-1"
       id="guide5808"
       inkscape:locked="false" /></sodipodi:namedview><defs
     id="defs2"><inkscape:path-effect
       effect="bspline"
       id="path-effect1375"
       is_visible="true"
       lpeversion="1"
       weight="33.333333"
       steps="2"
       helper_size="0"
       apply_no_weight="true"
       apply_with_weight="true"
       only_selected="false" /><inkscape:path-effect
       effect="bspline"
       id="path-effect1375-7"
       is_visible="true"
       lpeversion="1"
       weight="33.333333"
       steps="2"
       helper_size="0"
       apply_no_weight="true"
       apply_with_weight="true"
       only_selected="false" /><inkscape:path-effect
       effect="bspline"
       id="path-effect1433"
       is_visible="true"
       lpeversion="1"
       weight="33.333333"
       steps="2"
       helper_size="0"
       apply_no_weight="true"
       apply_with_weight="true"
       only_selected="false" /><inkscape:path-effect
       effect="bspline"
       id="path-effect1433-2"
       is_visible="true"
       lpeversion="1"
       weight="33.333333"
       steps="2"
       helper_size="0"
       apply_no_weight="true"
       apply_with_weight="true"
       only_selected="false" /><inkscape:path-effect
       effect="bspline"
       id="path-effect1437"
       is_visible="true"
       lpeversion="1"
       weight="33.333333"
       steps="2"
       helper_size="0"
       apply_no_weight="true"
       apply_with_weight="true"
       only_selected="false" /><inkscape:path-effect
       effect="bspline"
       id="path-effect1437-6"
       is_visible="true"
       lpeversion="1"
       weight="33.333333"
       steps="2"
       helper_size="0"
       apply_no_weight="true"
       apply_with_weight="true"
       only_selected="false" /><inkscape:path-effect
       effect="bspline"
       id="path-effect1441"
       is_visible="true"
       lpeversion="1"
       weight="33.333333"
       steps="2"
       helper_size="0"
       apply_no_weight="true"
       apply_with_weight="true"
       only_selected="false" /><inkscape:path-effect
       effect="bspline"
       id="path-effect1445"
       is_visible="true"
       lpeversion="1"
       weight="33.333333"
       steps="2"
       helper_size="0"
       apply_no_weight="true"
       apply_with_weight="true"
       only_selected="false" /><inkscape:path-effect
       effect="bspline"
       id="path-effect1449"
       is_visible="true"
       lpeversion="1"
       weight="33.333333"
       steps="2"
       helper_size="0"
       apply_no_weight="true"
       apply_with_weight="true"
       only_selected="false" /></defs><g
     id="layer1"
     transform="translate(-62.082411,-100.5729)"><circle
       style="fill:none;stroke:#eeeeee;stroke-width:0.185208;stroke-dasharray:none;stroke-opacity:1"
       id="path234"
       cx="69.359215"
       cy="107.84971"
       r="7.1841998" /><g
       id="g1538"
       transform="matrix(2.1728676,0,0,2.1728676,-49.430433,-124.22197)"
       style="stroke-width:0.0608835;stroke-dasharray:none"><path
         style="opacity:1;fill:none;stroke:#eeeeee;stroke-width:0.0608835;stroke-linecap:round;stroke-linejoin:round;stroke-dasharray:none"
         d="m 55.178614,106.32684 c 0.162216,-0.0927 0.324326,-0.18533 0.463308,-0.25713 0.138982,-0.0718 0.254776,-0.12275 0.342831,-0.15285 0.08806,-0.0301 0.148278,-0.0394 0.220115,-0.0324 0.07184,0.007 0.155221,0.0302 0.240905,0.0626 0.08568,0.0325 0.173698,0.0742 0.238509,0.12054 0.06481,0.0464 0.106505,0.0973 0.141184,0.1622 0.03468,0.0649 0.06247,0.14361 0.08096,0.22464 0.01849,0.081 0.02775,0.16444 0.0254,0.24581 -0.0024,0.0814 -0.01624,0.1607 -0.03477,0.22316 -0.01853,0.0625 -0.0417,0.10816 -0.08568,0.15875 -0.04399,0.0506 -0.108804,0.10615 -0.173643,0.1571 -0.06484,0.0509 -0.129673,0.0973 -0.206009,0.12275 -0.07634,0.0255 -0.164357,0.0301 -0.247689,0.0209 -0.08333,-0.009 -0.162084,-0.0324 -0.266303,-0.0764 -0.104219,-0.044 -0.233909,-0.10882 -0.345098,-0.17334 -0.111189,-0.0645 -0.203802,-0.1287 -0.266353,-0.16091 -0.06255,-0.0322 -0.09497,-0.0322 -0.127661,-0.0322"
         id="path1373"
         inkscape:path-effect="#path-effect1375"
         inkscape:original-d="m 55.178614,106.32684 c 0.162385,-0.0924 0.324503,-0.18502 0.48636,-0.27792 0.116067,-0.0507 0.231865,-0.10164 0.3474,-0.15286 0.06048,-0.009 0.120698,-0.0183 0.18065,-0.0278 0.08364,0.0234 0.167015,0.0466 0.250129,0.0695 0.08827,0.0419 0.176279,0.0836 0.264022,0.12506 0.04196,0.0512 0.08364,0.10217 0.125066,0.15286 0.02806,0.079 0.05585,0.15775 0.08338,0.23623 0.0095,0.0836 0.01878,0.16702 0.02779,0.25013 -0.01363,0.0797 -0.02753,0.15903 -0.04169,0.23815 -0.02289,0.0459 -0.04606,0.0916 -0.06948,0.13704 -0.06459,0.0559 -0.129431,0.11143 -0.194545,0.16675 -0.06459,0.0466 -0.129432,0.0929 -0.194543,0.13897 -0.08775,0.005 -0.175752,0.01 -0.264025,0.0139 -0.07848,-0.0229 -0.157224,-0.0461 -0.236233,-0.0695 -0.129435,-0.0646 -0.259128,-0.12944 -0.389089,-0.19455 -0.09238,-0.064 -0.185015,-0.12816 -0.277921,-0.19263 -0.03216,2.7e-4 -0.06458,2.7e-4 -0.09727,0" /><path
         style="fill:none;stroke:#eeeeee;stroke-width:0.0608835;stroke-linecap:round;stroke-linejoin:round;stroke-dasharray:none"
         d="m 54.143363,106.32684 c -0.162216,-0.0927 -0.324326,-0.18533 -0.463308,-0.25713 -0.138982,-0.0718 -0.254776,-0.12275 -0.342831,-0.15285 -0.08805,-0.0301 -0.148278,-0.0394 -0.220115,-0.0324 -0.07184,0.007 -0.155221,0.0302 -0.240905,0.0626 -0.08568,0.0325 -0.173698,0.0742 -0.238509,0.12054 -0.06481,0.0464 -0.106505,0.0973 -0.141184,0.1622 -0.03468,0.0649 -0.06247,0.14361 -0.08096,0.22464 -0.01849,0.081 -0.02775,0.16444 -0.0254,0.24581 0.0024,0.0814 0.01624,0.1607 0.03477,0.22316 0.01853,0.0625 0.0417,0.10816 0.08568,0.15875 0.04399,0.0506 0.108804,0.10615 0.173643,0.1571 0.06484,0.0509 0.129673,0.0973 0.206009,0.12275 0.07634,0.0255 0.164357,0.0301 0.247689,0.0209 0.08333,-0.009 0.162084,-0.0324 0.266303,-0.0764 0.104219,-0.044 0.233909,-0.10882 0.345098,-0.17334 0.111189,-0.0645 0.203802,-0.1287 0.266353,-0.16091 0.06255,-0.0322 0.09497,-0.0322 0.127661,-0.0322"
         id="path1373-6"
         inkscape:path-effect="#path-effect1375-7"
         inkscape:original-d="m 54.143363,106.32684 c -0.162385,-0.0924 -0.324503,-0.18502 -0.48636,-0.27792 -0.116067,-0.0507 -0.231865,-0.10164 -0.3474,-0.15286 -0.06048,-0.009 -0.120698,-0.0183 -0.18065,-0.0278 -0.08364,0.0234 -0.167015,0.0466 -0.250129,0.0695 -0.08827,0.0419 -0.176279,0.0836 -0.264022,0.12506 -0.04196,0.0512 -0.08364,0.10217 -0.125066,0.15286 -0.02806,0.079 -0.05585,0.15775 -0.08338,0.23623 -0.0095,0.0836 -0.01878,0.16702 -0.02779,0.25013 0.01363,0.0797 0.02753,0.15903 0.04169,0.23815 0.02289,0.0459 0.04606,0.0916 0.06948,0.13704 0.06459,0.0559 0.129431,0.11143 0.194545,0.16675 0.06459,0.0466 0.129432,0.0929 0.194543,0.13897 0.08775,0.005 0.175752,0.01 0.264025,0.0139 0.07848,-0.0229 0.157224,-0.0461 0.236233,-0.0695 0.129435,-0.0646 0.259128,-0.12944 0.389089,-0.19455 0.09238,-0.064 0.185015,-0.12816 0.277921,-0.19263 0.03216,2.7e-4 0.06458,2.7e-4 0.09727,0" /><path
         style="opacity:1;fill:none;stroke:#eeeeee;stroke-width:0.0608835;stroke-linecap:round;stroke-linejoin:round;stroke-dasharray:none"
         d="m 55.24067,106.47424 c 0.03624,0.0302 0.108433,0.0903 0.211004,0.1518 0.102571,0.0615 0.235473,0.12442 0.337208,0.1753 0.101735,0.0509 0.172286,0.0897 0.241201,0.12084 0.06892,0.0311 0.136178,0.0547 0.20176,0.0631 0.06558,0.008 0.129608,0.002 0.18284,-0.0154 0.05323,-0.0172 0.09589,-0.0451 0.130298,-0.0885 0.0344,-0.0434 0.06066,-0.10247 0.07219,-0.15246 0.01153,-0.05 0.0083,-0.091 9.13e-4,-0.13936 -0.0074,-0.0484 -0.01884,-0.10418 -0.03763,-0.14686 -0.01878,-0.0427 -0.04502,-0.0722 -0.0778,-0.0969 -0.03278,-0.0247 -0.07216,-0.0444 -0.114816,-0.0576 -0.04266,-0.0132 -0.08864,-0.0198 -0.1412,-0.0173 -0.05256,0.002 -0.111602,0.0139 -0.164987,0.0328 -0.05338,0.0189 -0.100979,0.0452 -0.146118,0.0739 -0.04514,0.0287 -0.08781,0.0599 -0.135369,0.0878 -0.04756,0.0279 -0.100063,0.0525 -0.145148,0.0697 -0.04509,0.0172 -0.08283,0.0271 -0.116405,0.0361 -0.03357,0.009 -0.06324,0.0172 -0.118136,-0.004 -0.05489,-0.0212 -0.135294,-0.0721 -0.175648,-0.0976 -0.04035,-0.0255 -0.0404,-0.0254 -0.0042,0.005 z"
         id="path1431"
         inkscape:path-effect="#path-effect1433"
         inkscape:original-d="m 55.204428,106.44405 c 0.07246,0.0604 0.144655,0.12052 0.216587,0.18039 0.133176,0.0632 0.266079,0.12613 0.398722,0.1888 0.07082,0.0391 0.141378,0.0779 0.211667,0.11644 0.06754,0.0238 0.134813,0.0473 0.201821,0.0706 0.06426,-0.006 0.128252,-0.0129 0.191979,-0.0197 0.04293,-0.0276 0.08559,-0.0555 0.127985,-0.0837 0.02652,-0.0588 0.05277,-0.11787 0.07876,-0.17721 -0.003,-0.0408 -0.0063,-0.0818 -0.0098,-0.12306 -0.01122,-0.0555 -0.0227,-0.11131 -0.03446,-0.16736 -0.02598,-0.0293 -0.05224,-0.0588 -0.07876,-0.0886 -0.03912,-0.0194 -0.0785,-0.0391 -0.118141,-0.0591 -0.04568,-0.006 -0.09162,-0.0129 -0.13783,-0.0197 -0.05881,0.0118 -0.117874,0.0232 -0.17721,0.0345 -0.04732,0.0265 -0.0949,0.0528 -0.14275,0.0788 -0.0424,0.0314 -0.08506,0.0626 -0.127985,0.0935 -0.05224,0.0249 -0.104748,0.0495 -0.157519,0.0738 -0.03748,0.0101 -0.07521,0.02 -0.113218,0.0295 -0.02927,0.008 -0.05881,0.0167 -0.0886,0.0246 -0.08014,-0.0506 -0.160538,-0.10147 -0.241202,-0.1526 z" /><path
         style="fill:none;stroke:#eeeeee;stroke-width:0.0608835;stroke-linecap:round;stroke-linejoin:round;stroke-dasharray:none"
         d="m 54.117053,106.53217 c -0.03624,0.0302 -0.108433,0.0903 -0.211004,0.1518 -0.102571,0.0615 -0.235473,0.12442 -0.337208,0.1753 -0.101735,0.0509 -0.172286,0.0897 -0.241201,0.12084 -0.06892,0.0311 -0.136178,0.0547 -0.20176,0.0631 -0.06558,0.008 -0.129608,0.002 -0.18284,-0.0154 -0.05323,-0.0172 -0.09589,-0.0451 -0.130298,-0.0885 -0.0344,-0.0434 -0.06066,-0.10247 -0.07219,-0.15246 -0.01153,-0.05 -0.0083,-0.091 -9.13e-4,-0.13936 0.0074,-0.0484 0.01884,-0.10418 0.03763,-0.14686 0.01878,-0.0427 0.04502,-0.0722 0.0778,-0.0969 0.03278,-0.0247 0.07216,-0.0444 0.114816,-0.0576 0.04266,-0.0132 0.08864,-0.0198 0.1412,-0.0173 0.05256,0.002 0.111602,0.0139 0.164987,0.0328 0.05338,0.0189 0.100979,0.0452 0.146118,0.0739 0.04514,0.0287 0.08781,0.0599 0.135369,0.0878 0.04756,0.0279 0.100063,0.0525 0.145148,0.0697 0.04509,0.0172 0.08283,0.0271 0.116405,0.0361 0.03357,0.009 0.06324,0.0172 0.118136,-0.004 0.05489,-0.0212 0.135294,-0.0721 0.175648,-0.0976 0.04035,-0.0255 0.0404,-0.0254 0.0042,0.005 z"
         id="path1431-7"
         inkscape:path-effect="#path-effect1433-2"
         inkscape:original-d="m 54.153295,106.50198 c -0.07246,0.0604 -0.144655,0.12052 -0.216587,0.18039 -0.133176,0.0632 -0.266079,0.12613 -0.398722,0.1888 -0.07082,0.0391 -0.141378,0.0779 -0.211667,0.11644 -0.06754,0.0238 -0.134813,0.0473 -0.201821,0.0706 -0.06426,-0.006 -0.128252,-0.0129 -0.191979,-0.0197 -0.04293,-0.0276 -0.08559,-0.0555 -0.127985,-0.0837 -0.02652,-0.0588 -0.05277,-0.11787 -0.07876,-0.17721 0.003,-0.0408 0.0063,-0.0818 0.0098,-0.12306 0.01122,-0.0555 0.0227,-0.11131 0.03446,-0.16736 0.02598,-0.0293 0.05224,-0.0588 0.07876,-0.0886 0.03912,-0.0194 0.0785,-0.0391 0.118141,-0.0591 0.04568,-0.006 0.09162,-0.0129 0.13783,-0.0197 0.05881,0.0118 0.117874,0.0232 0.17721,0.0345 0.04732,0.0265 0.0949,0.0528 0.14275,0.0788 0.0424,0.0314 0.08506,0.0626 0.127985,0.0935 0.05224,0.0249 0.104748,0.0495 0.157519,0.0738 0.03748,0.0101 0.07521,0.02 0.113218,0.0295 0.02927,0.008 0.05881,0.0167 0.0886,0.0246 0.08014,-0.0506 0.160538,-0.10147 0.241202,-0.1526 z" /><path
         style="opacity:1;fill:none;stroke:#eeeeee;stroke-width:0.0608835;stroke-linecap:round;stroke-linejoin:round;stroke-dasharray:none"
         d="m 55.178614,106.01737 c 0.131332,-0.0903 0.262589,-0.18053 0.385675,-0.25191 0.123086,-0.0714 0.237959,-0.1239 0.349593,-0.1567 0.111634,-0.0328 0.219924,-0.0459 0.343791,-0.0418 0.123866,0.004 0.263225,0.0255 0.369884,0.0592 0.10666,0.0337 0.180625,0.0797 0.256941,0.1437 0.07632,0.064 0.155074,0.14607 0.214122,0.21912 0.05905,0.0731 0.09841,0.13701 0.131177,0.20838 0.03277,0.0714 0.05903,0.15015 0.07623,0.22399 0.01719,0.0738 0.02539,0.14273 0.02044,0.26412 -0.005,0.12139 -0.023,0.29532 -0.06813,0.43141 -0.04512,0.13609 -0.11733,0.23455 -0.211655,0.32969 -0.09432,0.0951 -0.210799,0.18701 -0.330504,0.24689 -0.119705,0.0599 -0.242766,0.0878 -0.38112,0.0944 -0.138355,0.007 -0.2921,-0.008 -0.424167,-0.0393 -0.132066,-0.0311 -0.2425,-0.0787 -0.35761,-0.13366 -0.11511,-0.055 -0.234886,-0.11731 -0.35498,-0.17982"
         id="path1435"
         inkscape:path-effect="#path-effect1437"
         inkscape:original-d="m 55.178614,106.01737 c 0.131532,-0.09 0.262797,-0.18023 0.3938,-0.27074 0.115123,-0.0522 0.229979,-0.10475 0.344572,-0.15752 0.108562,-0.0129 0.216856,-0.026 0.324885,-0.0394 0.139634,0.0216 0.278998,0.0429 0.418097,0.064 0.07421,0.0462 0.148151,0.0922 0.221827,0.13784 0.07903,0.0823 0.157784,0.16434 0.236281,0.24612 0.03965,0.0643 0.07902,0.12825 0.118139,0.19197 0.02652,0.079 0.05277,0.15779 0.07876,0.23629 0.0085,0.0692 0.01667,0.13809 0.02461,0.20674 -0.01778,0.17419 -0.03584,0.34812 -0.05415,0.52178 -0.07193,0.0987 -0.144127,0.19717 -0.216588,0.29535 -0.116237,0.0922 -0.232733,0.18404 -0.349496,0.27566 -0.122801,0.0282 -0.245861,0.0561 -0.369186,0.0837 -0.153485,-0.0145 -0.307227,-0.0293 -0.461235,-0.0443 -0.110167,-0.0473 -0.220594,-0.0949 -0.331288,-0.14275 -0.119517,-0.0621 -0.239297,-0.12444 -0.359341,-0.18705" /><path
         style="fill:none;stroke:#eeeeee;stroke-width:0.0608835;stroke-linecap:round;stroke-linejoin:round;stroke-dasharray:none"
         d="m 54.143363,105.95867 c -0.131332,-0.0903 -0.262589,-0.18053 -0.385675,-0.25191 -0.123086,-0.0714 -0.237959,-0.1239 -0.349593,-0.1567 -0.111634,-0.0328 -0.219924,-0.0459 -0.343791,-0.0418 -0.123866,0.004 -0.263225,0.0255 -0.369884,0.0592 -0.10666,0.0337 -0.180625,0.0797 -0.256941,0.1437 -0.07632,0.064 -0.155074,0.14607 -0.214122,0.21912 -0.05905,0.0731 -0.09841,0.13701 -0.131177,0.20838 -0.03277,0.0714 -0.05903,0.15015 -0.07623,0.22399 -0.01719,0.0738 -0.02539,0.14273 -0.02044,0.26412 0.005,0.12139 0.023,0.29532 0.06813,0.43141 0.04512,0.13609 0.11733,0.23455 0.211655,0.32969 0.09432,0.0951 0.210799,0.18701 0.330504,0.24689 0.119705,0.0599 0.242766,0.0878 0.38112,0.0944 0.138355,0.007 0.2921,-0.008 0.424167,-0.0393 0.132066,-0.0311 0.2425,-0.0787 0.35761,-0.13366 0.11511,-0.055 0.234886,-0.11731 0.35498,-0.17982"
         id="path1435-5"
         inkscape:path-effect="#path-effect1437-6"
         inkscape:original-d="m 54.143363,105.95867 c -0.131532,-0.09 -0.262797,-0.18023 -0.3938,-0.27074 -0.115123,-0.0522 -0.229979,-0.10475 -0.344572,-0.15752 -0.108562,-0.0129 -0.216856,-0.026 -0.324885,-0.0394 -0.139634,0.0216 -0.278998,0.0429 -0.418097,0.064 -0.07421,0.0462 -0.148151,0.0922 -0.221827,0.13784 -0.07903,0.0823 -0.157784,0.16434 -0.236281,0.24612 -0.03965,0.0643 -0.07902,0.12825 -0.118139,0.19197 -0.02652,0.079 -0.05277,0.15779 -0.07876,0.23629 -0.0085,0.0692 -0.01667,0.13809 -0.02461,0.20674 0.01778,0.17419 0.03584,0.34812 0.05415,0.52178 0.07193,0.0987 0.144127,0.19717 0.216588,0.29535 0.116237,0.0922 0.232733,0.18404 0.349496,0.27566 0.122801,0.0282 0.245861,0.0561 0.369186,0.0837 0.153485,-0.0145 0.307227,-0.0293 0.461235,-0.0443 0.110167,-0.0473 0.220594,-0.0949 0.331288,-0.14275 0.119517,-0.0621 0.239297,-0.12444 0.359341,-0.18705" /><path
         style="opacity:1;fill:none;stroke:#eeeeee;stroke-width:0.0608835;stroke-linecap:round;stroke-linejoin:round;stroke-dasharray:none"
         d="m 54.12955,105.93956 c 0.02292,-0.0507 0.04589,-0.10161 0.08131,-0.13122 0.03542,-0.0296 0.08298,-0.0378 0.117452,-0.0308 0.03447,0.007 0.0558,0.0289 0.07297,0.0576 0.01717,0.0288 0.03031,0.0644 0.04409,0.0689 0.01378,0.005 0.02836,-0.0217 0.05303,-0.0513 0.02467,-0.0296 0.05928,-0.0624 0.0964,-0.078 0.03712,-0.0155 0.07651,-0.0139 0.112624,-0.006 0.03611,0.007 0.06892,0.0206 0.08932,0.0437 0.0204,0.0231 0.0286,0.0559 0.0392,0.0601 0.0106,0.004 0.02369,-0.0198 0.04182,-0.0396 0.01812,-0.0198 0.04109,-0.0351 0.06738,-0.0461 0.02629,-0.011 0.05589,-0.0175 0.0855,-0.0177 0.02961,-1.7e-4 0.05933,0.006 0.08201,0.017 0.02268,0.011 0.03845,0.0268 0.0476,0.0426 0.0092,0.0158 0.01192,0.0315 0.01836,0.49847 0.0064,0.467 0.01661,1.38523 0.02169,1.85873 0.0051,0.4735 0.0051,0.5022 -0.0051,0.52291 -0.01014,0.0207 -0.03051,0.0337 -0.0569,0.0443 -0.02639,0.0107 -0.05871,0.019 -0.08875,0.019 -0.03004,8e-5 -0.05786,-0.008 -0.08658,-0.0212 -0.02872,-0.0129 -0.05837,-0.0305 -0.0797,-0.0467 -0.02133,-0.0161 -0.03435,-0.031 -0.04049,-0.0528 -0.0061,-0.0218 -0.0052,-0.0505 -0.0061,-0.51103 -9.12e-4,-0.46053 -0.0037,-1.35283 -0.0064,-2.2454"
         id="path1439"
         inkscape:path-effect="#path-effect1441"
         inkscape:original-d="m 54.12955,105.93956 c 0.02323,-0.0506 0.04621,-0.10146 0.06892,-0.1526 0.04785,-0.008 0.09543,-0.0161 0.142754,-0.0246 0.02159,0.0221 0.04293,0.044 0.06399,0.0657 0.01339,0.0358 0.02652,0.0714 0.03938,0.10664 0.01487,-0.026 0.02949,-0.0522 0.04383,-0.0788 0.03488,-0.0326 0.06949,-0.0654 0.103843,-0.0984 0.03965,0.002 0.07903,0.004 0.118142,0.005 0.03308,0.0134 0.0659,0.0265 0.09845,0.0394 0.0085,0.0331 0.01667,0.0659 0.02461,0.0984 0.01339,-0.0238 0.02652,-0.0478 0.03938,-0.0722 0.02323,-0.0151 0.04621,-0.0304 0.06892,-0.046 0.0298,-0.006 0.05933,-0.0129 0.0886,-0.0197 0.02992,0.006 0.05957,0.0125 0.08896,0.0184 0.01601,0.016 0.03177,0.0318 0.04726,0.0473 0.003,0.016 0.0058,0.0317 0.0083,0.0472 0.01042,0.91854 0.02061,1.83677 0.0305,2.75477 2.65e-4,0.029 2.65e-4,0.0577 0,0.0862 -0.02011,0.0132 -0.04046,0.0262 -0.06108,0.0389 -0.03217,0.009 -0.0646,0.0169 -0.09729,0.025 -0.02753,-0.008 -0.05533,-0.0164 -0.08339,-0.025 -0.02939,-0.0173 -0.05904,-0.0349 -0.08895,-0.0528 -0.0127,-0.0145 -0.02569,-0.0294 -0.03892,-0.0445 0.0013,-0.0285 0.0021,-0.0572 0.0028,-0.0862 -0.0026,-0.89206 -0.0053,-1.78436 -0.0083,-2.67693" /><path
         style="opacity:1;fill:none;stroke:#eeeeee;stroke-width:0.0608835;stroke-linecap:round;stroke-linejoin:round;stroke-dasharray:none"
         d="m 54.848723,107.45638 c -0.02477,0.0307 -0.04946,0.0612 -0.06919,0.0816 -0.01973,0.0204 -0.03462,0.0306 -0.0502,0.0357 -0.01558,0.005 -0.03212,0.005 -0.05017,9e-5 -0.01805,-0.005 -0.0376,-0.0152 -0.06269,-0.0309 -0.02509,-0.0157 -0.05566,-0.037 -0.0785,-0.0413 -0.02284,-0.004 -0.03769,0.009 -0.05484,0.0244 -0.01714,0.0158 -0.03659,0.0343 -0.05873,0.0449 -0.02214,0.0106 -0.04718,0.0133 -0.06706,0.0156 -0.01988,0.002 -0.03472,0.004 -0.05647,-0.001 -0.02175,-0.005 -0.05048,-0.0184 -0.07691,-0.0364 -0.02643,-0.018 -0.05048,-0.0411 -0.06727,-0.0704 -0.01679,-0.0292 -0.02605,-0.0644 -0.02705,-0.31871 -9.96e-4,-0.25431 0.0064,-0.72766 0.01372,-1.20129"
         id="path1443"
         inkscape:path-effect="#path-effect1445"
         inkscape:original-d="m 54.848723,107.45638 c -0.02447,0.0309 -0.0492,0.0614 -0.07419,0.0918 -0.01455,0.0104 -0.02939,0.0207 -0.04448,0.0306 -0.0163,2.6e-4 -0.03284,2.6e-4 -0.04965,0 -0.01931,-0.01 -0.03891,-0.0201 -0.05876,-0.0306 -0.03031,-0.021 -0.06089,-0.0423 -0.09173,-0.0639 -0.01455,0.0132 -0.02939,0.0262 -0.04448,0.0389 -0.01918,0.0188 -0.03865,0.0373 -0.05837,0.0556 -0.02477,0.003 -0.04977,0.006 -0.07505,0.008 -0.01455,0.002 -0.02939,0.004 -0.04448,0.006 -0.02846,-0.0127 -0.05718,-0.0257 -0.08617,-0.0389 -0.02384,-0.0229 -0.04792,-0.046 -0.07227,-0.0695 -0.009,-0.035 -0.01826,-0.0702 -0.0278,-0.10567 0.0076,-0.4731 0.01498,-0.94645 0.02207,-1.42008" /><path
         style="opacity:1;fill:none;stroke:#eeeeee;stroke-width:0.0608835;stroke-linecap:round;stroke-linejoin:round;stroke-dasharray:none"
         d="m 54.488421,107.43748 c -0.0044,-0.49269 -0.0087,-0.98564 -0.0131,-1.47885"
         id="path1447"
         inkscape:path-effect="#path-effect1449"
         inkscape:original-d="m 54.488421,107.43748 c -0.0041,-0.49269 -0.0085,-0.98564 -0.0131,-1.47885" /></g></g></svg>
