<?xml version="1.0" encoding="UTF-8" standalone="no"?>
<!-- Created with Inkscape (http://www.inkscape.org/) -->

<svg
   width="14.48959mm"
   height="14.489586mm"
   viewBox="0 0 14.48959 14.489586"
   version="1.1"
   id="svg5"
   xml:space="preserve"
   inkscape:version="1.2.2 (b0a84865, 2022-12-01)"
   sodipodi:docname="drawing1.svg"
   inkscape:export-filename="drawing1.svg"
   inkscape:export-xdpi="96"
   inkscape:export-ydpi="96"
   xmlns:inkscape="http://www.inkscape.org/namespaces/inkscape"
   xmlns:sodipodi="http://sodipodi.sourceforge.net/DTD/sodipodi-0.dtd"
   xmlns="http://www.w3.org/2000/svg"
   xmlns:svg="http://www.w3.org/2000/svg"><sodipodi:namedview
     id="namedview7"
     pagecolor="#ffffff"
     bordercolor="#000000"
     borderopacity="0.25"
     inkscape:showpageshadow="2"
     inkscape:pageopacity="0.0"
     inkscape:pagecheckerboard="0"
     inkscape:deskcolor="#d1d1d1"
     inkscape:document-units="mm"
     showgrid="false"
     inkscape:zoom="5.1807998"
     inkscape:cx="28.663528"
     inkscape:cy="34.936691"
     inkscape:window-width="1440"
     inkscape:window-height="774"
     inkscape:window-x="0"
     inkscape:window-y="25"
     inkscape:window-maximized="0"
     inkscape:current-layer="layer1" /><defs
     id="defs2"><inkscape:path-effect
       effect="bspline"
       id="path-effect10224"
       is_visible="true"
       lpeversion="1"
       weight="33.333333"
       steps="2"
       helper_size="0"
       apply_no_weight="true"
       apply_with_weight="true"
       only_selected="false" /><inkscape:path-effect
       effect="bspline"
       id="path-effect10211"
       is_visible="true"
       lpeversion="1"
       weight="33.333333"
       steps="2"
       helper_size="0"
       apply_no_weight="true"
       apply_with_weight="true"
       only_selected="false" /><inkscape:path-effect
       effect="bspline"
       id="path-effect9357"
       is_visible="true"
       lpeversion="1"
       weight="33.333333"
       steps="2"
       helper_size="0"
       apply_no_weight="true"
       apply_with_weight="true"
       only_selected="false" /><inkscape:path-effect
       effect="bspline"
       id="path-effect9357-6"
       is_visible="true"
       lpeversion="1"
       weight="33.333333"
       steps="2"
       helper_size="0"
       apply_no_weight="true"
       apply_with_weight="true"
       only_selected="false" /><inkscape:path-effect
       effect="bspline"
       id="path-effect9357-3"
       is_visible="true"
       lpeversion="1"
       weight="33.333333"
       steps="2"
       helper_size="0"
       apply_no_weight="true"
       apply_with_weight="true"
       only_selected="false" /><inkscape:path-effect
       effect="bspline"
       id="path-effect9357-3-6"
       is_visible="true"
       lpeversion="1"
       weight="33.333333"
       steps="2"
       helper_size="0"
       apply_no_weight="true"
       apply_with_weight="true"
       only_selected="false" /><inkscape:path-effect
       effect="bspline"
       id="path-effect10224-5"
       is_visible="true"
       lpeversion="1"
       weight="33.333333"
       steps="2"
       helper_size="0"
       apply_no_weight="true"
       apply_with_weight="true"
       only_selected="false" /></defs><g
     inkscape:label="Layer 1"
     inkscape:groupmode="layer"
     id="layer1"
     transform="translate(-63.755628,-90.338094)"><circle
       style="opacity:1;fill:none;stroke:#eeeeee;stroke-width:0.185208;stroke-dasharray:none;stroke-opacity:1"
       id="path5355"
       cx="71.00042"
       cy="97.582886"
       r="7.1521883" /><ellipse
       style="opacity:1;fill:none;stroke:#eeeeee;stroke-width:0.132292;stroke-dasharray:none;stroke-opacity:1"
       id="path5409"
       cx="71.206665"
       cy="96.006561"
       rx="1.2370859"
       ry="1.4350197" /><path
       style="opacity:1;fill:none;stroke:#eeeeee;stroke-width:0.132292;stroke-dasharray:none;stroke-opacity:1"
       id="path5411"
       sodipodi:type="arc"
       sodipodi:cx="71.206665"
       sodipodi:cy="-99.989616"
       sodipodi:rx="1.3618574"
       sodipodi:ry="2.5328553"
       sodipodi:start="0"
       sodipodi:end="3.1415927"
       sodipodi:open="true"
       sodipodi:arc-type="arc"
       d="m 72.568522,-99.989616 a 1.3618574,2.5328553 0 0 1 -0.680928,2.193517 1.3618574,2.5328553 0 0 1 -1.361858,0 1.3618574,2.5328553 0 0 1 -0.680928,-2.193517"
       transform="scale(1,-1)" /><path
       style="opacity:1;fill:none;stroke:#eeeeee;stroke-width:0.132292;stroke-dasharray:none;stroke-opacity:1"
       d="m 65.862575,98.565147 c 0.127793,-0.04382 0.255527,-0.08762 0.401498,-0.0099 0.145972,0.07774 0.310291,0.276822 0.510978,0.347942 0.200688,0.07112 0.438238,0.0149 0.612825,-0.11349 0.174587,-0.128386 0.286005,-0.328615 0.511403,-0.269507 0.225398,0.05911 0.564049,0.377413 0.85854,0.40778 0.294492,0.03037 0.544204,-0.226579 0.794926,-0.484566"
       id="path9355"
       inkscape:path-effect="#path-effect9357"
       inkscape:original-d="m 65.862575,98.565147 c 0.127903,-0.0435 0.255636,-0.0873 0.383054,-0.131348 0.164444,0.19918 0.328762,0.398265 0.492546,0.596758 0.237637,-0.05592 0.475187,-0.112145 0.712698,-0.168688 0.111904,-0.200363 0.223322,-0.400592 0.334624,-0.601353 0.339172,0.31881 0.677823,0.637115 1.01649,0.955419 0.250592,-0.257316 0.500304,-0.514263 0.750758,-0.772511"
       sodipodi:nodetypes="ccccccc" /><path
       style="fill:none;stroke:#eeeeee;stroke-width:0.134519;stroke-dasharray:none;stroke-opacity:1"
       d="m 76.565935,98.565453 c -0.13249,-0.04371 -0.264913,-0.08739 -0.416238,-0.0099 -0.151325,0.07753 -0.321674,0.276089 -0.529729,0.34702 -0.208055,0.07093 -0.454324,0.01485 -0.635319,-0.113195 -0.180994,-0.12805 -0.296501,-0.327747 -0.530169,-0.268791 -0.233667,0.05896 -0.584747,0.376416 -0.866975,0.417851 -0.282228,0.04144 -0.495159,-0.192681 -0.709035,-0.427837"
       id="path9355-0"
       inkscape:path-effect="#path-effect9357-6"
       inkscape:original-d="m 76.565935,98.565453 c -0.132597,-0.04338 -0.265018,-0.08707 -0.397112,-0.130999 -0.170479,0.198651 -0.340828,0.397207 -0.510623,0.595173 -0.246358,-0.05577 -0.492627,-0.111847 -0.738854,-0.16824 -0.116011,-0.199831 -0.231519,-0.399528 -0.346905,-0.599756 -0.35162,0.317964 -0.7027,0.635423 -1.053796,0.952882 -0.213355,-0.234609 -0.426286,-0.468725 -0.640175,-0.703869"
       sodipodi:nodetypes="ccccccc" /><path
       style="fill:none;stroke:#eeeeee;stroke-width:0.138747;stroke-dasharray:none;stroke-opacity:1"
       d="m 72.548261,99.554328 c 0.141175,-0.04364 0.282263,-0.08726 0.443488,-0.0098 0.161224,0.07742 0.342721,0.275678 0.564399,0.346501 0.221677,0.07082 0.484063,0.01483 0.676905,-0.113037 0.192843,-0.127866 0.315909,-0.327264 0.564865,-0.268388 0.248955,0.05888 0.623014,0.375859 0.881626,0.396451 0.258613,0.02059 0.401467,-0.254628 0.544943,-0.531046"
       id="path9355-2"
       inkscape:path-effect="#path-effect9357-3"
       inkscape:original-d="m 72.548261,99.554328 c 0.141275,-0.04332 0.282363,-0.08694 0.423103,-0.130803 0.181638,0.198354 0.363135,0.396613 0.544043,0.594285 0.262484,-0.05569 0.52487,-0.111683 0.787214,-0.167991 0.123604,-0.199532 0.24667,-0.39893 0.36961,-0.598858 0.374633,0.317487 0.748691,0.634472 1.122767,0.951449 0.143498,-0.27563 0.286351,-0.55085 0.429489,-0.827443"
       sodipodi:nodetypes="ccccccc" /><path
       style="fill:none;stroke:#eeeeee;stroke-width:0.138586;stroke-dasharray:none;stroke-opacity:1"
       d="m 69.856527,99.658043 c -0.140846,-0.04364 -0.281607,-0.08726 -0.442458,-0.0098 -0.16085,0.07742 -0.341927,0.275678 -0.563089,0.3465 -0.221162,0.07082 -0.482937,0.01483 -0.675331,-0.113035 -0.192394,-0.127866 -0.315175,-0.327264 -0.563552,-0.268388 -0.248377,0.05888 -0.621569,0.375857 -0.879579,0.396443 -0.258011,0.0206 -0.400532,-0.25462 -0.543676,-0.531038"
       id="path9355-2-9"
       inkscape:path-effect="#path-effect9357-3-6"
       inkscape:original-d="m 69.856527,99.658043 c -0.140946,-0.04332 -0.281707,-0.08694 -0.42212,-0.130803 -0.181216,0.198354 -0.362292,0.396613 -0.542779,0.59428 -0.261874,-0.0557 -0.523651,-0.11168 -0.785385,-0.167986 -0.123317,-0.199532 -0.246098,-0.39893 -0.368751,-0.598858 -0.373763,0.317487 -0.746952,0.634472 -1.120159,0.951444 -0.143164,-0.27563 -0.285686,-0.550845 -0.428491,-0.827438"
       sodipodi:nodetypes="ccccccc" /><path
       style="opacity:1;fill:none;stroke:#eeeeee;stroke-width:0.132292;stroke-dasharray:none;stroke-opacity:1"
       d="m 67.18021,100.99527 c 0.249233,-0.20789 0.498829,-0.41607 0.68,-0.42088 0.181171,-0.005 0.293059,0.19314 0.434172,0.30721 0.141113,0.11407 0.311084,0.14423 0.524554,0.0336 0.213471,-0.11066 0.470403,-0.36189 0.669542,-0.38869 0.199139,-0.0268 0.34008,0.17055 0.471366,0.29644 0.131285,0.1259 0.25259,0.18029 0.478138,0.0783 0.225548,-0.10202 0.555377,-0.3602 0.765323,-0.38699 0.209946,-0.0268 0.299622,0.17751 0.416293,0.29832 0.116671,0.1208 0.260281,0.1583 0.481348,0.0867 0.221067,-0.0716 0.52087,-0.25251 0.733352,-0.26299 0.212483,-0.0105 0.337461,0.1486 0.462696,0.30801 0,0 0,0 0,0 0.152319,0.0624 0.304917,0.12501 0.463865,0.11493 0.158948,-0.0101 0.324518,-0.0924 0.462,-0.21672 0.137482,-0.12429 0.246709,-0.29034 0.427658,-0.28328 0.18095,0.007 0.4324,0.18671 0.684861,0.36707"
       id="path10209"
       inkscape:path-effect="#path-effect10211"
       inkscape:original-d="m 67.18021,100.99527 c 0.249472,-0.2076 0.499066,-0.41579 0.748769,-0.62455 0.112489,0.19881 0.224374,0.39676 0.336163,0.59473 0.170304,0.0305 0.340284,0.0606 0.510124,0.0905 0.257401,-0.25117 0.514336,-0.5024 0.771127,-0.75402 0.141275,0.19771 0.282218,0.39506 0.423008,0.59231 0.121674,0.0547 0.242979,0.10909 0.364094,0.16325 0.330265,-0.25804 0.66009,-0.51622 0.989883,-0.77483 0.09,0.20469 0.179674,0.40899 0.269128,0.61312 0.14372,0.0377 0.287328,0.0752 0.430323,0.11235 0.29937,-0.18022 0.599173,-0.36112 0.89846,-0.54213 0.125526,0.15971 0.375705,0.47823 0.375705,0.47823 v 0 c 0,0 0.304861,0.12515 0.456958,0.18735 0.166003,-0.0822 0.331581,-0.16454 0.497077,-0.24725 0.109615,-0.16598 0.218844,-0.33203 0.327917,-0.49851 0.252482,0.18046 0.503933,0.3601 0.756432,0.54041"
       sodipodi:nodetypes="ccccccccccccccccc" /><path
       style="opacity:1;fill:none;stroke:#eeeeee;stroke-width:0.132292;stroke-dasharray:none;stroke-opacity:1"
       d="m 72.037141,98.022882 c 0.446823,-0.52523 0.893665,-1.050483 1.258507,-1.636686 0.364842,-0.586204 0.647708,-1.233434 0.926156,-1.510164 0.278448,-0.276729 0.552093,-0.182933 0.544216,0.217575 -0.0079,0.400509 -0.29689,1.107674 -0.724381,1.810056 -0.427491,0.702383 -0.99346,1.400043 -1.559416,2.097688"
       id="path10222"
       inkscape:path-effect="#path-effect10224"
       inkscape:original-d="m 72.037141,98.022882 c 0.447106,-0.524989 0.893948,-1.050242 1.340525,-1.575757 0.283141,-0.646994 0.56601,-1.294223 0.848616,-1.94173 0.273918,0.09406 0.547561,0.18786 0.820944,0.281392 -0.288763,0.707459 -0.577778,1.414624 -0.867063,2.121541 -0.565727,0.697952 -1.131695,1.395613 -1.69794,2.093023" /><path
       style="fill:none;stroke:#eeeeee;stroke-width:0.132292;stroke-dasharray:none;stroke-opacity:1"
       d="m 70.368622,98.022882 c -0.446823,-0.52523 -0.893665,-1.050483 -1.258507,-1.636686 -0.364842,-0.586204 -0.647708,-1.233434 -0.926156,-1.510164 -0.278448,-0.276729 -0.552093,-0.182933 -0.544216,0.217575 0.0079,0.400509 0.29689,1.107674 0.724381,1.810056 0.427491,0.702383 0.99346,1.400043 1.559416,2.097688"
       id="path10222-4"
       inkscape:path-effect="#path-effect10224-5"
       inkscape:original-d="m 70.368622,98.022882 c -0.447106,-0.524989 -0.893948,-1.050242 -1.340525,-1.575757 -0.283141,-0.646994 -0.56601,-1.294223 -0.848616,-1.94173 -0.273918,0.09406 -0.547561,0.18786 -0.820944,0.281392 0.288763,0.707459 0.577778,1.414624 0.867063,2.121541 0.565727,0.697952 1.131695,1.395613 1.69794,2.093023" /></g></svg>
